<svg xmlns="http://www.w3.org/2000/svg" xmlns:xlink="http://www.w3.org/1999/xlink" width="200" zoomAndPan="magnify" viewBox="0 0 150 149.999998" height="200" preserveAspectRatio="xMidYMid meet" version="1.0"><defs><g/></defs><rect x="-15" width="180" fill="#ffffff" y="-15" height="179.999997" fill-opacity="1"/><rect x="-15" width="180" fill="#ffffff" y="-15" height="179.999997" fill-opacity="1"/><path fill="#ffcf00" d="M 40.230469 138.789062 C 39.675781 139.121094 39.097656 139.402344 38.488281 139.625 C 37.882812 139.851562 37.257812 140.015625 36.621094 140.125 C 35.980469 140.230469 35.339844 140.277344 34.691406 140.261719 C 34.042969 140.25 33.40625 140.175781 32.769531 140.039062 C 32.136719 139.90625 31.523438 139.710938 30.925781 139.460938 C 30.328125 139.210938 29.761719 138.90625 29.222656 138.546875 C 28.683594 138.1875 28.183594 137.785156 27.71875 137.332031 C 27.257812 136.878906 26.839844 136.386719 26.46875 135.855469 C 25.460938 133.90625 24.539062 131.917969 23.695312 129.890625 C 22.855469 127.863281 22.101562 125.804688 21.429688 123.714844 C 20.761719 121.628906 20.179688 119.511719 19.6875 117.375 C 19.195312 115.234375 18.792969 113.082031 18.480469 110.910156 C 18.171875 108.738281 17.949219 106.554688 17.820312 104.363281 C 17.691406 102.175781 17.652344 99.984375 17.703125 97.789062 C 17.757812 95.59375 17.902344 93.40625 18.140625 91.226562 C 18.375 89.042969 18.703125 86.875 19.121094 84.722656 C 19.539062 82.570312 20.046875 80.433594 20.640625 78.324219 C 21.238281 76.210938 21.921875 74.128906 22.691406 72.074219 C 23.460938 70.019531 24.316406 68 25.257812 66.015625 C 26.195312 64.035156 27.214844 62.09375 28.316406 60.195312 C 29.417969 58.296875 30.597656 56.449219 31.851562 54.648438 C 33.109375 52.851562 34.4375 51.105469 35.839844 49.417969 C 37.242188 47.730469 38.710938 46.101562 40.25 44.539062 C 41.785156 42.972656 43.386719 41.472656 45.050781 40.042969 C 46.714844 38.613281 48.433594 37.25 50.210938 35.964844 C 51.988281 34.675781 53.8125 33.464844 55.691406 32.332031 C 57.570312 31.195312 59.492188 30.140625 61.457031 29.167969 C 63.425781 28.191406 65.429688 27.300781 67.46875 26.496094 C 69.507812 25.6875 71.582031 24.96875 73.679688 24.335938 C 75.78125 23.703125 77.90625 23.15625 80.050781 22.703125 C 82.199219 22.246094 84.359375 21.878906 86.539062 21.605469 C 88.714844 21.332031 90.898438 21.144531 93.089844 21.054688 C 95.285156 20.960938 97.476562 20.960938 99.667969 21.050781 C 101.859375 21.140625 104.046875 21.324219 106.222656 21.597656 C 108.402344 21.871094 110.5625 22.234375 112.710938 22.691406 C 114.855469 23.144531 116.980469 23.6875 119.082031 24.320312 C 121.183594 24.953125 123.253906 25.671875 125.296875 26.476562 C 127.335938 27.28125 129.339844 28.167969 131.308594 29.140625 C 133.273438 30.113281 135.199219 31.167969 137.078125 32.300781 C 138.957031 33.433594 140.785156 34.644531 142.5625 35.933594 C 143.03125 36.375 143.457031 36.863281 143.835938 37.386719 C 144.214844 37.910156 144.539062 38.46875 144.8125 39.054688 C 145.085938 39.640625 145.304688 40.25 145.460938 40.875 C 145.621094 41.503906 145.722656 42.140625 145.761719 42.785156 C 145.800781 43.433594 145.777344 44.078125 145.695312 44.71875 C 145.613281 45.359375 145.472656 45.988281 145.269531 46.605469 C 145.070312 47.21875 144.8125 47.8125 144.5 48.378906 C 144.1875 48.945312 143.824219 49.476562 143.410156 49.976562 L 129.269531 64.941406 C 128.84375 65.539062 128.359375 66.082031 127.8125 66.574219 C 127.269531 67.070312 126.683594 67.5 126.046875 67.867188 C 125.410156 68.234375 124.746094 68.53125 124.046875 68.753906 C 123.347656 68.980469 122.632812 69.128906 121.902344 69.199219 C 121.171875 69.273438 120.441406 69.265625 119.714844 69.179688 C 118.984375 69.097656 118.273438 68.9375 117.578125 68.699219 C 116.882812 68.464844 116.222656 68.15625 115.59375 67.777344 C 114.964844 67.402344 114.382812 66.960938 113.847656 66.457031 C 112.1875 65.589844 110.476562 64.847656 108.710938 64.234375 C 106.941406 63.621094 105.136719 63.144531 103.300781 62.800781 C 101.460938 62.457031 99.605469 62.253906 97.734375 62.1875 C 95.867188 62.121094 94 62.195312 92.140625 62.40625 C 90.285156 62.617188 88.449219 62.96875 86.644531 63.453125 C 84.835938 63.941406 83.078125 64.558594 81.363281 65.308594 C 79.648438 66.058594 78 66.933594 76.417969 67.929688 C 74.832031 68.925781 73.332031 70.03125 71.914062 71.253906 C 70.496094 72.472656 69.175781 73.792969 67.957031 75.210938 C 66.734375 76.628906 65.625 78.128906 64.628906 79.710938 C 63.632812 81.296875 62.761719 82.945312 62.011719 84.660156 C 61.261719 86.371094 60.640625 88.132812 60.15625 89.941406 C 59.667969 91.746094 59.316406 93.578125 59.105469 95.4375 C 58.890625 97.296875 58.816406 99.160156 58.882812 101.03125 C 58.949219 102.898438 59.15625 104.753906 59.496094 106.59375 C 59.839844 108.433594 60.316406 110.238281 60.929688 112.003906 C 61.347656 112.609375 61.695312 113.25 61.976562 113.925781 C 62.257812 114.605469 62.460938 115.304688 62.59375 116.027344 C 62.722656 116.75 62.773438 117.476562 62.75 118.210938 C 62.722656 118.945312 62.621094 119.667969 62.441406 120.378906 C 62.261719 121.089844 62.007812 121.773438 61.683594 122.433594 C 61.355469 123.089844 60.964844 123.707031 60.507812 124.277344 C 60.050781 124.851562 59.535156 125.371094 58.96875 125.835938 C 58.398438 126.296875 57.789062 126.695312 57.132812 127.03125 Z M 40.230469 138.789062 " fill-opacity="1" fill-rule="nonzero"/><g fill="#000000" fill-opacity="1"><g transform="translate(48.728154, 123.852892)"><g><path d="M -17 -19.453125 L -15.78125 -14.515625 C -17.894531 -13.359375 -18.582031 -11.269531 -17.84375 -8.25 C -17.394531 -6.425781 -16.519531 -5.117188 -15.21875 -4.328125 C -13.925781 -3.535156 -12.375 -3.363281 -10.5625 -3.8125 C -8.738281 -4.257812 -7.441406 -5.132812 -6.671875 -6.4375 C -5.898438 -7.738281 -5.738281 -9.300781 -6.1875 -11.125 C -6.570312 -12.726562 -7.21875 -13.914062 -8.125 -14.6875 C -9.039062 -15.46875 -10.109375 -15.789062 -11.328125 -15.65625 L -12.546875 -20.625 C -11.023438 -20.84375 -9.585938 -20.640625 -8.234375 -20.015625 C -6.878906 -19.398438 -5.703125 -18.414062 -4.703125 -17.0625 C -3.703125 -15.707031 -2.957031 -14.03125 -2.46875 -12.03125 C -1.914062 -9.820312 -1.832031 -7.800781 -2.21875 -5.96875 C -2.601562 -4.144531 -3.398438 -2.613281 -4.609375 -1.375 C -5.828125 -0.144531 -7.398438 0.707031 -9.328125 1.1875 C -11.234375 1.65625 -13.015625 1.625 -14.671875 1.09375 C -16.328125 0.5625 -17.75 -0.421875 -18.9375 -1.859375 C -20.125 -3.304688 -20.992188 -5.132812 -21.546875 -7.34375 C -22.035156 -9.34375 -22.15625 -11.164062 -21.90625 -12.8125 C -21.664062 -14.46875 -21.117188 -15.863281 -20.265625 -17 C -19.410156 -18.144531 -18.320312 -18.960938 -17 -19.453125 Z M -17 -19.453125 "/></g></g></g><g fill="#000000" fill-opacity="1"><g transform="translate(42.996025, 102.607957)"><g><path d="M -16.71875 -15.46875 C -16.3125 -17.71875 -15.554688 -19.59375 -14.453125 -21.09375 C -13.359375 -22.59375 -12.003906 -23.660156 -10.390625 -24.296875 C -8.785156 -24.929688 -7.015625 -25.070312 -5.078125 -24.71875 C -3.128906 -24.375 -1.503906 -23.625 -0.203125 -22.46875 C 1.085938 -21.3125 1.984375 -19.84375 2.484375 -18.0625 C 2.992188 -16.28125 3.046875 -14.265625 2.640625 -12.015625 C 2.242188 -9.765625 1.492188 -7.878906 0.390625 -6.359375 C -0.703125 -4.847656 -2.054688 -3.773438 -3.671875 -3.140625 C -5.285156 -2.503906 -7.066406 -2.359375 -9.015625 -2.703125 C -10.953125 -3.054688 -12.566406 -3.8125 -13.859375 -4.96875 C -15.148438 -6.125 -16.046875 -7.597656 -16.546875 -9.390625 C -17.054688 -11.191406 -17.113281 -13.21875 -16.71875 -15.46875 Z M -12.953125 -14.796875 C -13.273438 -12.953125 -13.003906 -11.40625 -12.140625 -10.15625 C -11.285156 -8.90625 -9.941406 -8.113281 -8.109375 -7.78125 C -6.253906 -7.457031 -4.707031 -7.734375 -3.46875 -8.609375 C -2.238281 -9.484375 -1.460938 -10.84375 -1.140625 -12.6875 C -0.804688 -14.519531 -1.066406 -16.054688 -1.921875 -17.296875 C -2.773438 -18.546875 -4.128906 -19.332031 -5.984375 -19.65625 C -7.835938 -19.988281 -9.378906 -19.71875 -10.609375 -18.84375 C -11.835938 -17.976562 -12.617188 -16.628906 -12.953125 -14.796875 Z M -12.953125 -14.796875 "/></g></g></g><g fill="#000000" fill-opacity="1"><g transform="translate(46.578153, 80.498165)"><g><path d="M -14.34375 -12.15625 L -11.125 -16.9375 L 5.03125 -17.328125 L -5.90625 -24.6875 L -3.390625 -28.421875 L 12.109375 -17.984375 L 8.9375 -13.265625 L -7.359375 -12.90625 L 3.6875 -5.46875 L 1.15625 -1.71875 Z M -14.34375 -12.15625 "/></g></g></g><g fill="#000000" fill-opacity="1"><g transform="translate(58.938532, 62.553247)"><g><path d="M -11.078125 -15.046875 L 3.109375 -25.296875 L 5.359375 -22.1875 L 0.15625 -18.4375 L 8.859375 -6.40625 L 5.0625 -3.65625 L -3.640625 -15.6875 L -8.828125 -11.9375 Z M -11.078125 -15.046875 "/></g></g></g><g fill="#000000" fill-opacity="1"><g transform="translate(71.120037, 53.024954)"><g><path d="M -0.5 0.15625 L 2.46875 -20.3125 L 6.75 -21.640625 L 20.375 -6.28125 L 15.421875 -4.75 L 12.625 -8.046875 L 4.75 -5.625 L 4.328125 -1.328125 Z M 5.171875 -9.703125 L 9.890625 -11.15625 L 5.8125 -15.9375 Z M 5.171875 -9.703125 "/></g></g></g><g fill="#000000" fill-opacity="1"><g transform="translate(88.938832, 46.794745)"><g><path d="M 23.890625 -9.8125 L 18.828125 -10.25 C 18.421875 -12.613281 16.671875 -13.929688 13.578125 -14.203125 C 11.710938 -14.367188 10.191406 -13.96875 9.015625 -13 C 7.847656 -12.03125 7.179688 -10.617188 7.015625 -8.765625 C 6.847656 -6.890625 7.257812 -5.375 8.25 -4.21875 C 9.238281 -3.070312 10.664062 -2.414062 12.53125 -2.25 C 14.164062 -2.113281 15.5 -2.347656 16.53125 -2.953125 C 17.5625 -3.566406 18.210938 -4.46875 18.484375 -5.65625 L 23.578125 -5.203125 C 23.285156 -3.710938 22.625 -2.425781 21.59375 -1.34375 C 20.570312 -0.257812 19.257812 0.535156 17.65625 1.046875 C 16.050781 1.566406 14.226562 1.738281 12.1875 1.5625 C 9.914062 1.351562 7.976562 0.769531 6.375 -0.1875 C 4.769531 -1.144531 3.578125 -2.394531 2.796875 -3.9375 C 2.023438 -5.476562 1.722656 -7.238281 1.890625 -9.21875 C 2.066406 -11.175781 2.671875 -12.851562 3.703125 -14.25 C 4.734375 -15.644531 6.125 -16.671875 7.875 -17.328125 C 9.625 -17.992188 11.632812 -18.222656 13.90625 -18.015625 C 15.945312 -17.835938 17.707031 -17.363281 19.1875 -16.59375 C 20.675781 -15.832031 21.820312 -14.863281 22.625 -13.6875 C 23.4375 -12.519531 23.859375 -11.226562 23.890625 -9.8125 Z M 23.890625 -9.8125 "/></g></g></g><g fill="#000000" fill-opacity="1"><g transform="translate(110.936575, 48.984449)"><g><path d="M 7.859375 -16.953125 L 23.671875 -9.46875 L 22.03125 -5.984375 L 16.25 -8.71875 L 9.890625 4.6875 L 5.640625 2.671875 L 12 -10.734375 L 6.21875 -13.46875 Z M 7.859375 -16.953125 "/></g></g></g></svg>