<svg xmlns="http://www.w3.org/2000/svg" xmlns:xlink="http://www.w3.org/1999/xlink" width="200" zoomAndPan="magnify" viewBox="0 0 150 149.999998" height="200" preserveAspectRatio="xMidYMid meet" version="1.0"><defs><clipPath id="ea033b951b"><path d="M 1.753906 1 L 147 1 L 147 149 L 1.753906 149 Z M 1.753906 1 " clip-rule="nonzero"/></clipPath></defs><rect x="-15" width="180" fill="#ffffff" y="-15" height="179.999997" fill-opacity="1"/><rect x="-15" width="180" fill="#ffffff" y="-15" height="179.999997" fill-opacity="1"/><g clip-path="url(#ea033b951b)"><path fill="#6edbb0" d="M 116.882812 75.324219 C 115.019531 74.429688 113.164062 73.605469 111.328125 72.855469 C 112.457031 72.363281 113.589844 71.839844 114.726562 71.296875 C 134.101562 61.964844 146.867188 48.300781 143.238281 40.769531 C 139.613281 33.242188 120.972656 34.703125 101.597656 44.03125 C 99.738281 44.929688 97.9375 45.863281 96.207031 46.832031 C 96.523438 45.644531 96.824219 44.433594 97.105469 43.203125 C 101.890625 22.238281 99.164062 3.738281 91.019531 1.878906 C 82.871094 0.0195312 72.390625 15.507812 67.605469 36.46875 C 67.144531 38.480469 66.753906 40.472656 66.433594 42.429688 C 65.699219 41.4375 64.941406 40.449219 64.15625 39.464844 C 50.75 22.652344 34.585938 13.25 28.050781 18.457031 C 21.519531 23.667969 27.089844 41.519531 40.5 58.332031 C 41.785156 59.945312 43.097656 61.492188 44.429688 62.964844 C 43.199219 62.917969 41.949219 62.894531 40.6875 62.894531 C 19.1875 62.894531 1.757812 69.671875 1.757812 78.027344 C 1.757812 86.382812 19.1875 93.15625 40.6875 93.15625 C 42.753906 93.15625 44.78125 93.09375 46.761719 92.972656 C 45.957031 93.90625 45.164062 94.867188 44.375 95.851562 C 30.96875 112.664062 25.398438 130.515625 31.929688 135.722656 C 38.464844 140.933594 54.628906 131.527344 68.035156 114.71875 C 69.324219 113.101562 70.539062 111.476562 71.675781 109.855469 C 71.90625 111.0625 72.160156 112.285156 72.441406 113.515625 C 77.226562 134.480469 87.710938 149.964844 95.855469 148.105469 C 104.003906 146.246094 106.726562 127.746094 101.941406 106.78125 C 101.484375 104.769531 100.972656 102.804688 100.414062 100.902344 C 101.5 101.476562 102.613281 102.039062 103.75 102.589844 C 123.121094 111.917969 141.765625 113.375 145.394531 105.847656 C 149.019531 98.320312 136.253906 84.652344 116.882812 75.324219 Z M 118.3125 94.164062 C 116.058594 98.839844 104.476562 97.933594 92.441406 92.136719 C 91.734375 91.796875 91.042969 91.449219 90.367188 91.089844 C 90.714844 92.273438 91.03125 93.492188 91.316406 94.742188 C 94.289062 107.769531 92.597656 119.261719 87.535156 120.417969 C 82.472656 121.574219 75.960938 111.953125 72.988281 98.925781 C 72.8125 98.164062 72.65625 97.40625 72.511719 96.652344 C 71.804688 97.660156 71.050781 98.671875 70.25 99.675781 C 61.921875 110.121094 51.878906 115.960938 47.816406 112.726562 C 43.757812 109.488281 47.21875 98.398438 55.550781 87.953125 C 56.039062 87.339844 56.535156 86.742188 57.03125 86.164062 C 55.804688 86.238281 54.542969 86.277344 53.257812 86.277344 C 39.898438 86.277344 29.070312 82.070312 29.070312 76.878906 C 29.070312 71.683594 39.898438 67.476562 53.257812 67.476562 C 54.042969 67.476562 54.816406 67.492188 55.582031 67.519531 C 54.757812 66.605469 53.941406 65.644531 53.140625 64.640625 C 44.8125 54.195312 41.351562 43.105469 45.40625 39.867188 C 49.464844 36.628906 59.507812 42.476562 67.839844 52.917969 C 68.328125 53.53125 68.800781 54.144531 69.253906 54.761719 C 69.453125 53.546875 69.695312 52.308594 69.980469 51.058594 C 72.953125 38.035156 79.46875 28.414062 84.53125 29.566406 C 89.589844 30.722656 91.285156 42.21875 88.3125 55.242188 C 88.136719 56.003906 87.949219 56.757812 87.753906 57.496094 C 88.828125 56.894531 89.945312 56.316406 91.101562 55.757812 C 103.136719 49.960938 114.722656 49.054688 116.972656 53.730469 C 119.226562 58.410156 111.296875 66.898438 99.261719 72.695312 C 98.550781 73.035156 97.851562 73.359375 97.148438 73.664062 C 98.289062 74.128906 99.441406 74.644531 100.597656 75.199219 C 112.632812 80.996094 120.5625 89.484375 118.3125 94.164062 Z M 118.3125 94.164062 " fill-opacity="1" fill-rule="nonzero"/></g></svg>