<svg xmlns="http://www.w3.org/2000/svg" xmlns:xlink="http://www.w3.org/1999/xlink" width="200" zoomAndPan="magnify" viewBox="0 0 150 74.999997" height="100" preserveAspectRatio="xMidYMid meet" version="1.2"><defs><clipPath id="2c29a0bf3e"><path d="M 5.753906 38.382812 L 13.75 38.382812 L 13.75 46.785156 L 5.753906 46.785156 Z M 5.753906 38.382812 "/></clipPath><clipPath id="681b86c4aa"><path d="M 9.753906 38.382812 C 7.542969 38.382812 5.753906 40.265625 5.753906 42.582031 C 5.753906 44.902344 7.542969 46.78125 9.753906 46.78125 C 11.960938 46.78125 13.75 44.902344 13.75 42.582031 C 13.75 40.265625 11.960938 38.382812 9.753906 38.382812 Z M 9.753906 38.382812 "/></clipPath><clipPath id="7670887461"><path d="M 5.757812 38.382812 L 13.609375 38.382812 L 13.609375 46.542969 L 5.757812 46.542969 Z M 5.757812 38.382812 "/></clipPath><clipPath id="4a5aade562"><path d="M 9.640625 38.382812 C 7.496094 38.382812 5.757812 40.210938 5.757812 42.464844 C 5.757812 44.714844 7.496094 46.542969 9.640625 46.542969 C 11.785156 46.542969 13.523438 44.714844 13.523438 42.464844 C 13.523438 40.210938 11.785156 38.382812 9.640625 38.382812 Z M 9.640625 38.382812 "/></clipPath><clipPath id="66a3186e8b"><path d="M 17.527344 38.382812 L 25.519531 38.382812 L 25.519531 46.785156 L 17.527344 46.785156 Z M 17.527344 38.382812 "/></clipPath><clipPath id="981eaff4d8"><path d="M 21.523438 38.382812 C 19.316406 38.382812 17.527344 40.265625 17.527344 42.582031 C 17.527344 44.902344 19.316406 46.78125 21.523438 46.78125 C 23.730469 46.78125 25.519531 44.902344 25.519531 42.582031 C 25.519531 40.265625 23.730469 38.382812 21.523438 38.382812 Z M 21.523438 38.382812 "/></clipPath><clipPath id="0449914ee8"><path d="M 17.53125 38.382812 L 25.378906 38.382812 L 25.378906 46.542969 L 17.53125 46.542969 Z M 17.53125 38.382812 "/></clipPath><clipPath id="8f23ec180e"><path d="M 21.414062 38.382812 C 19.269531 38.382812 17.53125 40.210938 17.53125 42.464844 C 17.53125 44.714844 19.269531 46.542969 21.414062 46.542969 C 23.558594 46.542969 25.296875 44.714844 25.296875 42.464844 C 25.296875 40.210938 23.558594 38.382812 21.414062 38.382812 Z M 21.414062 38.382812 "/></clipPath><clipPath id="63fb13007b"><path d="M 29.296875 38.382812 L 37.292969 38.382812 L 37.292969 46.785156 L 29.296875 46.785156 Z M 29.296875 38.382812 "/></clipPath><clipPath id="41be2b841d"><path d="M 33.296875 38.382812 C 31.089844 38.382812 29.296875 40.265625 29.296875 42.582031 C 29.296875 44.902344 31.089844 46.78125 33.296875 46.78125 C 35.503906 46.78125 37.292969 44.902344 37.292969 42.582031 C 37.292969 40.265625 35.503906 38.382812 33.296875 38.382812 Z M 33.296875 38.382812 "/></clipPath><clipPath id="24e9b297a0"><path d="M 29.300781 38.382812 L 37.152344 38.382812 L 37.152344 46.542969 L 29.300781 46.542969 Z M 29.300781 38.382812 "/></clipPath><clipPath id="55e03b3200"><path d="M 33.183594 38.382812 C 31.039062 38.382812 29.300781 40.210938 29.300781 42.464844 C 29.300781 44.714844 31.039062 46.542969 33.183594 46.542969 C 35.328125 46.542969 37.066406 44.714844 37.066406 42.464844 C 37.066406 40.210938 35.328125 38.382812 33.183594 38.382812 Z M 33.183594 38.382812 "/></clipPath><clipPath id="0778a5d9bc"><path d="M 41.070312 38.382812 L 49.0625 38.382812 L 49.0625 46.785156 L 41.070312 46.785156 Z M 41.070312 38.382812 "/></clipPath><clipPath id="328d00047a"><path d="M 45.066406 38.382812 C 42.859375 38.382812 41.070312 40.265625 41.070312 42.582031 C 41.070312 44.902344 42.859375 46.78125 45.066406 46.78125 C 47.273438 46.78125 49.0625 44.902344 49.0625 42.582031 C 49.0625 40.265625 47.273438 38.382812 45.066406 38.382812 Z M 45.066406 38.382812 "/></clipPath><clipPath id="e4065ee2ba"><path d="M 41.074219 38.382812 L 48.925781 38.382812 L 48.925781 46.542969 L 41.074219 46.542969 Z M 41.074219 38.382812 "/></clipPath><clipPath id="2333252e3f"><path d="M 44.957031 38.382812 C 42.8125 38.382812 41.074219 40.210938 41.074219 42.464844 C 41.074219 44.714844 42.8125 46.542969 44.957031 46.542969 C 47.101562 46.542969 48.839844 44.714844 48.839844 42.464844 C 48.839844 40.210938 47.101562 38.382812 44.957031 38.382812 Z M 44.957031 38.382812 "/></clipPath><clipPath id="1d5ab2fc23"><path d="M 52.847656 38.382812 L 60.695312 38.382812 L 60.695312 46.542969 L 52.847656 46.542969 Z M 52.847656 38.382812 "/></clipPath><clipPath id="ce47453dfa"><path d="M 56.726562 38.382812 C 54.582031 38.382812 52.847656 40.210938 52.847656 42.464844 C 52.847656 44.714844 54.582031 46.542969 56.726562 46.542969 C 58.871094 46.542969 60.609375 44.714844 60.609375 42.464844 C 60.609375 40.210938 58.871094 38.382812 56.726562 38.382812 Z M 56.726562 38.382812 "/></clipPath><clipPath id="b4b3a6a16c"><path d="M 5.753906 61.191406 L 13.75 61.191406 L 13.75 69.71875 L 5.753906 69.71875 Z M 5.753906 61.191406 "/></clipPath><clipPath id="d1242335e0"><path d="M 9.753906 61.191406 C 7.542969 61.191406 5.753906 63.09375 5.753906 65.441406 C 5.753906 67.785156 7.542969 69.6875 9.753906 69.6875 C 11.960938 69.6875 13.75 67.785156 13.75 65.441406 C 13.75 63.09375 11.960938 61.191406 9.753906 61.191406 Z M 9.753906 61.191406 "/></clipPath><clipPath id="9e3e937085"><path d="M 5.757812 61.191406 L 13.515625 61.191406 L 13.515625 69.347656 L 5.757812 69.347656 Z M 5.757812 61.191406 "/></clipPath><clipPath id="cbe0448d40"><path d="M 9.59375 61.191406 C 7.476562 61.191406 5.757812 63.019531 5.757812 65.269531 C 5.757812 67.523438 7.476562 69.347656 9.59375 69.347656 C 11.714844 69.347656 13.433594 67.523438 13.433594 65.269531 C 13.433594 63.019531 11.714844 61.191406 9.59375 61.191406 Z M 9.59375 61.191406 "/></clipPath><clipPath id="08cd27f1b8"><path d="M 17.527344 61.191406 L 25.519531 61.191406 L 25.519531 69.71875 L 17.527344 69.71875 Z M 17.527344 61.191406 "/></clipPath><clipPath id="1a5d51ccc7"><path d="M 21.523438 61.191406 C 19.316406 61.191406 17.527344 63.09375 17.527344 65.441406 C 17.527344 67.785156 19.316406 69.6875 21.523438 69.6875 C 23.730469 69.6875 25.519531 67.785156 25.519531 65.441406 C 25.519531 63.09375 23.730469 61.191406 21.523438 61.191406 Z M 21.523438 61.191406 "/></clipPath><clipPath id="6a29b11ea4"><path d="M 17.527344 61.191406 L 25.289062 61.191406 L 25.289062 69.347656 L 17.527344 69.347656 Z M 17.527344 61.191406 "/></clipPath><clipPath id="8588be415e"><path d="M 21.367188 61.191406 C 19.246094 61.191406 17.527344 63.019531 17.527344 65.269531 C 17.527344 67.523438 19.246094 69.347656 21.367188 69.347656 C 23.484375 69.347656 25.203125 67.523438 25.203125 65.269531 C 25.203125 63.019531 23.484375 61.191406 21.367188 61.191406 Z M 21.367188 61.191406 "/></clipPath><clipPath id="beaf6cfb73"><path d="M 29.296875 61.191406 L 37.292969 61.191406 L 37.292969 69.71875 L 29.296875 69.71875 Z M 29.296875 61.191406 "/></clipPath><clipPath id="38a79fbcce"><path d="M 33.296875 61.191406 C 31.089844 61.191406 29.296875 63.09375 29.296875 65.441406 C 29.296875 67.785156 31.089844 69.6875 33.296875 69.6875 C 35.503906 69.6875 37.292969 67.785156 37.292969 65.441406 C 37.292969 63.09375 35.503906 61.191406 33.296875 61.191406 Z M 33.296875 61.191406 "/></clipPath><clipPath id="da145278e5"><path d="M 29.300781 61.191406 L 37 61.191406 L 37 69.347656 L 29.300781 69.347656 Z M 29.300781 61.191406 "/></clipPath><clipPath id="a429703237"><path d="M 33.136719 61.191406 C 31.019531 61.191406 29.300781 63.019531 29.300781 65.269531 C 29.300781 67.523438 31.019531 69.347656 33.136719 69.347656 C 35.257812 69.347656 36.976562 67.523438 36.976562 65.269531 C 36.976562 63.019531 35.257812 61.191406 33.136719 61.191406 Z M 33.136719 61.191406 "/></clipPath><clipPath id="ddf96a3720"><path d="M 41.070312 61.191406 L 49.0625 61.191406 L 49.0625 69.71875 L 41.070312 69.71875 Z M 41.070312 61.191406 "/></clipPath><clipPath id="3fd7881f14"><path d="M 45.066406 61.191406 C 42.859375 61.191406 41.070312 63.09375 41.070312 65.441406 C 41.070312 67.785156 42.859375 69.6875 45.066406 69.6875 C 47.273438 69.6875 49.0625 67.785156 49.0625 65.441406 C 49.0625 63.09375 47.273438 61.191406 45.066406 61.191406 Z M 45.066406 61.191406 "/></clipPath><clipPath id="addc2e650d"><path d="M 41.070312 61.191406 L 48.832031 61.191406 L 48.832031 69.347656 L 41.070312 69.347656 Z M 41.070312 61.191406 "/></clipPath><clipPath id="85cdd109a2"><path d="M 44.910156 61.191406 C 42.789062 61.191406 41.070312 63.019531 41.070312 65.269531 C 41.070312 67.523438 42.789062 69.347656 44.910156 69.347656 C 47.027344 69.347656 48.746094 67.523438 48.746094 65.269531 C 48.746094 63.019531 47.027344 61.191406 44.910156 61.191406 Z M 44.910156 61.191406 "/></clipPath><clipPath id="fe3ae89485"><path d="M 52.84375 61.191406 L 60.601562 61.191406 L 60.601562 69.347656 L 52.84375 69.347656 Z M 52.84375 61.191406 "/></clipPath><clipPath id="5ae9750a32"><path d="M 56.679688 61.191406 C 54.5625 61.191406 52.84375 63.019531 52.84375 65.269531 C 52.84375 67.523438 54.5625 69.347656 56.679688 69.347656 C 58.800781 69.347656 60.519531 67.523438 60.519531 65.269531 C 60.519531 63.019531 58.800781 61.191406 56.679688 61.191406 Z M 56.679688 61.191406 "/></clipPath><clipPath id="967231d8aa"><path d="M 85.707031 61.191406 L 94.203125 61.191406 L 94.203125 69.6875 L 85.707031 69.6875 Z M 85.707031 61.191406 "/></clipPath><clipPath id="abfe718ad1"><path d="M 89.953125 61.191406 C 87.609375 61.191406 85.707031 63.09375 85.707031 65.441406 C 85.707031 67.785156 87.609375 69.6875 89.953125 69.6875 C 92.300781 69.6875 94.203125 67.785156 94.203125 65.441406 C 94.203125 63.09375 92.300781 61.191406 89.953125 61.191406 Z M 89.953125 61.191406 "/></clipPath><clipPath id="c6c0aa83d6"><path d="M 85.707031 61.191406 L 93.863281 61.191406 L 93.863281 69.347656 L 85.707031 69.347656 Z M 85.707031 61.191406 "/></clipPath><clipPath id="1219511a28"><path d="M 89.785156 61.191406 C 87.53125 61.191406 85.707031 63.019531 85.707031 65.269531 C 85.707031 67.523438 87.53125 69.347656 89.785156 69.347656 C 92.035156 69.347656 93.863281 67.523438 93.863281 65.269531 C 93.863281 63.019531 92.035156 61.191406 89.785156 61.191406 Z M 89.785156 61.191406 "/></clipPath><clipPath id="4c02be61ec"><path d="M 98.214844 61.191406 L 106.710938 61.191406 L 106.710938 69.6875 L 98.214844 69.6875 Z M 98.214844 61.191406 "/></clipPath><clipPath id="6091eebf74"><path d="M 102.464844 61.191406 C 100.117188 61.191406 98.214844 63.09375 98.214844 65.441406 C 98.214844 67.785156 100.117188 69.6875 102.464844 69.6875 C 104.8125 69.6875 106.710938 67.785156 106.710938 65.441406 C 106.710938 63.09375 104.8125 61.191406 102.464844 61.191406 Z M 102.464844 61.191406 "/></clipPath><clipPath id="85383f2749"><path d="M 98.214844 61.191406 L 106.375 61.191406 L 106.375 69.347656 L 98.214844 69.347656 Z M 98.214844 61.191406 "/></clipPath><clipPath id="9d9f3b4412"><path d="M 102.296875 61.191406 C 100.042969 61.191406 98.214844 63.019531 98.214844 65.269531 C 98.214844 67.523438 100.042969 69.347656 102.296875 69.347656 C 104.546875 69.347656 106.375 67.523438 106.375 65.269531 C 106.375 63.019531 104.546875 61.191406 102.296875 61.191406 Z M 102.296875 61.191406 "/></clipPath><clipPath id="a27b41d57b"><path d="M 110.726562 61.191406 L 119.222656 61.191406 L 119.222656 69.6875 L 110.726562 69.6875 Z M 110.726562 61.191406 "/></clipPath><clipPath id="d464fbf4cd"><path d="M 114.976562 61.191406 C 112.628906 61.191406 110.726562 63.09375 110.726562 65.441406 C 110.726562 67.785156 112.628906 69.6875 114.976562 69.6875 C 117.320312 69.6875 119.222656 67.785156 119.222656 65.441406 C 119.222656 63.09375 117.320312 61.191406 114.976562 61.191406 Z M 114.976562 61.191406 "/></clipPath><clipPath id="836f07cad7"><path d="M 110.726562 61.191406 L 118.882812 61.191406 L 118.882812 69.347656 L 110.726562 69.347656 Z M 110.726562 61.191406 "/></clipPath><clipPath id="b2dfda7029"><path d="M 114.804688 61.191406 C 112.554688 61.191406 110.726562 63.019531 110.726562 65.269531 C 110.726562 67.523438 112.554688 69.347656 114.804688 69.347656 C 117.058594 69.347656 118.882812 67.523438 118.882812 65.269531 C 118.882812 63.019531 117.058594 61.191406 114.804688 61.191406 Z M 114.804688 61.191406 "/></clipPath><clipPath id="2f32fec5d6"><path d="M 123.238281 61.191406 L 131.394531 61.191406 L 131.394531 69.347656 L 123.238281 69.347656 Z M 123.238281 61.191406 "/></clipPath><clipPath id="7bcd96a229"><path d="M 127.316406 61.191406 C 125.0625 61.191406 123.238281 63.019531 123.238281 65.269531 C 123.238281 67.523438 125.0625 69.347656 127.316406 69.347656 C 129.570312 69.347656 131.394531 67.523438 131.394531 65.269531 C 131.394531 63.019531 129.570312 61.191406 127.316406 61.191406 Z M 127.316406 61.191406 "/></clipPath><clipPath id="02027dfc2b"><path d="M 135.75 61.191406 L 143.90625 61.191406 L 143.90625 69.347656 L 135.75 69.347656 Z M 135.75 61.191406 "/></clipPath><clipPath id="aad33588e7"><path d="M 139.828125 61.191406 C 137.574219 61.191406 135.75 63.019531 135.75 65.269531 C 135.75 67.523438 137.574219 69.347656 139.828125 69.347656 C 142.078125 69.347656 143.90625 67.523438 143.90625 65.269531 C 143.90625 63.019531 142.078125 61.191406 139.828125 61.191406 Z M 139.828125 61.191406 "/></clipPath><clipPath id="c1569ad1e2"><path d="M 85.707031 38.285156 L 94.203125 38.285156 L 94.203125 46.78125 L 85.707031 46.78125 Z M 85.707031 38.285156 "/></clipPath><clipPath id="7debd4d043"><path d="M 89.953125 38.285156 C 87.609375 38.285156 85.707031 40.1875 85.707031 42.535156 C 85.707031 44.878906 87.609375 46.78125 89.953125 46.78125 C 92.300781 46.78125 94.203125 44.878906 94.203125 42.535156 C 94.203125 40.1875 92.300781 38.285156 89.953125 38.285156 Z M 89.953125 38.285156 "/></clipPath><clipPath id="e74b79fe78"><path d="M 85.707031 38.285156 L 93.863281 38.285156 L 93.863281 46.441406 L 85.707031 46.441406 Z M 85.707031 38.285156 "/></clipPath><clipPath id="444b73dfee"><path d="M 89.785156 38.285156 C 87.53125 38.285156 85.707031 40.113281 85.707031 42.363281 C 85.707031 44.617188 87.53125 46.441406 89.785156 46.441406 C 92.035156 46.441406 93.863281 44.617188 93.863281 42.363281 C 93.863281 40.113281 92.035156 38.285156 89.785156 38.285156 Z M 89.785156 38.285156 "/></clipPath><clipPath id="b500c15dc4"><path d="M 98.214844 38.285156 L 106.710938 38.285156 L 106.710938 46.78125 L 98.214844 46.78125 Z M 98.214844 38.285156 "/></clipPath><clipPath id="2aa0dae4ed"><path d="M 102.464844 38.285156 C 100.117188 38.285156 98.214844 40.1875 98.214844 42.535156 C 98.214844 44.878906 100.117188 46.78125 102.464844 46.78125 C 104.8125 46.78125 106.710938 44.878906 106.710938 42.535156 C 106.710938 40.1875 104.8125 38.285156 102.464844 38.285156 Z M 102.464844 38.285156 "/></clipPath><clipPath id="a47fbd5b4f"><path d="M 98.214844 38.285156 L 106.375 38.285156 L 106.375 46.441406 L 98.214844 46.441406 Z M 98.214844 38.285156 "/></clipPath><clipPath id="ca5c0b24f9"><path d="M 102.296875 38.285156 C 100.042969 38.285156 98.214844 40.113281 98.214844 42.363281 C 98.214844 44.617188 100.042969 46.441406 102.296875 46.441406 C 104.546875 46.441406 106.375 44.617188 106.375 42.363281 C 106.375 40.113281 104.546875 38.285156 102.296875 38.285156 Z M 102.296875 38.285156 "/></clipPath><clipPath id="4c99c5e426"><path d="M 110.726562 38.285156 L 119.222656 38.285156 L 119.222656 46.78125 L 110.726562 46.78125 Z M 110.726562 38.285156 "/></clipPath><clipPath id="9cba35d6a0"><path d="M 114.976562 38.285156 C 112.628906 38.285156 110.726562 40.1875 110.726562 42.535156 C 110.726562 44.878906 112.628906 46.78125 114.976562 46.78125 C 117.320312 46.78125 119.222656 44.878906 119.222656 42.535156 C 119.222656 40.1875 117.320312 38.285156 114.976562 38.285156 Z M 114.976562 38.285156 "/></clipPath><clipPath id="510a8da319"><path d="M 110.726562 38.285156 L 118.882812 38.285156 L 118.882812 46.441406 L 110.726562 46.441406 Z M 110.726562 38.285156 "/></clipPath><clipPath id="51d6bc5ee4"><path d="M 114.804688 38.285156 C 112.554688 38.285156 110.726562 40.113281 110.726562 42.363281 C 110.726562 44.617188 112.554688 46.441406 114.804688 46.441406 C 117.058594 46.441406 118.882812 44.617188 118.882812 42.363281 C 118.882812 40.113281 117.058594 38.285156 114.804688 38.285156 Z M 114.804688 38.285156 "/></clipPath><clipPath id="6e02a4e5a1"><path d="M 123.238281 38.285156 L 131.734375 38.285156 L 131.734375 46.78125 L 123.238281 46.78125 Z M 123.238281 38.285156 "/></clipPath><clipPath id="2ccebd270c"><path d="M 127.484375 38.285156 C 125.140625 38.285156 123.238281 40.1875 123.238281 42.535156 C 123.238281 44.878906 125.140625 46.78125 127.484375 46.78125 C 129.832031 46.78125 131.734375 44.878906 131.734375 42.535156 C 131.734375 40.1875 129.832031 38.285156 127.484375 38.285156 Z M 127.484375 38.285156 "/></clipPath><clipPath id="c5ebde92d1"><path d="M 123.238281 38.285156 L 131.394531 38.285156 L 131.394531 46.441406 L 123.238281 46.441406 Z M 123.238281 38.285156 "/></clipPath><clipPath id="3c51f55914"><path d="M 127.316406 38.285156 C 125.0625 38.285156 123.238281 40.113281 123.238281 42.363281 C 123.238281 44.617188 125.0625 46.441406 127.316406 46.441406 C 129.570312 46.441406 131.394531 44.617188 131.394531 42.363281 C 131.394531 40.113281 129.570312 38.285156 127.316406 38.285156 Z M 127.316406 38.285156 "/></clipPath><clipPath id="539bdf7e82"><path d="M 135.75 38.285156 L 143.90625 38.285156 L 143.90625 46.441406 L 135.75 46.441406 Z M 135.75 38.285156 "/></clipPath><clipPath id="e4a9c7f896"><path d="M 139.828125 38.285156 C 137.574219 38.285156 135.75 40.113281 135.75 42.363281 C 135.75 44.617188 137.574219 46.441406 139.828125 46.441406 C 142.078125 46.441406 143.90625 44.617188 143.90625 42.363281 C 143.90625 40.113281 142.078125 38.285156 139.828125 38.285156 Z M 139.828125 38.285156 "/></clipPath><clipPath id="6535ff22cb"><path d="M 85.707031 15.210938 L 94.203125 15.210938 L 94.203125 23.707031 L 85.707031 23.707031 Z M 85.707031 15.210938 "/></clipPath><clipPath id="1e34845adf"><path d="M 89.953125 15.210938 C 87.609375 15.210938 85.707031 17.113281 85.707031 19.457031 C 85.707031 21.804688 87.609375 23.707031 89.953125 23.707031 C 92.300781 23.707031 94.203125 21.804688 94.203125 19.457031 C 94.203125 17.113281 92.300781 15.210938 89.953125 15.210938 Z M 89.953125 15.210938 "/></clipPath><clipPath id="2904a22bd4"><path d="M 85.707031 15.210938 L 93.863281 15.210938 L 93.863281 23.367188 L 85.707031 23.367188 Z M 85.707031 15.210938 "/></clipPath><clipPath id="78b7a11e1f"><path d="M 89.785156 15.210938 C 87.53125 15.210938 85.707031 17.035156 85.707031 19.289062 C 85.707031 21.542969 87.53125 23.367188 89.785156 23.367188 C 92.035156 23.367188 93.863281 21.542969 93.863281 19.289062 C 93.863281 17.035156 92.035156 15.210938 89.785156 15.210938 Z M 89.785156 15.210938 "/></clipPath><clipPath id="006e019f5b"><path d="M 98.214844 15.210938 L 106.710938 15.210938 L 106.710938 23.707031 L 98.214844 23.707031 Z M 98.214844 15.210938 "/></clipPath><clipPath id="d82a3d45cf"><path d="M 102.464844 15.210938 C 100.117188 15.210938 98.214844 17.113281 98.214844 19.457031 C 98.214844 21.804688 100.117188 23.707031 102.464844 23.707031 C 104.8125 23.707031 106.710938 21.804688 106.710938 19.457031 C 106.710938 17.113281 104.8125 15.210938 102.464844 15.210938 Z M 102.464844 15.210938 "/></clipPath><clipPath id="a944454fb2"><path d="M 98.214844 15.210938 L 106.375 15.210938 L 106.375 23.367188 L 98.214844 23.367188 Z M 98.214844 15.210938 "/></clipPath><clipPath id="a152508fe4"><path d="M 102.296875 15.210938 C 100.042969 15.210938 98.214844 17.035156 98.214844 19.289062 C 98.214844 21.542969 100.042969 23.367188 102.296875 23.367188 C 104.546875 23.367188 106.375 21.542969 106.375 19.289062 C 106.375 17.035156 104.546875 15.210938 102.296875 15.210938 Z M 102.296875 15.210938 "/></clipPath><clipPath id="61c4ad9aad"><path d="M 110.726562 15.210938 L 119.222656 15.210938 L 119.222656 23.707031 L 110.726562 23.707031 Z M 110.726562 15.210938 "/></clipPath><clipPath id="89239cf4b1"><path d="M 114.976562 15.210938 C 112.628906 15.210938 110.726562 17.113281 110.726562 19.457031 C 110.726562 21.804688 112.628906 23.707031 114.976562 23.707031 C 117.320312 23.707031 119.222656 21.804688 119.222656 19.457031 C 119.222656 17.113281 117.320312 15.210938 114.976562 15.210938 Z M 114.976562 15.210938 "/></clipPath><clipPath id="325ff6c286"><path d="M 110.726562 15.210938 L 118.882812 15.210938 L 118.882812 23.367188 L 110.726562 23.367188 Z M 110.726562 15.210938 "/></clipPath><clipPath id="170a30e469"><path d="M 114.804688 15.210938 C 112.554688 15.210938 110.726562 17.035156 110.726562 19.289062 C 110.726562 21.542969 112.554688 23.367188 114.804688 23.367188 C 117.058594 23.367188 118.882812 21.542969 118.882812 19.289062 C 118.882812 17.035156 117.058594 15.210938 114.804688 15.210938 Z M 114.804688 15.210938 "/></clipPath><clipPath id="e26a799a83"><path d="M 123.238281 15.210938 L 131.394531 15.210938 L 131.394531 23.367188 L 123.238281 23.367188 Z M 123.238281 15.210938 "/></clipPath><clipPath id="2991ec4cb8"><path d="M 127.316406 15.210938 C 125.0625 15.210938 123.238281 17.035156 123.238281 19.289062 C 123.238281 21.542969 125.0625 23.367188 127.316406 23.367188 C 129.570312 23.367188 131.394531 21.542969 131.394531 19.289062 C 131.394531 17.035156 129.570312 15.210938 127.316406 15.210938 Z M 127.316406 15.210938 "/></clipPath><clipPath id="9fceb37303"><path d="M 135.75 15.210938 L 143.90625 15.210938 L 143.90625 23.367188 L 135.75 23.367188 Z M 135.75 15.210938 "/></clipPath><clipPath id="b063efb8ca"><path d="M 139.828125 15.210938 C 137.574219 15.210938 135.75 17.035156 135.75 19.289062 C 135.75 21.542969 137.574219 23.367188 139.828125 23.367188 C 142.078125 23.367188 143.90625 21.542969 143.90625 19.289062 C 143.90625 17.035156 142.078125 15.210938 139.828125 15.210938 Z M 139.828125 15.210938 "/></clipPath><clipPath id="542e906e63"><path d="M 5.753906 15.210938 L 14.25 15.210938 L 14.25 23.707031 L 5.753906 23.707031 Z M 5.753906 15.210938 "/></clipPath><clipPath id="69538dd561"><path d="M 10.003906 15.210938 C 7.65625 15.210938 5.753906 17.113281 5.753906 19.457031 C 5.753906 21.804688 7.65625 23.707031 10.003906 23.707031 C 12.347656 23.707031 14.25 21.804688 14.25 19.457031 C 14.25 17.113281 12.347656 15.210938 10.003906 15.210938 Z M 10.003906 15.210938 "/></clipPath><clipPath id="d7398dcaa0"><path d="M 5.753906 15.210938 L 13.910156 15.210938 L 13.910156 23.367188 L 5.753906 23.367188 Z M 5.753906 15.210938 "/></clipPath><clipPath id="da920436cc"><path d="M 9.832031 15.210938 C 7.582031 15.210938 5.753906 17.035156 5.753906 19.289062 C 5.753906 21.542969 7.582031 23.367188 9.832031 23.367188 C 12.085938 23.367188 13.910156 21.542969 13.910156 19.289062 C 13.910156 17.035156 12.085938 15.210938 9.832031 15.210938 Z M 9.832031 15.210938 "/></clipPath><clipPath id="729456fd08"><path d="M 18.265625 15.210938 L 26.761719 15.210938 L 26.761719 23.707031 L 18.265625 23.707031 Z M 18.265625 15.210938 "/></clipPath><clipPath id="cf2187b304"><path d="M 22.515625 15.210938 C 20.167969 15.210938 18.265625 17.113281 18.265625 19.457031 C 18.265625 21.804688 20.167969 23.707031 22.515625 23.707031 C 24.859375 23.707031 26.761719 21.804688 26.761719 19.457031 C 26.761719 17.113281 24.859375 15.210938 22.515625 15.210938 Z M 22.515625 15.210938 "/></clipPath><clipPath id="8a4250f92f"><path d="M 18.265625 15.210938 L 26.421875 15.210938 L 26.421875 23.367188 L 18.265625 23.367188 Z M 18.265625 15.210938 "/></clipPath><clipPath id="5454664097"><path d="M 22.34375 15.210938 C 20.089844 15.210938 18.265625 17.035156 18.265625 19.289062 C 18.265625 21.542969 20.089844 23.367188 22.34375 23.367188 C 24.597656 23.367188 26.421875 21.542969 26.421875 19.289062 C 26.421875 17.035156 24.597656 15.210938 22.34375 15.210938 Z M 22.34375 15.210938 "/></clipPath><clipPath id="d00502ed99"><path d="M 30.777344 15.210938 L 39.273438 15.210938 L 39.273438 23.707031 L 30.777344 23.707031 Z M 30.777344 15.210938 "/></clipPath><clipPath id="62e4a1c826"><path d="M 35.023438 15.210938 C 32.679688 15.210938 30.777344 17.113281 30.777344 19.457031 C 30.777344 21.804688 32.679688 23.707031 35.023438 23.707031 C 37.371094 23.707031 39.273438 21.804688 39.273438 19.457031 C 39.273438 17.113281 37.371094 15.210938 35.023438 15.210938 Z M 35.023438 15.210938 "/></clipPath><clipPath id="73fd5735bd"><path d="M 30.777344 15.210938 L 38.933594 15.210938 L 38.933594 23.367188 L 30.777344 23.367188 Z M 30.777344 15.210938 "/></clipPath><clipPath id="64d772c030"><path d="M 34.855469 15.210938 C 32.601562 15.210938 30.777344 17.035156 30.777344 19.289062 C 30.777344 21.542969 32.601562 23.367188 34.855469 23.367188 C 37.109375 23.367188 38.933594 21.542969 38.933594 19.289062 C 38.933594 17.035156 37.109375 15.210938 34.855469 15.210938 Z M 34.855469 15.210938 "/></clipPath><clipPath id="c3991d3210"><path d="M 43.289062 15.210938 L 51.445312 15.210938 L 51.445312 23.367188 L 43.289062 23.367188 Z M 43.289062 15.210938 "/></clipPath><clipPath id="8e94f4903f"><path d="M 47.367188 15.210938 C 45.113281 15.210938 43.289062 17.035156 43.289062 19.289062 C 43.289062 21.542969 45.113281 23.367188 47.367188 23.367188 C 49.617188 23.367188 51.445312 21.542969 51.445312 19.289062 C 51.445312 17.035156 49.617188 15.210938 47.367188 15.210938 Z M 47.367188 15.210938 "/></clipPath><clipPath id="32cf98c364"><path d="M 55.796875 15.210938 L 63.953125 15.210938 L 63.953125 23.367188 L 55.796875 23.367188 Z M 55.796875 15.210938 "/></clipPath><clipPath id="59810372ab"><path d="M 59.875 15.210938 C 57.625 15.210938 55.796875 17.035156 55.796875 19.289062 C 55.796875 21.542969 57.625 23.367188 59.875 23.367188 C 62.128906 23.367188 63.953125 21.542969 63.953125 19.289062 C 63.953125 17.035156 62.128906 15.210938 59.875 15.210938 Z M 59.875 15.210938 "/></clipPath></defs><g id="b2aa3ce710"><g clip-rule="nonzero" clip-path="url(#2c29a0bf3e)"><g clip-rule="nonzero" clip-path="url(#681b86c4aa)"><path style=" stroke:none;fill-rule:nonzero;fill:#000000;fill-opacity:1;" d="M 5.753906 38.382812 L 13.75 38.382812 L 13.75 46.785156 L 5.753906 46.785156 Z M 5.753906 38.382812 "/></g></g><g clip-rule="nonzero" clip-path="url(#7670887461)"><g clip-rule="nonzero" clip-path="url(#4a5aade562)"><path style="fill:none;stroke-width:1.838915;stroke-linecap:butt;stroke-linejoin:miter;stroke:#000000;stroke-opacity:1;stroke-miterlimit:4;" d="M 4.892714 -0.00210128 C 2.189698 -0.00210128 -0.00127115 2.302109 -0.00127115 5.142984 C -0.00127115 7.978936 2.189698 10.283146 4.892714 10.283146 C 7.595731 10.283146 9.7867 7.978936 9.7867 5.142984 C 9.7867 2.302109 7.595731 -0.00210128 4.892714 -0.00210128 Z M 4.892714 -0.00210128 " transform="matrix(0.793385,0,0,0.793385,5.758821,38.38448)"/></g></g><g clip-rule="nonzero" clip-path="url(#66a3186e8b)"><g clip-rule="nonzero" clip-path="url(#981eaff4d8)"><path style=" stroke:none;fill-rule:nonzero;fill:#000000;fill-opacity:1;" d="M 17.527344 38.382812 L 25.519531 38.382812 L 25.519531 46.785156 L 17.527344 46.785156 Z M 17.527344 38.382812 "/></g></g><g clip-rule="nonzero" clip-path="url(#0449914ee8)"><g clip-rule="nonzero" clip-path="url(#8f23ec180e)"><path style="fill:none;stroke-width:1.838915;stroke-linecap:butt;stroke-linejoin:miter;stroke:#000000;stroke-opacity:1;stroke-miterlimit:4;" d="M 4.894874 -0.00210128 C 2.191858 -0.00210128 0.00088889 2.302109 0.00088889 5.142984 C 0.00088889 7.978936 2.191858 10.283146 4.894874 10.283146 C 7.597891 10.283146 9.78886 7.978936 9.78886 5.142984 C 9.78886 2.302109 7.597891 -0.00210128 4.894874 -0.00210128 Z M 4.894874 -0.00210128 " transform="matrix(0.793385,0,0,0.793385,17.530545,38.38448)"/></g></g><g clip-rule="nonzero" clip-path="url(#63fb13007b)"><g clip-rule="nonzero" clip-path="url(#41be2b841d)"><path style=" stroke:none;fill-rule:nonzero;fill:#000000;fill-opacity:1;" d="M 29.296875 38.382812 L 37.292969 38.382812 L 37.292969 46.785156 L 29.296875 46.785156 Z M 29.296875 38.382812 "/></g></g><g clip-rule="nonzero" clip-path="url(#24e9b297a0)"><g clip-rule="nonzero" clip-path="url(#55e03b3200)"><path style="fill:none;stroke-width:1.838915;stroke-linecap:butt;stroke-linejoin:miter;stroke:#000000;stroke-opacity:1;stroke-miterlimit:4;" d="M 4.892114 -0.00210128 C 2.189098 -0.00210128 -0.00187157 2.302109 -0.00187157 5.142984 C -0.00187157 7.978936 2.189098 10.283146 4.892114 10.283146 C 7.59513 10.283146 9.7861 7.978936 9.7861 5.142984 C 9.7861 2.302109 7.59513 -0.00210128 4.892114 -0.00210128 Z M 4.892114 -0.00210128 " transform="matrix(0.793385,0,0,0.793385,29.302266,38.38448)"/></g></g><g clip-rule="nonzero" clip-path="url(#0778a5d9bc)"><g clip-rule="nonzero" clip-path="url(#328d00047a)"><path style=" stroke:none;fill-rule:nonzero;fill:#000000;fill-opacity:1;" d="M 41.070312 38.382812 L 49.0625 38.382812 L 49.0625 46.785156 L 41.070312 46.785156 Z M 41.070312 38.382812 "/></g></g><g clip-rule="nonzero" clip-path="url(#e4065ee2ba)"><g clip-rule="nonzero" clip-path="url(#2333252e3f)"><path style="fill:none;stroke-width:1.838915;stroke-linecap:butt;stroke-linejoin:miter;stroke:#000000;stroke-opacity:1;stroke-miterlimit:4;" d="M 4.894273 -0.00210128 C 2.191257 -0.00210128 0.000287256 2.302109 0.000287256 5.142984 C 0.000287256 7.978936 2.191257 10.283146 4.894273 10.283146 C 7.597289 10.283146 9.788258 7.978936 9.788258 5.142984 C 9.788258 2.302109 7.597289 -0.00210128 4.894273 -0.00210128 Z M 4.894273 -0.00210128 " transform="matrix(0.793385,0,0,0.793385,41.073991,38.38448)"/></g></g><g clip-rule="nonzero" clip-path="url(#1d5ab2fc23)"><g clip-rule="nonzero" clip-path="url(#ce47453dfa)"><path style="fill:none;stroke-width:1.838915;stroke-linecap:butt;stroke-linejoin:miter;stroke:#000000;stroke-opacity:1;stroke-miterlimit:4;" d="M 4.891501 -0.00210128 C 2.188485 -0.00210128 0.00243913 2.302109 0.00243913 5.142984 C 0.00243913 7.978936 2.188485 10.283146 4.891501 10.283146 C 7.594517 10.283146 9.785487 7.978936 9.785487 5.142984 C 9.785487 2.302109 7.594517 -0.00210128 4.891501 -0.00210128 Z M 4.891501 -0.00210128 " transform="matrix(0.793385,0,0,0.793385,52.845721,38.38448)"/></g></g><g clip-rule="nonzero" clip-path="url(#b4b3a6a16c)"><g clip-rule="nonzero" clip-path="url(#d1242335e0)"><path style=" stroke:none;fill-rule:nonzero;fill:#000000;fill-opacity:1;" d="M 5.753906 61.191406 L 13.75 61.191406 L 13.75 69.6875 L 5.753906 69.6875 Z M 5.753906 61.191406 "/></g></g><g clip-rule="nonzero" clip-path="url(#9e3e937085)"><g clip-rule="nonzero" clip-path="url(#cbe0448d40)"><path style="fill:none;stroke-width:1.838915;stroke-linecap:butt;stroke-linejoin:miter;stroke:#000000;stroke-opacity:1;stroke-miterlimit:4;" d="M 4.894695 -0.00106927 C 2.193699 -0.00106927 0.00100852 2.331156 0.00100852 5.201587 C 0.00100852 8.077001 2.193699 10.404243 4.894695 10.404243 C 7.600674 10.404243 9.793364 8.077001 9.793364 5.201587 C 9.793364 2.331156 7.600674 -0.00106927 4.894695 -0.00106927 Z M 4.894695 -0.00106927 " transform="matrix(0.783854,0,0,0.783854,5.757022,61.192244)"/></g></g><g clip-rule="nonzero" clip-path="url(#08cd27f1b8)"><g clip-rule="nonzero" clip-path="url(#1a5d51ccc7)"><path style=" stroke:none;fill-rule:nonzero;fill:#000000;fill-opacity:1;" d="M 17.527344 61.191406 L 25.519531 61.191406 L 25.519531 69.6875 L 17.527344 69.6875 Z M 17.527344 61.191406 "/></g></g><g clip-rule="nonzero" clip-path="url(#6a29b11ea4)"><g clip-rule="nonzero" clip-path="url(#8588be415e)"><path style="fill:none;stroke-width:1.838915;stroke-linecap:butt;stroke-linejoin:miter;stroke:#000000;stroke-opacity:1;stroke-miterlimit:4;" d="M 4.89688 -0.00106927 C 2.1909 -0.00106927 -0.00178979 2.331156 -0.00178979 5.201587 C -0.00178979 8.077001 2.1909 10.404243 4.89688 10.404243 C 7.597875 10.404243 9.790566 8.077001 9.790566 5.201587 C 9.790566 2.331156 7.597875 -0.00106927 4.89688 -0.00106927 Z M 4.89688 -0.00106927 " transform="matrix(0.783854,0,0,0.783854,17.528747,61.192244)"/></g></g><g clip-rule="nonzero" clip-path="url(#beaf6cfb73)"><g clip-rule="nonzero" clip-path="url(#38a79fbcce)"><path style=" stroke:none;fill-rule:nonzero;fill:#000000;fill-opacity:1;" d="M 29.296875 61.191406 L 37.292969 61.191406 L 37.292969 69.6875 L 29.296875 69.6875 Z M 29.296875 61.191406 "/></g></g><g clip-rule="nonzero" clip-path="url(#da145278e5)"><g clip-rule="nonzero" clip-path="url(#a429703237)"><path style="fill:none;stroke-width:1.838915;stroke-linecap:butt;stroke-linejoin:miter;stroke:#000000;stroke-opacity:1;stroke-miterlimit:4;" d="M 4.894086 -0.00106927 C 2.19309 -0.00106927 0.000399568 2.331156 0.000399568 5.201587 C 0.000399568 8.077001 2.19309 10.404243 4.894086 10.404243 C 7.600065 10.404243 9.792755 8.077001 9.792755 5.201587 C 9.792755 2.331156 7.600065 -0.00106927 4.894086 -0.00106927 Z M 4.894086 -0.00106927 " transform="matrix(0.783854,0,0,0.783854,29.300468,61.192244)"/></g></g><g clip-rule="nonzero" clip-path="url(#ddf96a3720)"><g clip-rule="nonzero" clip-path="url(#3fd7881f14)"><path style=" stroke:none;fill-rule:nonzero;fill:#000000;fill-opacity:1;" d="M 41.070312 61.191406 L 49.0625 61.191406 L 49.0625 69.6875 L 41.070312 69.6875 Z M 41.070312 61.191406 "/></g></g><g clip-rule="nonzero" clip-path="url(#addc2e650d)"><g clip-rule="nonzero" clip-path="url(#85cdd109a2)"><path style="fill:none;stroke-width:1.838915;stroke-linecap:butt;stroke-linejoin:miter;stroke:#000000;stroke-opacity:1;stroke-miterlimit:4;" d="M 4.89627 -0.00106927 C 2.190291 -0.00106927 -0.00239936 2.331156 -0.00239936 5.201587 C -0.00239936 8.077001 2.190291 10.404243 4.89627 10.404243 C 7.597266 10.404243 9.789956 8.077001 9.789956 5.201587 C 9.789956 2.331156 7.597266 -0.00106927 4.89627 -0.00106927 Z M 4.89627 -0.00106927 " transform="matrix(0.783854,0,0,0.783854,41.072193,61.192244)"/></g></g><g clip-rule="nonzero" clip-path="url(#fe3ae89485)"><g clip-rule="nonzero" clip-path="url(#5ae9750a32)"><path style="fill:none;stroke-width:1.838915;stroke-linecap:butt;stroke-linejoin:miter;stroke:#000000;stroke-opacity:1;stroke-miterlimit:4;" d="M 4.893471 -0.00106927 C 2.192475 -0.00106927 -0.000215199 2.331156 -0.000215199 5.201587 C -0.000215199 8.077001 2.192475 10.404243 4.893471 10.404243 C 7.59945 10.404243 9.79214 8.077001 9.79214 5.201587 C 9.79214 2.331156 7.59945 -0.00106927 4.893471 -0.00106927 Z M 4.893471 -0.00106927 " transform="matrix(0.783854,0,0,0.783854,52.843919,61.192244)"/></g></g><g style="fill:#000000;fill-opacity:1;"><g transform="translate(5.754917, 12.304807)"><path style="stroke:none" d="M 3.046875 -2.53125 C 3.046875 -2.34375 3 -2.160156 2.90625 -1.984375 C 2.8125 -1.816406 2.664062 -1.675781 2.46875 -1.5625 C 2.269531 -1.457031 2.019531 -1.40625 1.71875 -1.40625 L 1.09375 -1.40625 L 1.09375 0 L 0.359375 0 L 0.359375 -3.671875 L 1.71875 -3.671875 C 2 -3.671875 2.238281 -3.617188 2.4375 -3.515625 C 2.644531 -3.421875 2.796875 -3.285156 2.890625 -3.109375 C 2.992188 -2.941406 3.046875 -2.75 3.046875 -2.53125 Z M 1.6875 -2 C 1.882812 -2 2.03125 -2.046875 2.125 -2.140625 C 2.226562 -2.234375 2.28125 -2.363281 2.28125 -2.53125 C 2.28125 -2.894531 2.082031 -3.078125 1.6875 -3.078125 L 1.09375 -3.078125 L 1.09375 -2 Z M 1.6875 -2 "/></g></g><g style="fill:#000000;fill-opacity:1;"><g transform="translate(8.955105, 12.304807)"><path style="stroke:none" d="M 3.40625 -3.671875 L 3.40625 0 L 2.671875 0 L 2.671875 -1.5625 L 1.09375 -1.5625 L 1.09375 0 L 0.359375 0 L 0.359375 -3.671875 L 1.09375 -3.671875 L 1.09375 -2.171875 L 2.671875 -2.171875 L 2.671875 -3.671875 Z M 3.40625 -3.671875 "/></g></g><g style="fill:#000000;fill-opacity:1;"><g transform="translate(12.729011, 12.304807)"><path style="stroke:none" d="M 2.0625 0.03125 C 1.71875 0.03125 1.398438 -0.046875 1.109375 -0.203125 C 0.828125 -0.367188 0.601562 -0.59375 0.4375 -0.875 C 0.269531 -1.164062 0.1875 -1.488281 0.1875 -1.84375 C 0.1875 -2.207031 0.269531 -2.53125 0.4375 -2.8125 C 0.601562 -3.101562 0.828125 -3.328125 1.109375 -3.484375 C 1.398438 -3.648438 1.71875 -3.734375 2.0625 -3.734375 C 2.414062 -3.734375 2.734375 -3.648438 3.015625 -3.484375 C 3.304688 -3.328125 3.535156 -3.101562 3.703125 -2.8125 C 3.867188 -2.53125 3.953125 -2.207031 3.953125 -1.84375 C 3.953125 -1.488281 3.867188 -1.164062 3.703125 -0.875 C 3.535156 -0.59375 3.304688 -0.367188 3.015625 -0.203125 C 2.722656 -0.046875 2.40625 0.03125 2.0625 0.03125 Z M 2.0625 -0.625 C 2.289062 -0.625 2.488281 -0.671875 2.65625 -0.765625 C 2.820312 -0.867188 2.953125 -1.015625 3.046875 -1.203125 C 3.140625 -1.390625 3.1875 -1.601562 3.1875 -1.84375 C 3.1875 -2.09375 3.140625 -2.304688 3.046875 -2.484375 C 2.953125 -2.671875 2.820312 -2.8125 2.65625 -2.90625 C 2.488281 -3.007812 2.289062 -3.0625 2.0625 -3.0625 C 1.84375 -3.0625 1.648438 -3.007812 1.484375 -2.90625 C 1.316406 -2.8125 1.179688 -2.671875 1.078125 -2.484375 C 0.984375 -2.304688 0.9375 -2.09375 0.9375 -1.84375 C 0.9375 -1.601562 0.984375 -1.390625 1.078125 -1.203125 C 1.179688 -1.015625 1.316406 -0.867188 1.484375 -0.765625 C 1.648438 -0.671875 1.84375 -0.625 2.0625 -0.625 Z M 2.0625 -0.625 "/></g></g><g style="fill:#000000;fill-opacity:1;"><g transform="translate(16.860833, 12.304807)"><path style="stroke:none" d="M 1.625 0.03125 C 1.375 0.03125 1.144531 -0.0078125 0.9375 -0.09375 C 0.726562 -0.175781 0.566406 -0.300781 0.453125 -0.46875 C 0.335938 -0.632812 0.273438 -0.832031 0.265625 -1.0625 L 1.0625 -1.0625 C 1.070312 -0.90625 1.125 -0.78125 1.21875 -0.6875 C 1.3125 -0.601562 1.441406 -0.5625 1.609375 -0.5625 C 1.785156 -0.5625 1.921875 -0.601562 2.015625 -0.6875 C 2.117188 -0.769531 2.171875 -0.878906 2.171875 -1.015625 C 2.171875 -1.117188 2.132812 -1.207031 2.0625 -1.28125 C 2 -1.351562 1.914062 -1.410156 1.8125 -1.453125 C 1.71875 -1.492188 1.582031 -1.535156 1.40625 -1.578125 C 1.164062 -1.648438 0.96875 -1.71875 0.8125 -1.78125 C 0.664062 -1.851562 0.539062 -1.957031 0.4375 -2.09375 C 0.332031 -2.238281 0.28125 -2.425781 0.28125 -2.65625 C 0.28125 -2.875 0.332031 -3.0625 0.4375 -3.21875 C 0.550781 -3.382812 0.707031 -3.507812 0.90625 -3.59375 C 1.101562 -3.6875 1.328125 -3.734375 1.578125 -3.734375 C 1.953125 -3.734375 2.257812 -3.640625 2.5 -3.453125 C 2.738281 -3.265625 2.867188 -3.007812 2.890625 -2.6875 L 2.078125 -2.6875 C 2.066406 -2.8125 2.007812 -2.914062 1.90625 -3 C 1.8125 -3.082031 1.679688 -3.125 1.515625 -3.125 C 1.378906 -3.125 1.265625 -3.082031 1.171875 -3 C 1.085938 -2.925781 1.046875 -2.820312 1.046875 -2.6875 C 1.046875 -2.582031 1.078125 -2.5 1.140625 -2.4375 C 1.210938 -2.375 1.296875 -2.320312 1.390625 -2.28125 C 1.484375 -2.238281 1.617188 -2.191406 1.796875 -2.140625 C 2.035156 -2.066406 2.226562 -1.992188 2.375 -1.921875 C 2.53125 -1.859375 2.660156 -1.753906 2.765625 -1.609375 C 2.878906 -1.472656 2.9375 -1.289062 2.9375 -1.0625 C 2.9375 -0.863281 2.882812 -0.679688 2.78125 -0.515625 C 2.675781 -0.347656 2.523438 -0.210938 2.328125 -0.109375 C 2.128906 -0.015625 1.894531 0.03125 1.625 0.03125 Z M 1.625 0.03125 "/></g></g><g style="fill:#000000;fill-opacity:1;"><g transform="translate(20.066285, 12.304807)"><path style="stroke:none" d="M 3.40625 -3.671875 L 3.40625 0 L 2.671875 0 L 2.671875 -1.5625 L 1.09375 -1.5625 L 1.09375 0 L 0.359375 0 L 0.359375 -3.671875 L 1.09375 -3.671875 L 1.09375 -2.171875 L 2.671875 -2.171875 L 2.671875 -3.671875 Z M 3.40625 -3.671875 "/></g></g><g style="fill:#000000;fill-opacity:1;"><g transform="translate(23.840191, 12.304807)"><path style="stroke:none" d="M 2.0625 0.03125 C 1.71875 0.03125 1.398438 -0.046875 1.109375 -0.203125 C 0.828125 -0.367188 0.601562 -0.59375 0.4375 -0.875 C 0.269531 -1.164062 0.1875 -1.488281 0.1875 -1.84375 C 0.1875 -2.207031 0.269531 -2.53125 0.4375 -2.8125 C 0.601562 -3.101562 0.828125 -3.328125 1.109375 -3.484375 C 1.398438 -3.648438 1.71875 -3.734375 2.0625 -3.734375 C 2.414062 -3.734375 2.734375 -3.648438 3.015625 -3.484375 C 3.304688 -3.328125 3.535156 -3.101562 3.703125 -2.8125 C 3.867188 -2.53125 3.953125 -2.207031 3.953125 -1.84375 C 3.953125 -1.488281 3.867188 -1.164062 3.703125 -0.875 C 3.535156 -0.59375 3.304688 -0.367188 3.015625 -0.203125 C 2.722656 -0.046875 2.40625 0.03125 2.0625 0.03125 Z M 2.0625 -0.625 C 2.289062 -0.625 2.488281 -0.671875 2.65625 -0.765625 C 2.820312 -0.867188 2.953125 -1.015625 3.046875 -1.203125 C 3.140625 -1.390625 3.1875 -1.601562 3.1875 -1.84375 C 3.1875 -2.09375 3.140625 -2.304688 3.046875 -2.484375 C 2.953125 -2.671875 2.820312 -2.8125 2.65625 -2.90625 C 2.488281 -3.007812 2.289062 -3.0625 2.0625 -3.0625 C 1.84375 -3.0625 1.648438 -3.007812 1.484375 -2.90625 C 1.316406 -2.8125 1.179688 -2.671875 1.078125 -2.484375 C 0.984375 -2.304688 0.9375 -2.09375 0.9375 -1.84375 C 0.9375 -1.601562 0.984375 -1.390625 1.078125 -1.203125 C 1.179688 -1.015625 1.316406 -0.867188 1.484375 -0.765625 C 1.648438 -0.671875 1.84375 -0.625 2.0625 -0.625 Z M 2.0625 -0.625 "/></g></g><g style="fill:#000000;fill-opacity:1;"><g transform="translate(27.972013, 12.304807)"><path style="stroke:none" d="M 3.046875 -2.53125 C 3.046875 -2.34375 3 -2.160156 2.90625 -1.984375 C 2.8125 -1.816406 2.664062 -1.675781 2.46875 -1.5625 C 2.269531 -1.457031 2.019531 -1.40625 1.71875 -1.40625 L 1.09375 -1.40625 L 1.09375 0 L 0.359375 0 L 0.359375 -3.671875 L 1.71875 -3.671875 C 2 -3.671875 2.238281 -3.617188 2.4375 -3.515625 C 2.644531 -3.421875 2.796875 -3.285156 2.890625 -3.109375 C 2.992188 -2.941406 3.046875 -2.75 3.046875 -2.53125 Z M 1.6875 -2 C 1.882812 -2 2.03125 -2.046875 2.125 -2.140625 C 2.226562 -2.234375 2.28125 -2.363281 2.28125 -2.53125 C 2.28125 -2.894531 2.082031 -3.078125 1.6875 -3.078125 L 1.09375 -3.078125 L 1.09375 -2 Z M 1.6875 -2 "/></g></g><g style="fill:#000000;fill-opacity:1;"><g transform="translate(5.754917, 33.485245)"><path style="stroke:none" d="M 3.40625 -3.671875 L 3.40625 0 L 2.671875 0 L 2.671875 -1.5625 L 1.09375 -1.5625 L 1.09375 0 L 0.359375 0 L 0.359375 -3.671875 L 1.09375 -3.671875 L 1.09375 -2.171875 L 2.671875 -2.171875 L 2.671875 -3.671875 Z M 3.40625 -3.671875 "/></g></g><g style="fill:#000000;fill-opacity:1;"><g transform="translate(9.528823, 33.485245)"><path style="stroke:none" d="M 2.859375 -3.671875 L 2.859375 -3.078125 L 1.890625 -3.078125 L 1.890625 0 L 1.140625 0 L 1.140625 -3.078125 L 0.171875 -3.078125 L 0.171875 -3.671875 Z M 2.859375 -3.671875 "/></g></g><g style="fill:#000000;fill-opacity:1;"><g transform="translate(12.565844, 33.485245)"><path style="stroke:none" d="M 4.375 -3.671875 L 4.375 0 L 3.640625 0 L 3.640625 -2.390625 L 2.65625 0 L 2.09375 0 L 1.09375 -2.390625 L 1.09375 0 L 0.359375 0 L 0.359375 -3.671875 L 1.203125 -3.671875 L 2.375 -0.9375 L 3.53125 -3.671875 Z M 4.375 -3.671875 "/></g></g><g style="fill:#000000;fill-opacity:1;"><g transform="translate(17.297702, 33.485245)"><path style="stroke:none" d="M 1.09375 -0.578125 L 2.3125 -0.578125 L 2.3125 0 L 0.359375 0 L 0.359375 -3.671875 L 1.09375 -3.671875 Z M 1.09375 -0.578125 "/></g></g><g style="fill:#000000;fill-opacity:1;"><g transform="translate(85.705726, 12.304807)"><path style="stroke:none" d="M 1.09375 -3.671875 L 1.09375 0 L 0.359375 0 L 0.359375 -3.671875 Z M 1.09375 -3.671875 "/></g></g><g style="fill:#000000;fill-opacity:1;"><g transform="translate(87.168972, 12.304807)"><path style="stroke:none" d="M 1.09375 -0.578125 L 2.3125 -0.578125 L 2.3125 0 L 0.359375 0 L 0.359375 -3.671875 L 1.09375 -3.671875 Z M 1.09375 -0.578125 "/></g></g><g style="fill:#000000;fill-opacity:1;"><g transform="translate(89.584902, 12.304807)"><path style="stroke:none" d="M 1.09375 -0.578125 L 2.3125 -0.578125 L 2.3125 0 L 0.359375 0 L 0.359375 -3.671875 L 1.09375 -3.671875 Z M 1.09375 -0.578125 "/></g></g><g style="fill:#000000;fill-opacity:1;"><g transform="translate(92.000833, 12.304807)"><path style="stroke:none" d="M 1.09375 -3.671875 L 1.09375 -1.40625 C 1.09375 -1.15625 1.15625 -0.960938 1.28125 -0.828125 C 1.414062 -0.691406 1.597656 -0.625 1.828125 -0.625 C 2.066406 -0.625 2.25 -0.691406 2.375 -0.828125 C 2.507812 -0.960938 2.578125 -1.15625 2.578125 -1.40625 L 2.578125 -3.671875 L 3.328125 -3.671875 L 3.328125 -1.40625 C 3.328125 -1.09375 3.257812 -0.828125 3.125 -0.609375 C 2.988281 -0.398438 2.804688 -0.238281 2.578125 -0.125 C 2.347656 -0.0195312 2.097656 0.03125 1.828125 0.03125 C 1.546875 0.03125 1.296875 -0.0195312 1.078125 -0.125 C 0.859375 -0.238281 0.679688 -0.398438 0.546875 -0.609375 C 0.421875 -0.828125 0.359375 -1.09375 0.359375 -1.40625 L 0.359375 -3.671875 Z M 1.09375 -3.671875 "/></g></g><g style="fill:#000000;fill-opacity:1;"><g transform="translate(95.669468, 12.304807)"><path style="stroke:none" d="M 1.625 0.03125 C 1.375 0.03125 1.144531 -0.0078125 0.9375 -0.09375 C 0.726562 -0.175781 0.566406 -0.300781 0.453125 -0.46875 C 0.335938 -0.632812 0.273438 -0.832031 0.265625 -1.0625 L 1.0625 -1.0625 C 1.070312 -0.90625 1.125 -0.78125 1.21875 -0.6875 C 1.3125 -0.601562 1.441406 -0.5625 1.609375 -0.5625 C 1.785156 -0.5625 1.921875 -0.601562 2.015625 -0.6875 C 2.117188 -0.769531 2.171875 -0.878906 2.171875 -1.015625 C 2.171875 -1.117188 2.132812 -1.207031 2.0625 -1.28125 C 2 -1.351562 1.914062 -1.410156 1.8125 -1.453125 C 1.71875 -1.492188 1.582031 -1.535156 1.40625 -1.578125 C 1.164062 -1.648438 0.96875 -1.71875 0.8125 -1.78125 C 0.664062 -1.851562 0.539062 -1.957031 0.4375 -2.09375 C 0.332031 -2.238281 0.28125 -2.425781 0.28125 -2.65625 C 0.28125 -2.875 0.332031 -3.0625 0.4375 -3.21875 C 0.550781 -3.382812 0.707031 -3.507812 0.90625 -3.59375 C 1.101562 -3.6875 1.328125 -3.734375 1.578125 -3.734375 C 1.953125 -3.734375 2.257812 -3.640625 2.5 -3.453125 C 2.738281 -3.265625 2.867188 -3.007812 2.890625 -2.6875 L 2.078125 -2.6875 C 2.066406 -2.8125 2.007812 -2.914062 1.90625 -3 C 1.8125 -3.082031 1.679688 -3.125 1.515625 -3.125 C 1.378906 -3.125 1.265625 -3.082031 1.171875 -3 C 1.085938 -2.925781 1.046875 -2.820312 1.046875 -2.6875 C 1.046875 -2.582031 1.078125 -2.5 1.140625 -2.4375 C 1.210938 -2.375 1.296875 -2.320312 1.390625 -2.28125 C 1.484375 -2.238281 1.617188 -2.191406 1.796875 -2.140625 C 2.035156 -2.066406 2.226562 -1.992188 2.375 -1.921875 C 2.53125 -1.859375 2.660156 -1.753906 2.765625 -1.609375 C 2.878906 -1.472656 2.9375 -1.289062 2.9375 -1.0625 C 2.9375 -0.863281 2.882812 -0.679688 2.78125 -0.515625 C 2.675781 -0.347656 2.523438 -0.210938 2.328125 -0.109375 C 2.128906 -0.015625 1.894531 0.03125 1.625 0.03125 Z M 1.625 0.03125 "/></g></g><g style="fill:#000000;fill-opacity:1;"><g transform="translate(98.87492, 12.304807)"><path style="stroke:none" d="M 2.859375 -3.671875 L 2.859375 -3.078125 L 1.890625 -3.078125 L 1.890625 0 L 1.140625 0 L 1.140625 -3.078125 L 0.171875 -3.078125 L 0.171875 -3.671875 Z M 2.859375 -3.671875 "/></g></g><g style="fill:#000000;fill-opacity:1;"><g transform="translate(101.911942, 12.304807)"><path style="stroke:none" d="M 2.265625 0 L 1.453125 -1.4375 L 1.09375 -1.4375 L 1.09375 0 L 0.359375 0 L 0.359375 -3.671875 L 1.75 -3.671875 C 2.03125 -3.671875 2.269531 -3.617188 2.46875 -3.515625 C 2.664062 -3.421875 2.8125 -3.285156 2.90625 -3.109375 C 3.007812 -2.941406 3.0625 -2.753906 3.0625 -2.546875 C 3.0625 -2.304688 2.992188 -2.085938 2.859375 -1.890625 C 2.722656 -1.691406 2.515625 -1.554688 2.234375 -1.484375 L 3.109375 0 Z M 1.09375 -1.984375 L 1.71875 -1.984375 C 1.914062 -1.984375 2.0625 -2.03125 2.15625 -2.125 C 2.257812 -2.226562 2.3125 -2.363281 2.3125 -2.53125 C 2.3125 -2.695312 2.257812 -2.828125 2.15625 -2.921875 C 2.0625 -3.015625 1.914062 -3.0625 1.71875 -3.0625 L 1.09375 -3.0625 Z M 1.09375 -1.984375 "/></g></g><g style="fill:#000000;fill-opacity:1;"><g transform="translate(105.285825, 12.304807)"><path style="stroke:none" d="M 2.609375 -0.703125 L 1.15625 -0.703125 L 0.90625 0 L 0.140625 0 L 1.453125 -3.6875 L 2.3125 -3.6875 L 3.640625 0 L 2.859375 0 Z M 2.421875 -1.296875 L 1.890625 -2.828125 L 1.359375 -1.296875 Z M 2.421875 -1.296875 "/></g></g><g style="fill:#000000;fill-opacity:1;"><g transform="translate(109.054467, 12.304807)"><path style="stroke:none" d="M 2.859375 -3.671875 L 2.859375 -3.078125 L 1.890625 -3.078125 L 1.890625 0 L 1.140625 0 L 1.140625 -3.078125 L 0.171875 -3.078125 L 0.171875 -3.671875 Z M 2.859375 -3.671875 "/></g></g><g style="fill:#000000;fill-opacity:1;"><g transform="translate(112.091488, 12.304807)"><path style="stroke:none" d="M 1.09375 -3.078125 L 1.09375 -2.15625 L 2.34375 -2.15625 L 2.34375 -1.578125 L 1.09375 -1.578125 L 1.09375 -0.59375 L 2.5 -0.59375 L 2.5 0 L 0.359375 0 L 0.359375 -3.6875 L 2.5 -3.6875 L 2.5 -3.078125 Z M 1.09375 -3.078125 "/></g></g><g style="fill:#000000;fill-opacity:1;"><g transform="translate(5.754917, 56.481435)"><path style="stroke:none" d="M 2.640625 -3.671875 L 2.640625 -3.078125 L 1.09375 -3.078125 L 1.09375 -2.140625 L 2.28125 -2.140625 L 2.28125 -1.546875 L 1.09375 -1.546875 L 1.09375 0 L 0.359375 0 L 0.359375 -3.671875 Z M 2.640625 -3.671875 "/></g></g><g style="fill:#000000;fill-opacity:1;"><g transform="translate(8.544555, 56.481435)"><path style="stroke:none" d="M 1.09375 -3.671875 L 1.09375 0 L 0.359375 0 L 0.359375 -3.671875 Z M 1.09375 -3.671875 "/></g></g><g style="fill:#000000;fill-opacity:1;"><g transform="translate(10.007801, 56.481435)"><path style="stroke:none" d="M 2.921875 -2.5625 C 2.835938 -2.71875 2.722656 -2.835938 2.578125 -2.921875 C 2.429688 -3.003906 2.257812 -3.046875 2.0625 -3.046875 C 1.84375 -3.046875 1.648438 -2.992188 1.484375 -2.890625 C 1.316406 -2.796875 1.179688 -2.65625 1.078125 -2.46875 C 0.984375 -2.289062 0.9375 -2.082031 0.9375 -1.84375 C 0.9375 -1.59375 0.984375 -1.375 1.078125 -1.1875 C 1.179688 -1.007812 1.316406 -0.867188 1.484375 -0.765625 C 1.660156 -0.671875 1.863281 -0.625 2.09375 -0.625 C 2.375 -0.625 2.601562 -0.695312 2.78125 -0.84375 C 2.957031 -1 3.078125 -1.210938 3.140625 -1.484375 L 1.875 -1.484375 L 1.875 -2.046875 L 3.859375 -2.046875 L 3.859375 -1.40625 C 3.804688 -1.144531 3.695312 -0.90625 3.53125 -0.6875 C 3.375 -0.46875 3.164062 -0.289062 2.90625 -0.15625 C 2.65625 -0.03125 2.375 0.03125 2.0625 0.03125 C 1.707031 0.03125 1.382812 -0.046875 1.09375 -0.203125 C 0.8125 -0.367188 0.585938 -0.59375 0.421875 -0.875 C 0.265625 -1.15625 0.1875 -1.476562 0.1875 -1.84375 C 0.1875 -2.207031 0.265625 -2.53125 0.421875 -2.8125 C 0.585938 -3.101562 0.8125 -3.328125 1.09375 -3.484375 C 1.382812 -3.640625 1.707031 -3.71875 2.0625 -3.71875 C 2.476562 -3.71875 2.835938 -3.617188 3.140625 -3.421875 C 3.441406 -3.222656 3.648438 -2.9375 3.765625 -2.5625 Z M 2.921875 -2.5625 "/></g></g><g style="fill:#000000;fill-opacity:1;"><g transform="translate(14.050144, 56.481435)"><path style="stroke:none" d="M 1.09375 -3.671875 L 1.09375 0 L 0.359375 0 L 0.359375 -3.671875 Z M 1.09375 -3.671875 "/></g></g><g style="fill:#000000;fill-opacity:1;"><g transform="translate(15.513389, 56.481435)"><path style="stroke:none" d="M 4.375 -3.671875 L 4.375 0 L 3.640625 0 L 3.640625 -2.390625 L 2.65625 0 L 2.09375 0 L 1.09375 -2.390625 L 1.09375 0 L 0.359375 0 L 0.359375 -3.671875 L 1.203125 -3.671875 L 2.375 -0.9375 L 3.53125 -3.671875 Z M 4.375 -3.671875 "/></g></g><g style="fill:#000000;fill-opacity:1;"><g transform="translate(20.245247, 56.481435)"><path style="stroke:none" d="M 2.609375 -0.703125 L 1.15625 -0.703125 L 0.90625 0 L 0.140625 0 L 1.453125 -3.6875 L 2.3125 -3.6875 L 3.640625 0 L 2.859375 0 Z M 2.421875 -1.296875 L 1.890625 -2.828125 L 1.359375 -1.296875 Z M 2.421875 -1.296875 "/></g></g><g style="fill:#000000;fill-opacity:1;"><g transform="translate(85.705726, 33.485245)"><path style="stroke:none" d="M 0.1875 -1.84375 C 0.1875 -2.207031 0.265625 -2.53125 0.421875 -2.8125 C 0.585938 -3.101562 0.8125 -3.328125 1.09375 -3.484375 C 1.375 -3.640625 1.691406 -3.71875 2.046875 -3.71875 C 2.460938 -3.71875 2.820312 -3.613281 3.125 -3.40625 C 3.4375 -3.195312 3.65625 -2.90625 3.78125 -2.53125 L 2.921875 -2.53125 C 2.835938 -2.707031 2.71875 -2.835938 2.5625 -2.921875 C 2.414062 -3.015625 2.242188 -3.0625 2.046875 -3.0625 C 1.828125 -3.0625 1.632812 -3.007812 1.46875 -2.90625 C 1.300781 -2.8125 1.171875 -2.671875 1.078125 -2.484375 C 0.984375 -2.304688 0.9375 -2.09375 0.9375 -1.84375 C 0.9375 -1.601562 0.984375 -1.390625 1.078125 -1.203125 C 1.171875 -1.015625 1.300781 -0.867188 1.46875 -0.765625 C 1.632812 -0.671875 1.828125 -0.625 2.046875 -0.625 C 2.242188 -0.625 2.414062 -0.664062 2.5625 -0.75 C 2.71875 -0.84375 2.835938 -0.976562 2.921875 -1.15625 L 3.78125 -1.15625 C 3.65625 -0.78125 3.4375 -0.488281 3.125 -0.28125 C 2.820312 -0.0703125 2.460938 0.03125 2.046875 0.03125 C 1.691406 0.03125 1.375 -0.046875 1.09375 -0.203125 C 0.8125 -0.367188 0.585938 -0.59375 0.421875 -0.875 C 0.265625 -1.15625 0.1875 -1.476562 0.1875 -1.84375 Z M 0.1875 -1.84375 "/></g></g><g style="fill:#000000;fill-opacity:1;"><g transform="translate(89.74807, 33.485245)"><path style="stroke:none" d="M 1.625 0.03125 C 1.375 0.03125 1.144531 -0.0078125 0.9375 -0.09375 C 0.726562 -0.175781 0.566406 -0.300781 0.453125 -0.46875 C 0.335938 -0.632812 0.273438 -0.832031 0.265625 -1.0625 L 1.0625 -1.0625 C 1.070312 -0.90625 1.125 -0.78125 1.21875 -0.6875 C 1.3125 -0.601562 1.441406 -0.5625 1.609375 -0.5625 C 1.785156 -0.5625 1.921875 -0.601562 2.015625 -0.6875 C 2.117188 -0.769531 2.171875 -0.878906 2.171875 -1.015625 C 2.171875 -1.117188 2.132812 -1.207031 2.0625 -1.28125 C 2 -1.351562 1.914062 -1.410156 1.8125 -1.453125 C 1.71875 -1.492188 1.582031 -1.535156 1.40625 -1.578125 C 1.164062 -1.648438 0.96875 -1.71875 0.8125 -1.78125 C 0.664062 -1.851562 0.539062 -1.957031 0.4375 -2.09375 C 0.332031 -2.238281 0.28125 -2.425781 0.28125 -2.65625 C 0.28125 -2.875 0.332031 -3.0625 0.4375 -3.21875 C 0.550781 -3.382812 0.707031 -3.507812 0.90625 -3.59375 C 1.101562 -3.6875 1.328125 -3.734375 1.578125 -3.734375 C 1.953125 -3.734375 2.257812 -3.640625 2.5 -3.453125 C 2.738281 -3.265625 2.867188 -3.007812 2.890625 -2.6875 L 2.078125 -2.6875 C 2.066406 -2.8125 2.007812 -2.914062 1.90625 -3 C 1.8125 -3.082031 1.679688 -3.125 1.515625 -3.125 C 1.378906 -3.125 1.265625 -3.082031 1.171875 -3 C 1.085938 -2.925781 1.046875 -2.820312 1.046875 -2.6875 C 1.046875 -2.582031 1.078125 -2.5 1.140625 -2.4375 C 1.210938 -2.375 1.296875 -2.320312 1.390625 -2.28125 C 1.484375 -2.238281 1.617188 -2.191406 1.796875 -2.140625 C 2.035156 -2.066406 2.226562 -1.992188 2.375 -1.921875 C 2.53125 -1.859375 2.660156 -1.753906 2.765625 -1.609375 C 2.878906 -1.472656 2.9375 -1.289062 2.9375 -1.0625 C 2.9375 -0.863281 2.882812 -0.679688 2.78125 -0.515625 C 2.675781 -0.347656 2.523438 -0.210938 2.328125 -0.109375 C 2.128906 -0.015625 1.894531 0.03125 1.625 0.03125 Z M 1.625 0.03125 "/></g></g><g style="fill:#000000;fill-opacity:1;"><g transform="translate(92.953522, 33.485245)"><path style="stroke:none" d="M 1.625 0.03125 C 1.375 0.03125 1.144531 -0.0078125 0.9375 -0.09375 C 0.726562 -0.175781 0.566406 -0.300781 0.453125 -0.46875 C 0.335938 -0.632812 0.273438 -0.832031 0.265625 -1.0625 L 1.0625 -1.0625 C 1.070312 -0.90625 1.125 -0.78125 1.21875 -0.6875 C 1.3125 -0.601562 1.441406 -0.5625 1.609375 -0.5625 C 1.785156 -0.5625 1.921875 -0.601562 2.015625 -0.6875 C 2.117188 -0.769531 2.171875 -0.878906 2.171875 -1.015625 C 2.171875 -1.117188 2.132812 -1.207031 2.0625 -1.28125 C 2 -1.351562 1.914062 -1.410156 1.8125 -1.453125 C 1.71875 -1.492188 1.582031 -1.535156 1.40625 -1.578125 C 1.164062 -1.648438 0.96875 -1.71875 0.8125 -1.78125 C 0.664062 -1.851562 0.539062 -1.957031 0.4375 -2.09375 C 0.332031 -2.238281 0.28125 -2.425781 0.28125 -2.65625 C 0.28125 -2.875 0.332031 -3.0625 0.4375 -3.21875 C 0.550781 -3.382812 0.707031 -3.507812 0.90625 -3.59375 C 1.101562 -3.6875 1.328125 -3.734375 1.578125 -3.734375 C 1.953125 -3.734375 2.257812 -3.640625 2.5 -3.453125 C 2.738281 -3.265625 2.867188 -3.007812 2.890625 -2.6875 L 2.078125 -2.6875 C 2.066406 -2.8125 2.007812 -2.914062 1.90625 -3 C 1.8125 -3.082031 1.679688 -3.125 1.515625 -3.125 C 1.378906 -3.125 1.265625 -3.082031 1.171875 -3 C 1.085938 -2.925781 1.046875 -2.820312 1.046875 -2.6875 C 1.046875 -2.582031 1.078125 -2.5 1.140625 -2.4375 C 1.210938 -2.375 1.296875 -2.320312 1.390625 -2.28125 C 1.484375 -2.238281 1.617188 -2.191406 1.796875 -2.140625 C 2.035156 -2.066406 2.226562 -1.992188 2.375 -1.921875 C 2.53125 -1.859375 2.660156 -1.753906 2.765625 -1.609375 C 2.878906 -1.472656 2.9375 -1.289062 2.9375 -1.0625 C 2.9375 -0.863281 2.882812 -0.679688 2.78125 -0.515625 C 2.675781 -0.347656 2.523438 -0.210938 2.328125 -0.109375 C 2.128906 -0.015625 1.894531 0.03125 1.625 0.03125 Z M 1.625 0.03125 "/></g></g><g clip-rule="nonzero" clip-path="url(#967231d8aa)"><g clip-rule="nonzero" clip-path="url(#abfe718ad1)"><path style=" stroke:none;fill-rule:nonzero;fill:#000000;fill-opacity:1;" d="M 85.707031 61.191406 L 94.203125 61.191406 L 94.203125 69.6875 L 85.707031 69.6875 Z M 85.707031 61.191406 "/></g></g><g clip-rule="nonzero" clip-path="url(#c6c0aa83d6)"><g clip-rule="nonzero" clip-path="url(#1219511a28)"><path style="fill:none;stroke-width:1.838915;stroke-linecap:butt;stroke-linejoin:miter;stroke:#000000;stroke-opacity:1;stroke-miterlimit:4;" d="M 5.20432 -0.00106927 C 2.328906 -0.00106927 0.00166466 2.331156 0.00166466 5.201586 C 0.00166466 8.077001 2.328906 10.404242 5.20432 10.404242 C 8.074751 10.404242 10.406976 8.077001 10.406976 5.201586 C 10.406976 2.331156 8.074751 -0.00106927 5.20432 -0.00106927 Z M 5.20432 -0.00106927 " transform="matrix(0.783854,0,0,0.783854,85.705726,61.192244)"/></g></g><g clip-rule="nonzero" clip-path="url(#4c02be61ec)"><g clip-rule="nonzero" clip-path="url(#6091eebf74)"><path style=" stroke:none;fill-rule:nonzero;fill:#000000;fill-opacity:1;" d="M 98.214844 61.191406 L 106.710938 61.191406 L 106.710938 69.6875 L 98.214844 69.6875 Z M 98.214844 61.191406 "/></g></g><g clip-rule="nonzero" clip-path="url(#85383f2749)"><g clip-rule="nonzero" clip-path="url(#9d9f3b4412)"><path style="fill:none;stroke-width:1.838915;stroke-linecap:butt;stroke-linejoin:miter;stroke:#000000;stroke-opacity:1;stroke-miterlimit:4;" d="M 5.205498 -0.00106927 C 2.330084 -0.00106927 -0.00214125 2.331156 -0.00214125 5.201586 C -0.00214125 8.077001 2.330084 10.404242 5.205498 10.404242 C 8.075929 10.404242 10.408154 8.077001 10.408154 5.201586 C 10.408154 2.331156 8.075929 -0.00106927 5.205498 -0.00106927 Z M 5.205498 -0.00106927 " transform="matrix(0.783854,0,0,0.783854,98.216522,61.192244)"/></g></g><g clip-rule="nonzero" clip-path="url(#a27b41d57b)"><g clip-rule="nonzero" clip-path="url(#d464fbf4cd)"><path style=" stroke:none;fill-rule:nonzero;fill:#000000;fill-opacity:1;" d="M 110.726562 61.191406 L 119.222656 61.191406 L 119.222656 69.6875 L 110.726562 69.6875 Z M 110.726562 61.191406 "/></g></g><g clip-rule="nonzero" clip-path="url(#836f07cad7)"><g clip-rule="nonzero" clip-path="url(#b2dfda7029)"><path style="fill:none;stroke-width:1.838915;stroke-linecap:butt;stroke-linejoin:miter;stroke:#000000;stroke-opacity:1;stroke-miterlimit:4;" d="M 5.201698 -0.00106927 C 2.331267 -0.00106927 -0.000957649 2.331156 -0.000957649 5.201586 C -0.000957649 8.077001 2.331267 10.404242 5.201698 10.404242 C 8.077112 10.404242 10.404354 8.077001 10.404354 5.201586 C 10.404354 2.331156 8.077112 -0.00106927 5.201698 -0.00106927 Z M 5.201698 -0.00106927 " transform="matrix(0.783854,0,0,0.783854,110.727313,61.192244)"/></g></g><g clip-rule="nonzero" clip-path="url(#2f32fec5d6)"><g clip-rule="nonzero" clip-path="url(#7bcd96a229)"><path style="fill:none;stroke-width:1.838915;stroke-linecap:butt;stroke-linejoin:miter;stroke:#000000;stroke-opacity:1;stroke-miterlimit:4;" d="M 5.202882 -0.00106927 C 2.327468 -0.00106927 0.000225953 2.331156 0.000225953 5.201586 C 0.000225953 8.077001 2.327468 10.404242 5.202882 10.404242 C 8.078296 10.404242 10.405537 8.077001 10.405537 5.201586 C 10.405537 2.331156 8.078296 -0.00106927 5.202882 -0.00106927 Z M 5.202882 -0.00106927 " transform="matrix(0.783854,0,0,0.783854,123.238104,61.192244)"/></g></g><g clip-rule="nonzero" clip-path="url(#02027dfc2b)"><g clip-rule="nonzero" clip-path="url(#aad33588e7)"><path style="fill:none;stroke-width:1.838915;stroke-linecap:butt;stroke-linejoin:miter;stroke:#000000;stroke-opacity:1;stroke-miterlimit:4;" d="M 5.20401 -0.00106927 C 2.328596 -0.00106927 0.00135444 2.331156 0.00135444 5.201586 C 0.00135444 8.077001 2.328596 10.404242 5.20401 10.404242 C 8.074441 10.404242 10.406666 8.077001 10.406666 5.201586 C 10.406666 2.331156 8.074441 -0.00106927 5.20401 -0.00106927 Z M 5.20401 -0.00106927 " transform="matrix(0.783854,0,0,0.783854,135.748938,61.192244)"/></g></g><g style="fill:#000000;fill-opacity:1;"><g transform="translate(85.705726, 56.457631)"><path style="stroke:none" d="M 2.5 -3.671875 L 2.5 -1.09375 C 2.5 -0.738281 2.394531 -0.460938 2.1875 -0.265625 C 1.988281 -0.0664062 1.710938 0.03125 1.359375 0.03125 C 1.015625 0.03125 0.734375 -0.0664062 0.515625 -0.265625 C 0.296875 -0.472656 0.1875 -0.757812 0.1875 -1.125 L 0.921875 -1.125 C 0.929688 -0.96875 0.96875 -0.84375 1.03125 -0.75 C 1.101562 -0.664062 1.210938 -0.625 1.359375 -0.625 C 1.484375 -0.625 1.582031 -0.664062 1.65625 -0.75 C 1.726562 -0.832031 1.765625 -0.945312 1.765625 -1.09375 L 1.765625 -3.671875 Z M 2.5 -3.671875 "/></g></g><g style="fill:#000000;fill-opacity:1;"><g transform="translate(88.701837, 56.457631)"><path style="stroke:none" d="M 2.609375 -2.1875 L 2.609375 -1.5625 L 0.375 -1.5625 L 0.375 -2.1875 Z M 2.609375 -2.1875 "/></g></g><g style="fill:#000000;fill-opacity:1;"><g transform="translate(91.766278, 56.457631)"><path style="stroke:none" d="M 3.09375 0.640625 L 2.546875 -0.015625 C 2.390625 0.015625 2.226562 0.03125 2.0625 0.03125 C 1.71875 0.03125 1.398438 -0.046875 1.109375 -0.203125 C 0.828125 -0.367188 0.601562 -0.59375 0.4375 -0.875 C 0.269531 -1.164062 0.1875 -1.488281 0.1875 -1.84375 C 0.1875 -2.207031 0.269531 -2.53125 0.4375 -2.8125 C 0.601562 -3.101562 0.828125 -3.328125 1.109375 -3.484375 C 1.398438 -3.648438 1.71875 -3.734375 2.0625 -3.734375 C 2.414062 -3.734375 2.734375 -3.648438 3.015625 -3.484375 C 3.304688 -3.328125 3.535156 -3.101562 3.703125 -2.8125 C 3.867188 -2.53125 3.953125 -2.207031 3.953125 -1.84375 C 3.953125 -1.519531 3.878906 -1.222656 3.734375 -0.953125 C 3.597656 -0.679688 3.410156 -0.460938 3.171875 -0.296875 L 4.015625 0.640625 Z M 0.9375 -1.84375 C 0.9375 -1.601562 0.984375 -1.390625 1.078125 -1.203125 C 1.179688 -1.015625 1.316406 -0.867188 1.484375 -0.765625 C 1.648438 -0.671875 1.84375 -0.625 2.0625 -0.625 C 2.289062 -0.625 2.488281 -0.671875 2.65625 -0.765625 C 2.820312 -0.867188 2.953125 -1.015625 3.046875 -1.203125 C 3.140625 -1.390625 3.1875 -1.601562 3.1875 -1.84375 C 3.1875 -2.09375 3.140625 -2.304688 3.046875 -2.484375 C 2.953125 -2.671875 2.820312 -2.8125 2.65625 -2.90625 C 2.488281 -3.007812 2.289062 -3.0625 2.0625 -3.0625 C 1.84375 -3.0625 1.648438 -3.007812 1.484375 -2.90625 C 1.316406 -2.8125 1.179688 -2.671875 1.078125 -2.484375 C 0.984375 -2.304688 0.9375 -2.09375 0.9375 -1.84375 Z M 0.9375 -1.84375 "/></g></g><g style="fill:#000000;fill-opacity:1;"><g transform="translate(95.903012, 56.457631)"><path style="stroke:none" d="M 1.09375 -3.671875 L 1.09375 -1.40625 C 1.09375 -1.15625 1.15625 -0.960938 1.28125 -0.828125 C 1.414062 -0.691406 1.597656 -0.625 1.828125 -0.625 C 2.066406 -0.625 2.25 -0.691406 2.375 -0.828125 C 2.507812 -0.960938 2.578125 -1.15625 2.578125 -1.40625 L 2.578125 -3.671875 L 3.328125 -3.671875 L 3.328125 -1.40625 C 3.328125 -1.09375 3.257812 -0.828125 3.125 -0.609375 C 2.988281 -0.398438 2.804688 -0.238281 2.578125 -0.125 C 2.347656 -0.0195312 2.097656 0.03125 1.828125 0.03125 C 1.546875 0.03125 1.296875 -0.0195312 1.078125 -0.125 C 0.859375 -0.238281 0.679688 -0.398438 0.546875 -0.609375 C 0.421875 -0.828125 0.359375 -1.09375 0.359375 -1.40625 L 0.359375 -3.671875 Z M 1.09375 -3.671875 "/></g></g><g style="fill:#000000;fill-opacity:1;"><g transform="translate(99.566678, 56.457631)"><path style="stroke:none" d="M 1.09375 -3.078125 L 1.09375 -2.15625 L 2.34375 -2.15625 L 2.34375 -1.578125 L 1.09375 -1.578125 L 1.09375 -0.59375 L 2.5 -0.59375 L 2.5 0 L 0.359375 0 L 0.359375 -3.6875 L 2.5 -3.6875 L 2.5 -3.078125 Z M 1.09375 -3.078125 "/></g></g><g style="fill:#000000;fill-opacity:1;"><g transform="translate(102.36305, 56.457631)"><path style="stroke:none" d="M 2.265625 0 L 1.453125 -1.4375 L 1.09375 -1.4375 L 1.09375 0 L 0.359375 0 L 0.359375 -3.671875 L 1.75 -3.671875 C 2.03125 -3.671875 2.269531 -3.617188 2.46875 -3.515625 C 2.664062 -3.421875 2.8125 -3.285156 2.90625 -3.109375 C 3.007812 -2.941406 3.0625 -2.753906 3.0625 -2.546875 C 3.0625 -2.304688 2.992188 -2.085938 2.859375 -1.890625 C 2.722656 -1.691406 2.515625 -1.554688 2.234375 -1.484375 L 3.109375 0 Z M 1.09375 -1.984375 L 1.71875 -1.984375 C 1.914062 -1.984375 2.0625 -2.03125 2.15625 -2.125 C 2.257812 -2.226562 2.3125 -2.363281 2.3125 -2.53125 C 2.3125 -2.695312 2.257812 -2.828125 2.15625 -2.921875 C 2.0625 -3.015625 1.914062 -3.0625 1.71875 -3.0625 L 1.09375 -3.0625 Z M 1.09375 -1.984375 "/></g></g><g style="fill:#000000;fill-opacity:1;"><g transform="translate(105.732359, 56.457631)"><path style="stroke:none" d="M 3.28125 -3.671875 L 2.046875 -1.28125 L 2.046875 0 L 1.3125 0 L 1.3125 -1.28125 L 0.0625 -3.671875 L 0.890625 -3.671875 L 1.6875 -2 L 2.46875 -3.671875 Z M 3.28125 -3.671875 "/></g></g><g clip-rule="nonzero" clip-path="url(#c1569ad1e2)"><g clip-rule="nonzero" clip-path="url(#7debd4d043)"><path style=" stroke:none;fill-rule:nonzero;fill:#000000;fill-opacity:1;" d="M 85.707031 38.285156 L 94.203125 38.285156 L 94.203125 46.78125 L 85.707031 46.78125 Z M 85.707031 38.285156 "/></g></g><g clip-rule="nonzero" clip-path="url(#e74b79fe78)"><g clip-rule="nonzero" clip-path="url(#444b73dfee)"><path style="fill:none;stroke-width:1.838915;stroke-linecap:butt;stroke-linejoin:miter;stroke:#000000;stroke-opacity:1;stroke-miterlimit:4;" d="M 5.20432 -0.0014058 C 2.328906 -0.0014058 0.00166466 2.330819 0.00166466 5.20125 C 0.00166466 8.076664 2.328906 10.403906 5.20432 10.403906 C 8.074751 10.403906 10.406976 8.076664 10.406976 5.20125 C 10.406976 2.330819 8.074751 -0.0014058 5.20432 -0.0014058 Z M 5.20432 -0.0014058 " transform="matrix(0.783854,0,0,0.783854,85.705726,38.286258)"/></g></g><g clip-rule="nonzero" clip-path="url(#b500c15dc4)"><g clip-rule="nonzero" clip-path="url(#2aa0dae4ed)"><path style=" stroke:none;fill-rule:nonzero;fill:#000000;fill-opacity:1;" d="M 98.214844 38.285156 L 106.710938 38.285156 L 106.710938 46.78125 L 98.214844 46.78125 Z M 98.214844 38.285156 "/></g></g><g clip-rule="nonzero" clip-path="url(#a47fbd5b4f)"><g clip-rule="nonzero" clip-path="url(#ca5c0b24f9)"><path style="fill:none;stroke-width:1.838915;stroke-linecap:butt;stroke-linejoin:miter;stroke:#000000;stroke-opacity:1;stroke-miterlimit:4;" d="M 5.205498 -0.0014058 C 2.330084 -0.0014058 -0.00214125 2.330819 -0.00214125 5.20125 C -0.00214125 8.076664 2.330084 10.403906 5.205498 10.403906 C 8.075929 10.403906 10.408154 8.076664 10.408154 5.20125 C 10.408154 2.330819 8.075929 -0.0014058 5.205498 -0.0014058 Z M 5.205498 -0.0014058 " transform="matrix(0.783854,0,0,0.783854,98.216522,38.286258)"/></g></g><g clip-rule="nonzero" clip-path="url(#4c99c5e426)"><g clip-rule="nonzero" clip-path="url(#9cba35d6a0)"><path style=" stroke:none;fill-rule:nonzero;fill:#000000;fill-opacity:1;" d="M 110.726562 38.285156 L 119.222656 38.285156 L 119.222656 46.78125 L 110.726562 46.78125 Z M 110.726562 38.285156 "/></g></g><g clip-rule="nonzero" clip-path="url(#510a8da319)"><g clip-rule="nonzero" clip-path="url(#51d6bc5ee4)"><path style="fill:none;stroke-width:1.838915;stroke-linecap:butt;stroke-linejoin:miter;stroke:#000000;stroke-opacity:1;stroke-miterlimit:4;" d="M 5.201698 -0.0014058 C 2.331267 -0.0014058 -0.000957649 2.330819 -0.000957649 5.20125 C -0.000957649 8.076664 2.331267 10.403906 5.201698 10.403906 C 8.077112 10.403906 10.404354 8.076664 10.404354 5.20125 C 10.404354 2.330819 8.077112 -0.0014058 5.201698 -0.0014058 Z M 5.201698 -0.0014058 " transform="matrix(0.783854,0,0,0.783854,110.727313,38.286258)"/></g></g><g clip-rule="nonzero" clip-path="url(#6e02a4e5a1)"><g clip-rule="nonzero" clip-path="url(#2ccebd270c)"><path style=" stroke:none;fill-rule:nonzero;fill:#000000;fill-opacity:1;" d="M 123.238281 38.285156 L 131.734375 38.285156 L 131.734375 46.78125 L 123.238281 46.78125 Z M 123.238281 38.285156 "/></g></g><g clip-rule="nonzero" clip-path="url(#c5ebde92d1)"><g clip-rule="nonzero" clip-path="url(#3c51f55914)"><path style="fill:none;stroke-width:1.838915;stroke-linecap:butt;stroke-linejoin:miter;stroke:#000000;stroke-opacity:1;stroke-miterlimit:4;" d="M 5.202882 -0.0014058 C 2.327468 -0.0014058 0.000225953 2.330819 0.000225953 5.20125 C 0.000225953 8.076664 2.327468 10.403906 5.202882 10.403906 C 8.078296 10.403906 10.405537 8.076664 10.405537 5.20125 C 10.405537 2.330819 8.078296 -0.0014058 5.202882 -0.0014058 Z M 5.202882 -0.0014058 " transform="matrix(0.783854,0,0,0.783854,123.238104,38.286258)"/></g></g><g clip-rule="nonzero" clip-path="url(#539bdf7e82)"><g clip-rule="nonzero" clip-path="url(#e4a9c7f896)"><path style="fill:none;stroke-width:1.838915;stroke-linecap:butt;stroke-linejoin:miter;stroke:#000000;stroke-opacity:1;stroke-miterlimit:4;" d="M 5.20401 -0.0014058 C 2.328596 -0.0014058 0.00135444 2.330819 0.00135444 5.20125 C 0.00135444 8.076664 2.328596 10.403906 5.20401 10.403906 C 8.074441 10.403906 10.406666 8.076664 10.406666 5.20125 C 10.406666 2.330819 8.074441 -0.0014058 5.20401 -0.0014058 Z M 5.20401 -0.0014058 " transform="matrix(0.783854,0,0,0.783854,135.748938,38.286258)"/></g></g><g clip-rule="nonzero" clip-path="url(#6535ff22cb)"><g clip-rule="nonzero" clip-path="url(#1e34845adf)"><path style=" stroke:none;fill-rule:nonzero;fill:#000000;fill-opacity:1;" d="M 85.707031 15.210938 L 94.203125 15.210938 L 94.203125 23.707031 L 85.707031 23.707031 Z M 85.707031 15.210938 "/></g></g><g clip-rule="nonzero" clip-path="url(#2904a22bd4)"><g clip-rule="nonzero" clip-path="url(#78b7a11e1f)"><path style="fill:none;stroke-width:1.838915;stroke-linecap:butt;stroke-linejoin:miter;stroke:#000000;stroke-opacity:1;stroke-miterlimit:4;" d="M 5.20432 0.0000938723 C 2.328906 0.0000938723 0.00166466 2.327335 0.00166466 5.20275 C 0.00166466 8.078164 2.328906 10.405405 5.20432 10.405405 C 8.074751 10.405405 10.406976 8.078164 10.406976 5.20275 C 10.406976 2.327335 8.074751 0.0000938723 5.20432 0.0000938723 Z M 5.20432 0.0000938723 " transform="matrix(0.783854,0,0,0.783854,85.705726,15.210864)"/></g></g><g clip-rule="nonzero" clip-path="url(#006e019f5b)"><g clip-rule="nonzero" clip-path="url(#d82a3d45cf)"><path style=" stroke:none;fill-rule:nonzero;fill:#000000;fill-opacity:1;" d="M 98.214844 15.210938 L 106.710938 15.210938 L 106.710938 23.707031 L 98.214844 23.707031 Z M 98.214844 15.210938 "/></g></g><g clip-rule="nonzero" clip-path="url(#a944454fb2)"><g clip-rule="nonzero" clip-path="url(#a152508fe4)"><path style="fill:none;stroke-width:1.838915;stroke-linecap:butt;stroke-linejoin:miter;stroke:#000000;stroke-opacity:1;stroke-miterlimit:4;" d="M 5.205498 0.0000938723 C 2.330084 0.0000938723 -0.00214125 2.327335 -0.00214125 5.20275 C -0.00214125 8.078164 2.330084 10.405405 5.205498 10.405405 C 8.075929 10.405405 10.408154 8.078164 10.408154 5.20275 C 10.408154 2.327335 8.075929 0.0000938723 5.205498 0.0000938723 Z M 5.205498 0.0000938723 " transform="matrix(0.783854,0,0,0.783854,98.216522,15.210864)"/></g></g><g clip-rule="nonzero" clip-path="url(#61c4ad9aad)"><g clip-rule="nonzero" clip-path="url(#89239cf4b1)"><path style=" stroke:none;fill-rule:nonzero;fill:#000000;fill-opacity:1;" d="M 110.726562 15.210938 L 119.222656 15.210938 L 119.222656 23.707031 L 110.726562 23.707031 Z M 110.726562 15.210938 "/></g></g><g clip-rule="nonzero" clip-path="url(#325ff6c286)"><g clip-rule="nonzero" clip-path="url(#170a30e469)"><path style="fill:none;stroke-width:1.838915;stroke-linecap:butt;stroke-linejoin:miter;stroke:#000000;stroke-opacity:1;stroke-miterlimit:4;" d="M 5.201698 0.0000938723 C 2.331267 0.0000938723 -0.000957649 2.327335 -0.000957649 5.20275 C -0.000957649 8.078164 2.331267 10.405405 5.201698 10.405405 C 8.077112 10.405405 10.404354 8.078164 10.404354 5.20275 C 10.404354 2.327335 8.077112 0.0000938723 5.201698 0.0000938723 Z M 5.201698 0.0000938723 " transform="matrix(0.783854,0,0,0.783854,110.727313,15.210864)"/></g></g><g clip-rule="nonzero" clip-path="url(#e26a799a83)"><g clip-rule="nonzero" clip-path="url(#2991ec4cb8)"><path style="fill:none;stroke-width:1.838915;stroke-linecap:butt;stroke-linejoin:miter;stroke:#000000;stroke-opacity:1;stroke-miterlimit:4;" d="M 5.202882 0.0000938723 C 2.327468 0.0000938723 0.000225953 2.327335 0.000225953 5.20275 C 0.000225953 8.078164 2.327468 10.405405 5.202882 10.405405 C 8.078296 10.405405 10.405537 8.078164 10.405537 5.20275 C 10.405537 2.327335 8.078296 0.0000938723 5.202882 0.0000938723 Z M 5.202882 0.0000938723 " transform="matrix(0.783854,0,0,0.783854,123.238104,15.210864)"/></g></g><g clip-rule="nonzero" clip-path="url(#9fceb37303)"><g clip-rule="nonzero" clip-path="url(#b063efb8ca)"><path style="fill:none;stroke-width:1.838915;stroke-linecap:butt;stroke-linejoin:miter;stroke:#000000;stroke-opacity:1;stroke-miterlimit:4;" d="M 5.20401 0.0000938723 C 2.328596 0.0000938723 0.00135444 2.327335 0.00135444 5.20275 C 0.00135444 8.078164 2.328596 10.405405 5.20401 10.405405 C 8.074441 10.405405 10.406666 8.078164 10.406666 5.20275 C 10.406666 2.327335 8.074441 0.0000938723 5.20401 0.0000938723 Z M 5.20401 0.0000938723 " transform="matrix(0.783854,0,0,0.783854,135.748938,15.210864)"/></g></g><g clip-rule="nonzero" clip-path="url(#542e906e63)"><g clip-rule="nonzero" clip-path="url(#69538dd561)"><path style=" stroke:none;fill-rule:nonzero;fill:#000000;fill-opacity:1;" d="M 5.753906 15.210938 L 14.25 15.210938 L 14.25 23.707031 L 5.753906 23.707031 Z M 5.753906 15.210938 "/></g></g><g clip-rule="nonzero" clip-path="url(#d7398dcaa0)"><g clip-rule="nonzero" clip-path="url(#da920436cc)"><path style="fill:none;stroke-width:1.838915;stroke-linecap:butt;stroke-linejoin:miter;stroke:#000000;stroke-opacity:1;stroke-miterlimit:4;" d="M 5.201366 0.0000938723 C 2.330935 0.0000938723 -0.00128968 2.327335 -0.00128968 5.20275 C -0.00128968 8.078164 2.330935 10.405405 5.201366 10.405405 C 8.07678 10.405405 10.404022 8.078164 10.404022 5.20275 C 10.404022 2.327335 8.07678 0.0000938723 5.201366 0.0000938723 Z M 5.201366 0.0000938723 " transform="matrix(0.783854,0,0,0.783854,5.754917,15.210864)"/></g></g><g clip-rule="nonzero" clip-path="url(#729456fd08)"><g clip-rule="nonzero" clip-path="url(#cf2187b304)"><path style=" stroke:none;fill-rule:nonzero;fill:#000000;fill-opacity:1;" d="M 18.265625 15.210938 L 26.761719 15.210938 L 26.761719 23.707031 L 18.265625 23.707031 Z M 18.265625 15.210938 "/></g></g><g clip-rule="nonzero" clip-path="url(#8a4250f92f)"><g clip-rule="nonzero" clip-path="url(#5454664097)"><path style="fill:none;stroke-width:1.838915;stroke-linecap:butt;stroke-linejoin:miter;stroke:#000000;stroke-opacity:1;stroke-miterlimit:4;" d="M 5.202546 0.0000938723 C 2.327132 0.0000938723 -0.000110057 2.327335 -0.000110057 5.20275 C -0.000110057 8.078164 2.327132 10.405405 5.202546 10.405405 C 8.07796 10.405405 10.405201 8.078164 10.405201 5.20275 C 10.405201 2.327335 8.07796 0.0000938723 5.202546 0.0000938723 Z M 5.202546 0.0000938723 " transform="matrix(0.783854,0,0,0.783854,18.265711,15.210864)"/></g></g><g clip-rule="nonzero" clip-path="url(#d00502ed99)"><g clip-rule="nonzero" clip-path="url(#62e4a1c826)"><path style=" stroke:none;fill-rule:nonzero;fill:#000000;fill-opacity:1;" d="M 30.777344 15.210938 L 39.273438 15.210938 L 39.273438 23.707031 L 30.777344 23.707031 Z M 30.777344 15.210938 "/></g></g><g clip-rule="nonzero" clip-path="url(#73fd5735bd)"><g clip-rule="nonzero" clip-path="url(#64d772c030)"><path style="fill:none;stroke-width:1.838915;stroke-linecap:butt;stroke-linejoin:miter;stroke:#000000;stroke-opacity:1;stroke-miterlimit:4;" d="M 5.203723 0.0000938723 C 2.328309 0.0000938723 0.00106773 2.327335 0.00106773 5.20275 C 0.00106773 8.078164 2.328309 10.405405 5.203723 10.405405 C 8.079138 10.405405 10.406379 8.078164 10.406379 5.20275 C 10.406379 2.327335 8.079138 0.0000938723 5.203723 0.0000938723 Z M 5.203723 0.0000938723 " transform="matrix(0.783854,0,0,0.783854,30.776507,15.210864)"/></g></g><g clip-rule="nonzero" clip-path="url(#c3991d3210)"><g clip-rule="nonzero" clip-path="url(#8e94f4903f)"><path style="fill:none;stroke-width:1.838915;stroke-linecap:butt;stroke-linejoin:miter;stroke:#000000;stroke-opacity:1;stroke-miterlimit:4;" d="M 5.204905 0.0000938723 C 2.329491 0.0000938723 0.00224919 2.327335 0.00224919 5.20275 C 0.00224919 8.078164 2.329491 10.405405 5.204905 10.405405 C 8.075336 10.405405 10.407561 8.078164 10.407561 5.20275 C 10.407561 2.327335 8.075336 0.0000938723 5.204905 0.0000938723 Z M 5.204905 0.0000938723 " transform="matrix(0.783854,0,0,0.783854,43.287299,15.210864)"/></g></g><g clip-rule="nonzero" clip-path="url(#32cf98c364)"><g clip-rule="nonzero" clip-path="url(#59810372ab)"><path style="fill:none;stroke-width:1.838915;stroke-linecap:butt;stroke-linejoin:miter;stroke:#000000;stroke-opacity:1;stroke-miterlimit:4;" d="M 5.201099 0.0000938723 C 2.330668 0.0000938723 -0.00155672 2.327335 -0.00155672 5.20275 C -0.00155672 8.078164 2.330668 10.405405 5.201099 10.405405 C 8.076513 10.405405 10.408738 8.078164 10.408738 5.20275 C 10.408738 2.327335 8.076513 0.0000938723 5.201099 0.0000938723 Z M 5.201099 0.0000938723 " transform="matrix(0.783854,0,0,0.783854,55.798095,15.210864)"/></g></g></g></svg>