<svg xmlns="http://www.w3.org/2000/svg" xmlns:xlink="http://www.w3.org/1999/xlink" width="579" zoomAndPan="magnify" viewBox="0 0 434.25 263.99999" height="352" preserveAspectRatio="xMidYMid meet" version="1.0"><defs><g/><clipPath id="cb413529e4"><path d="M 0 0.226562 L 433.5 0.226562 L 433.5 263.769531 L 0 263.769531 Z M 0 0.226562 " clip-rule="nonzero"/></clipPath><clipPath id="43ef1393b0"><path d="M 0 1 L 433 1 L 433 263.769531 L 0 263.769531 Z M 0 1 " clip-rule="nonzero"/></clipPath><clipPath id="ac45edc793"><path d="M 0 34.597656 L 414.398438 1.074219 L 432.9375 230.226562 L 18.539062 263.75 Z M 0 34.597656 " clip-rule="nonzero"/></clipPath><clipPath id="ac4e69a5f6"><path d="M 0 1 L 433 1 L 433 263.769531 L 0 263.769531 Z M 0 1 " clip-rule="nonzero"/></clipPath><clipPath id="2fb1082084"><path d="M 0 34.597656 L 414.179688 1.089844 L 432.714844 230.195312 L 18.535156 263.703125 Z M 0 34.597656 " clip-rule="nonzero"/></clipPath><clipPath id="83a81c9863"><path d="M 0 34.597656 L 414.390625 1.074219 L 432.925781 230.222656 L 18.539062 263.746094 Z M 0 34.597656 " clip-rule="nonzero"/></clipPath><clipPath id="641b8ceccf"><path d="M 0 4 L 425 4 L 425 251 L 0 251 Z M 0 4 " clip-rule="nonzero"/></clipPath><clipPath id="e40cf83080"><path d="M 0 20.289062 L 415.4375 4.050781 L 424.417969 233.777344 L 8.980469 250.015625 Z M 0 20.289062 " clip-rule="nonzero"/></clipPath><clipPath id="bccda71d97"><path d="M 0 4 L 425 4 L 425 250 L 0 250 Z M 0 4 " clip-rule="nonzero"/></clipPath><clipPath id="023b0b153d"><path d="M 0 20.289062 L 415.214844 4.058594 L 424.195312 233.734375 L 8.976562 249.96875 Z M 0 20.289062 " clip-rule="nonzero"/></clipPath><clipPath id="ab939ce2ef"><path d="M 0 20.289062 L 415.425781 4.050781 L 424.40625 233.773438 L 8.980469 250.011719 Z M 0 20.289062 " clip-rule="nonzero"/></clipPath><clipPath id="081d9b2676"><path d="M 0 0.226562 L 415.753906 0.226562 L 415.753906 230.132812 L 0 230.132812 Z M 0 0.226562 " clip-rule="nonzero"/></clipPath><clipPath id="caa694a23c"><path d="M 0 0.230469 L 415.53125 0.230469 L 415.53125 230.082031 L 0 230.082031 Z M 0 0.230469 " clip-rule="nonzero"/></clipPath></defs><g clip-path="url(#cb413529e4)"><path fill="#ffffff" d="M 0 0.226562 L 433.5 0.226562 L 433.5 263.773438 L 0 263.773438 Z M 0 0.226562 " fill-opacity="1" fill-rule="nonzero"/></g><g clip-path="url(#43ef1393b0)"><g clip-path="url(#ac45edc793)"><path fill="#ffffff" d="M 0 34.597656 L 414.449219 1.070312 L 432.988281 230.222656 L 18.539062 263.75 Z M 0 34.597656 " fill-opacity="1" fill-rule="nonzero"/></g></g><g clip-path="url(#ac4e69a5f6)"><g clip-path="url(#2fb1082084)"><g clip-path="url(#83a81c9863)"><path stroke-linecap="butt" transform="matrix(0.746269, -0.0603721, 0.0603721, 0.746269, 0.000226334, 34.598151)" fill="none" stroke-linejoin="miter" d="M -0.000248082 -0.000682406 L 555.283021 -0.000476338 L 555.279539 307.058065 L 0.00147037 307.058279 Z M -0.000248082 -0.000682406 " stroke="#000000" stroke-width="4" stroke-opacity="1" stroke-miterlimit="4"/></g></g></g><g clip-path="url(#641b8ceccf)"><g clip-path="url(#e40cf83080)"><path fill="#ffffff" d="M 0 20.289062 L 415.484375 4.046875 L 424.464844 233.777344 L 8.980469 250.015625 Z M 0 20.289062 " fill-opacity="1" fill-rule="nonzero"/></g></g><g clip-path="url(#bccda71d97)"><g clip-path="url(#023b0b153d)"><g clip-path="url(#ab939ce2ef)"><path stroke-linecap="butt" transform="matrix(0.748135, -0.0292451, 0.0292451, 0.748135, 0.000113932, 20.290666)" fill="none" stroke-linejoin="miter" d="M -0.0000684182 -0.00214554 L 555.281371 -0.000863654 L 555.282002 307.059398 L 0.000562864 307.058116 Z M -0.0000684182 -0.00214554 " stroke="#000000" stroke-width="4" stroke-opacity="1" stroke-miterlimit="4"/></g></g></g><g clip-path="url(#081d9b2676)"><path fill="#ffffff" d="M 0 0.226562 L 415.800781 0.226562 L 415.800781 230.132812 L 0 230.132812 Z M 0 0.226562 " fill-opacity="1" fill-rule="nonzero"/></g><g clip-path="url(#caa694a23c)"><path stroke-linecap="butt" transform="matrix(0.748707, 0, 0, 0.748707, 0.000000000000255354, 0.228787)" fill="none" stroke-linejoin="miter" d="M -0.00000000000034106 0.00224619 L 555.280284 0.00224619 L 555.280284 307.057687 L -0.00000000000034106 307.057687 Z M -0.00000000000034106 0.00224619 " stroke="#000000" stroke-width="4" stroke-opacity="1" stroke-miterlimit="4"/></g><g fill="#000000" fill-opacity="1"><g transform="translate(107.852124, 61.147599)"><g><path d="M -0.25 -12.953125 L -0.25 -15.515625 L 12.375 -15.515625 L 12.375 -12.953125 L 7.5625 -12.953125 L 7.5625 0 L 4.59375 0 L 4.59375 -12.953125 Z M -0.25 -12.953125 "/></g></g></g><g fill="#000000" fill-opacity="1"><g transform="translate(119.981973, 61.147599)"><g><path d="M 12.1875 -5.921875 C 12.1875 -5.859375 12.164062 -5.582031 12.125 -5.09375 L 3.421875 -5.09375 C 3.546875 -4.226562 3.921875 -3.539062 4.546875 -3.03125 C 5.179688 -2.53125 5.972656 -2.28125 6.921875 -2.28125 C 8.117188 -2.28125 9.109375 -2.695312 9.890625 -3.53125 L 11.421875 -1.78125 C 10.335938 -0.488281 8.804688 0.15625 6.828125 0.15625 C 5.585938 0.15625 4.484375 -0.101562 3.515625 -0.625 C 2.554688 -1.15625 1.816406 -1.878906 1.296875 -2.796875 C 0.773438 -3.722656 0.515625 -4.769531 0.515625 -5.9375 C 0.515625 -7.101562 0.769531 -8.148438 1.28125 -9.078125 C 1.789062 -10.003906 2.492188 -10.722656 3.390625 -11.234375 C 4.296875 -11.753906 5.300781 -12.015625 6.40625 -12.015625 C 7.5 -12.015625 8.484375 -11.765625 9.359375 -11.265625 C 10.242188 -10.765625 10.9375 -10.054688 11.4375 -9.140625 C 11.9375 -8.222656 12.1875 -7.148438 12.1875 -5.921875 Z M 6.421875 -9.734375 C 5.609375 -9.734375 4.925781 -9.472656 4.375 -8.953125 C 3.820312 -8.441406 3.488281 -7.753906 3.375 -6.890625 L 9.484375 -6.890625 C 9.367188 -7.734375 9.035156 -8.414062 8.484375 -8.9375 C 7.929688 -9.46875 7.242188 -9.734375 6.421875 -9.734375 Z M 6.421875 -9.734375 "/></g></g></g><g fill="#000000" fill-opacity="1"><g transform="translate(132.688375, 61.147599)"><g><path d="M 4.296875 -16.453125 L 4.296875 0 L 1.421875 0 L 1.421875 -16.453125 Z M 4.296875 -16.453125 "/></g></g></g><g fill="#000000" fill-opacity="1"><g transform="translate(138.431755, 61.147599)"><g/></g></g><g fill="#000000" fill-opacity="1"><g transform="translate(142.822445, 61.147599)"><g><path d="M 2.765625 0.15625 C 2.222656 0.15625 1.765625 -0.0234375 1.390625 -0.390625 C 1.023438 -0.753906 0.84375 -1.21875 0.84375 -1.78125 C 0.84375 -2.332031 1.023438 -2.785156 1.390625 -3.140625 C 1.765625 -3.503906 2.222656 -3.6875 2.765625 -3.6875 C 3.316406 -3.6875 3.773438 -3.503906 4.140625 -3.140625 C 4.515625 -2.785156 4.703125 -2.332031 4.703125 -1.78125 C 4.703125 -1.21875 4.515625 -0.753906 4.140625 -0.390625 C 3.773438 -0.0234375 3.316406 0.15625 2.765625 0.15625 Z M 2.765625 0.15625 "/></g></g></g><g fill="#000000" fill-opacity="1"><g transform="translate(148.366252, 61.147599)"><g/></g></g><g fill="#000000" fill-opacity="1"><g transform="translate(152.756942, 61.147599)"><g><path d="M 6.65625 0.25 C 5.394531 0.25 4.269531 -0.0664062 3.28125 -0.703125 C 2.289062 -1.335938 1.515625 -2.257812 0.953125 -3.46875 C 0.390625 -4.675781 0.109375 -6.109375 0.109375 -7.765625 C 0.109375 -9.421875 0.390625 -10.847656 0.953125 -12.046875 C 1.515625 -13.253906 2.289062 -14.175781 3.28125 -14.8125 C 4.269531 -15.445312 5.394531 -15.765625 6.65625 -15.765625 C 7.925781 -15.765625 9.054688 -15.445312 10.046875 -14.8125 C 11.035156 -14.175781 11.804688 -13.253906 12.359375 -12.046875 C 12.910156 -10.847656 13.1875 -9.421875 13.1875 -7.765625 C 13.1875 -6.109375 12.910156 -4.675781 12.359375 -3.46875 C 11.804688 -2.257812 11.035156 -1.335938 10.046875 -0.703125 C 9.054688 -0.0664062 7.925781 0.25 6.65625 0.25 Z M 6.65625 -2.421875 C 7.695312 -2.421875 8.523438 -2.863281 9.140625 -3.75 C 9.753906 -4.644531 10.0625 -5.984375 10.0625 -7.765625 C 10.0625 -9.535156 9.753906 -10.867188 9.140625 -11.765625 C 8.523438 -12.660156 7.695312 -13.109375 6.65625 -13.109375 C 5.613281 -13.109375 4.789062 -12.660156 4.1875 -11.765625 C 3.582031 -10.867188 3.28125 -9.535156 3.28125 -7.765625 C 3.28125 -5.984375 3.582031 -4.644531 4.1875 -3.75 C 4.789062 -2.863281 5.613281 -2.421875 6.65625 -2.421875 Z M 6.65625 -2.421875 "/></g></g></g><g fill="#000000" fill-opacity="1"><g transform="translate(166.062072, 61.147599)"><g><path d="M 8.90625 0 L 5.78125 0 L 5.78125 -12.984375 L 2.546875 -12.984375 L 2.546875 -15.515625 L 8.90625 -15.515625 Z M 8.90625 0 "/></g></g></g><g fill="#000000" fill-opacity="1"><g transform="translate(179.367202, 61.147599)"><g><path d="M 6.65625 0.25 C 5.394531 0.25 4.269531 -0.0664062 3.28125 -0.703125 C 2.289062 -1.335938 1.515625 -2.257812 0.953125 -3.46875 C 0.390625 -4.675781 0.109375 -6.109375 0.109375 -7.765625 C 0.109375 -9.421875 0.390625 -10.847656 0.953125 -12.046875 C 1.515625 -13.253906 2.289062 -14.175781 3.28125 -14.8125 C 4.269531 -15.445312 5.394531 -15.765625 6.65625 -15.765625 C 7.925781 -15.765625 9.054688 -15.445312 10.046875 -14.8125 C 11.035156 -14.175781 11.804688 -13.253906 12.359375 -12.046875 C 12.910156 -10.847656 13.1875 -9.421875 13.1875 -7.765625 C 13.1875 -6.109375 12.910156 -4.675781 12.359375 -3.46875 C 11.804688 -2.257812 11.035156 -1.335938 10.046875 -0.703125 C 9.054688 -0.0664062 7.925781 0.25 6.65625 0.25 Z M 6.65625 -2.421875 C 7.695312 -2.421875 8.523438 -2.863281 9.140625 -3.75 C 9.753906 -4.644531 10.0625 -5.984375 10.0625 -7.765625 C 10.0625 -9.535156 9.753906 -10.867188 9.140625 -11.765625 C 8.523438 -12.660156 7.695312 -13.109375 6.65625 -13.109375 C 5.613281 -13.109375 4.789062 -12.660156 4.1875 -11.765625 C 3.582031 -10.867188 3.28125 -9.535156 3.28125 -7.765625 C 3.28125 -5.984375 3.582031 -4.644531 4.1875 -3.75 C 4.789062 -2.863281 5.613281 -2.421875 6.65625 -2.421875 Z M 6.65625 -2.421875 "/></g></g></g><g fill="#000000" fill-opacity="1"><g transform="translate(192.672332, 61.147599)"><g/></g></g><g fill="#000000" fill-opacity="1"><g transform="translate(197.063022, 61.147599)"><g><path d="M 6.09375 -9.5625 C 8.3125 -9.5625 9.9375 -9.132812 10.96875 -8.28125 C 12.007812 -7.425781 12.53125 -6.269531 12.53125 -4.8125 C 12.53125 -3.863281 12.300781 -3.007812 11.84375 -2.25 C 11.382812 -1.488281 10.6875 -0.878906 9.75 -0.421875 C 8.8125 0.0234375 7.65625 0.25 6.28125 0.25 C 5.1875 0.25 4.113281 0.09375 3.0625 -0.21875 C 2.019531 -0.53125 1.140625 -0.957031 0.421875 -1.5 L 1.6875 -3.90625 C 2.25 -3.425781 2.925781 -3.054688 3.71875 -2.796875 C 4.507812 -2.546875 5.332031 -2.421875 6.1875 -2.421875 C 7.1875 -2.421875 7.960938 -2.625 8.515625 -3.03125 C 9.078125 -3.4375 9.359375 -3.992188 9.359375 -4.703125 C 9.359375 -5.453125 9.0625 -6.019531 8.46875 -6.40625 C 7.875 -6.800781 6.847656 -7 5.390625 -7 L 1.578125 -7 L 2.375 -15.515625 L 11.59375 -15.515625 L 11.59375 -12.984375 L 4.96875 -12.984375 L 4.65625 -9.5625 Z M 6.09375 -9.5625 "/></g></g></g><g fill="#000000" fill-opacity="1"><g transform="translate(210.368151, 61.147599)"><g><path d="M 6.09375 -9.5625 C 8.3125 -9.5625 9.9375 -9.132812 10.96875 -8.28125 C 12.007812 -7.425781 12.53125 -6.269531 12.53125 -4.8125 C 12.53125 -3.863281 12.300781 -3.007812 11.84375 -2.25 C 11.382812 -1.488281 10.6875 -0.878906 9.75 -0.421875 C 8.8125 0.0234375 7.65625 0.25 6.28125 0.25 C 5.1875 0.25 4.113281 0.09375 3.0625 -0.21875 C 2.019531 -0.53125 1.140625 -0.957031 0.421875 -1.5 L 1.6875 -3.90625 C 2.25 -3.425781 2.925781 -3.054688 3.71875 -2.796875 C 4.507812 -2.546875 5.332031 -2.421875 6.1875 -2.421875 C 7.1875 -2.421875 7.960938 -2.625 8.515625 -3.03125 C 9.078125 -3.4375 9.359375 -3.992188 9.359375 -4.703125 C 9.359375 -5.453125 9.0625 -6.019531 8.46875 -6.40625 C 7.875 -6.800781 6.847656 -7 5.390625 -7 L 1.578125 -7 L 2.375 -15.515625 L 11.59375 -15.515625 L 11.59375 -12.984375 L 4.96875 -12.984375 L 4.65625 -9.5625 Z M 6.09375 -9.5625 "/></g></g></g><g fill="#000000" fill-opacity="1"><g transform="translate(223.673281, 61.147599)"><g><path d="M 12.453125 0 L 0.9375 0 L 0.9375 -2.046875 L 7.03125 -7.875 C 7.707031 -8.519531 8.160156 -9.078125 8.390625 -9.546875 C 8.628906 -10.015625 8.75 -10.484375 8.75 -10.953125 C 8.75 -11.628906 8.515625 -12.160156 8.046875 -12.546875 C 7.585938 -12.929688 6.910156 -13.125 6.015625 -13.125 C 4.515625 -13.125 3.359375 -12.582031 2.546875 -11.5 L 0.28125 -13.015625 C 0.894531 -13.867188 1.71875 -14.539062 2.75 -15.03125 C 3.78125 -15.519531 4.960938 -15.765625 6.296875 -15.765625 C 7.421875 -15.765625 8.40625 -15.582031 9.25 -15.21875 C 10.09375 -14.851562 10.742188 -14.332031 11.203125 -13.65625 C 11.671875 -12.976562 11.90625 -12.179688 11.90625 -11.265625 C 11.90625 -10.429688 11.726562 -9.644531 11.375 -8.90625 C 11.019531 -8.164062 10.335938 -7.328125 9.328125 -6.390625 L 5.34375 -2.578125 L 12.453125 -2.578125 Z M 12.453125 0 "/></g></g></g><g fill="#000000" fill-opacity="1"><g transform="translate(236.978411, 61.147599)"><g><path d="M 10.515625 -8.15625 C 11.335938 -7.789062 11.96875 -7.289062 12.40625 -6.65625 C 12.851562 -6.03125 13.078125 -5.296875 13.078125 -4.453125 C 13.078125 -3.503906 12.8125 -2.675781 12.28125 -1.96875 C 11.75 -1.257812 10.992188 -0.710938 10.015625 -0.328125 C 9.046875 0.0546875 7.914062 0.25 6.625 0.25 C 5.34375 0.25 4.21875 0.0546875 3.25 -0.328125 C 2.289062 -0.710938 1.550781 -1.257812 1.03125 -1.96875 C 0.507812 -2.675781 0.25 -3.503906 0.25 -4.453125 C 0.25 -5.296875 0.460938 -6.03125 0.890625 -6.65625 C 1.328125 -7.289062 1.953125 -7.789062 2.765625 -8.15625 C 2.128906 -8.5 1.640625 -8.945312 1.296875 -9.5 C 0.960938 -10.050781 0.796875 -10.679688 0.796875 -11.390625 C 0.796875 -12.273438 1.039062 -13.046875 1.53125 -13.703125 C 2.019531 -14.367188 2.703125 -14.878906 3.578125 -15.234375 C 4.460938 -15.585938 5.476562 -15.765625 6.625 -15.765625 C 7.789062 -15.765625 8.816406 -15.585938 9.703125 -15.234375 C 10.597656 -14.878906 11.289062 -14.367188 11.78125 -13.703125 C 12.28125 -13.046875 12.53125 -12.273438 12.53125 -11.390625 C 12.53125 -10.679688 12.351562 -10.050781 12 -9.5 C 11.65625 -8.945312 11.160156 -8.5 10.515625 -8.15625 Z M 6.625 -13.4375 C 5.78125 -13.4375 5.113281 -13.242188 4.625 -12.859375 C 4.144531 -12.472656 3.90625 -11.941406 3.90625 -11.265625 C 3.90625 -10.609375 4.144531 -10.09375 4.625 -9.71875 C 5.113281 -9.34375 5.78125 -9.15625 6.625 -9.15625 C 7.488281 -9.15625 8.171875 -9.34375 8.671875 -9.71875 C 9.171875 -10.09375 9.421875 -10.609375 9.421875 -11.265625 C 9.421875 -11.929688 9.164062 -12.457031 8.65625 -12.84375 C 8.144531 -13.238281 7.46875 -13.4375 6.625 -13.4375 Z M 6.625 -2.078125 C 7.644531 -2.078125 8.445312 -2.300781 9.03125 -2.75 C 9.613281 -3.195312 9.90625 -3.796875 9.90625 -4.546875 C 9.90625 -5.296875 9.613281 -5.890625 9.03125 -6.328125 C 8.445312 -6.765625 7.644531 -6.984375 6.625 -6.984375 C 5.625 -6.984375 4.832031 -6.765625 4.25 -6.328125 C 3.675781 -5.890625 3.390625 -5.296875 3.390625 -4.546875 C 3.390625 -3.796875 3.679688 -3.195312 4.265625 -2.75 C 4.847656 -2.300781 5.632812 -2.078125 6.625 -2.078125 Z M 6.625 -2.078125 "/></g></g></g><g fill="#000000" fill-opacity="1"><g transform="translate(250.28354, 61.147599)"><g/></g></g><g fill="#000000" fill-opacity="1"><g transform="translate(254.67423, 61.147599)"><g><path d="M 12.453125 0 L 0.9375 0 L 0.9375 -2.046875 L 7.03125 -7.875 C 7.707031 -8.519531 8.160156 -9.078125 8.390625 -9.546875 C 8.628906 -10.015625 8.75 -10.484375 8.75 -10.953125 C 8.75 -11.628906 8.515625 -12.160156 8.046875 -12.546875 C 7.585938 -12.929688 6.910156 -13.125 6.015625 -13.125 C 4.515625 -13.125 3.359375 -12.582031 2.546875 -11.5 L 0.28125 -13.015625 C 0.894531 -13.867188 1.71875 -14.539062 2.75 -15.03125 C 3.78125 -15.519531 4.960938 -15.765625 6.296875 -15.765625 C 7.421875 -15.765625 8.40625 -15.582031 9.25 -15.21875 C 10.09375 -14.851562 10.742188 -14.332031 11.203125 -13.65625 C 11.671875 -12.976562 11.90625 -12.179688 11.90625 -11.265625 C 11.90625 -10.429688 11.726562 -9.644531 11.375 -8.90625 C 11.019531 -8.164062 10.335938 -7.328125 9.328125 -6.390625 L 5.34375 -2.578125 L 12.453125 -2.578125 Z M 12.453125 0 "/></g></g></g><g fill="#000000" fill-opacity="1"><g transform="translate(267.97936, 61.147599)"><g><path d="M 6.046875 -15.765625 C 8.191406 -15.765625 9.863281 -15.09375 11.0625 -13.75 C 12.257812 -12.414062 12.859375 -10.515625 12.859375 -8.046875 C 12.859375 -6.304688 12.535156 -4.8125 11.890625 -3.5625 C 11.253906 -2.3125 10.347656 -1.363281 9.171875 -0.71875 C 8.003906 -0.0703125 6.65625 0.25 5.125 0.25 C 4.320312 0.25 3.5625 0.160156 2.84375 -0.015625 C 2.132812 -0.191406 1.507812 -0.445312 0.96875 -0.78125 L 2.15625 -3.109375 C 2.894531 -2.585938 3.867188 -2.328125 5.078125 -2.328125 C 6.285156 -2.328125 7.273438 -2.644531 8.046875 -3.28125 C 8.828125 -3.925781 9.320312 -4.863281 9.53125 -6.09375 C 9.632812 -6.65625 9.679688 -7.175781 9.671875 -7.65625 C 9.253906 -7.09375 8.691406 -6.65625 7.984375 -6.34375 C 7.285156 -6.039062 6.492188 -5.890625 5.609375 -5.890625 C 4.597656 -5.890625 3.691406 -6.085938 2.890625 -6.484375 C 2.085938 -6.890625 1.457031 -7.453125 1 -8.171875 C 0.539062 -8.898438 0.3125 -9.738281 0.3125 -10.6875 C 0.3125 -11.6875 0.5625 -12.570312 1.0625 -13.34375 C 1.5625 -14.113281 2.25 -14.707031 3.125 -15.125 C 4 -15.550781 4.972656 -15.765625 6.046875 -15.765625 Z M 6.296875 -8.25 C 7.171875 -8.25 7.882812 -8.488281 8.4375 -8.96875 C 8.988281 -9.457031 9.265625 -10.082031 9.265625 -10.84375 C 9.265625 -11.582031 8.992188 -12.191406 8.453125 -12.671875 C 7.921875 -13.148438 7.179688 -13.390625 6.234375 -13.390625 C 5.367188 -13.390625 4.671875 -13.160156 4.140625 -12.703125 C 3.609375 -12.242188 3.34375 -11.625 3.34375 -10.84375 C 3.34375 -10.0625 3.609375 -9.429688 4.140625 -8.953125 C 4.671875 -8.484375 5.390625 -8.25 6.296875 -8.25 Z M 6.296875 -8.25 "/></g></g></g><g fill="#000000" fill-opacity="1"><g transform="translate(281.28449, 61.147599)"><g><path d="M 12.453125 0 L 0.9375 0 L 0.9375 -2.046875 L 7.03125 -7.875 C 7.707031 -8.519531 8.160156 -9.078125 8.390625 -9.546875 C 8.628906 -10.015625 8.75 -10.484375 8.75 -10.953125 C 8.75 -11.628906 8.515625 -12.160156 8.046875 -12.546875 C 7.585938 -12.929688 6.910156 -13.125 6.015625 -13.125 C 4.515625 -13.125 3.359375 -12.582031 2.546875 -11.5 L 0.28125 -13.015625 C 0.894531 -13.867188 1.71875 -14.539062 2.75 -15.03125 C 3.78125 -15.519531 4.960938 -15.765625 6.296875 -15.765625 C 7.421875 -15.765625 8.40625 -15.582031 9.25 -15.21875 C 10.09375 -14.851562 10.742188 -14.332031 11.203125 -13.65625 C 11.671875 -12.976562 11.90625 -12.179688 11.90625 -11.265625 C 11.90625 -10.429688 11.726562 -9.644531 11.375 -8.90625 C 11.019531 -8.164062 10.335938 -7.328125 9.328125 -6.390625 L 5.34375 -2.578125 L 12.453125 -2.578125 Z M 12.453125 0 "/></g></g></g><g fill="#000000" fill-opacity="1"><g transform="translate(294.58962, 61.147599)"><g><path d="M 11.328125 -3.453125 L 11.328125 0 L 8.296875 0 L 8.296875 -3.453125 L -0.15625 -3.453125 L -0.15625 -5.5625 L 7.359375 -15.515625 L 10.65625 -15.515625 L 3.59375 -6.03125 L 8.375 -6.03125 L 8.375 -9.09375 L 11.328125 -9.09375 L 11.328125 -6.03125 L 14.015625 -6.03125 L 14.015625 -3.453125 Z M 11.328125 -3.453125 "/></g></g></g><g fill="#000000" fill-opacity="1"><g transform="translate(49.021034, 118.548475)"><g><path d="M 12.65625 0 L 1.484375 0 L 1.484375 -15.515625 L 12.375 -15.515625 L 12.375 -12.984375 L 4.4375 -12.984375 L 4.4375 -9.109375 L 11.46875 -9.109375 L 11.46875 -6.65625 L 4.4375 -6.65625 L 4.4375 -2.53125 L 12.65625 -2.53125 Z M 12.65625 0 "/></g></g></g><g fill="#000000" fill-opacity="1"><g transform="translate(62.370514, 118.548475)"><g/></g></g><g fill="#000000" fill-opacity="1"><g transform="translate(66.761204, 118.548475)"><g><path d="M 7.359375 -8.984375 L 7.359375 -6.5625 L 1.203125 -6.5625 L 1.203125 -8.984375 Z M 7.359375 -8.984375 "/></g></g></g><g fill="#000000" fill-opacity="1"><g transform="translate(75.298662, 118.548475)"><g/></g></g><g fill="#000000" fill-opacity="1"><g transform="translate(79.689352, 118.548475)"><g><path d="M 15.734375 -12.015625 C 17.140625 -12.015625 18.253906 -11.578125 19.078125 -10.703125 C 19.910156 -9.835938 20.328125 -8.546875 20.328125 -6.828125 L 20.328125 0 L 17.46875 0 L 17.46875 -6.359375 C 17.46875 -7.367188 17.253906 -8.128906 16.828125 -8.640625 C 16.410156 -9.148438 15.828125 -9.40625 15.078125 -9.40625 C 14.203125 -9.40625 13.515625 -9.113281 13.015625 -8.53125 C 12.515625 -7.957031 12.265625 -7.125 12.265625 -6.03125 L 12.265625 0 L 9.421875 0 L 9.421875 -6.359375 C 9.421875 -7.378906 9.210938 -8.140625 8.796875 -8.640625 C 8.390625 -9.148438 7.800781 -9.40625 7.03125 -9.40625 C 6.164062 -9.40625 5.484375 -9.113281 4.984375 -8.53125 C 4.484375 -7.957031 4.234375 -7.125 4.234375 -6.03125 L 4.234375 0 L 1.375 0 L 1.375 -11.859375 L 4.09375 -11.859375 L 4.09375 -10.265625 C 4.507812 -10.828125 5.035156 -11.257812 5.671875 -11.5625 C 6.304688 -11.863281 7.015625 -12.015625 7.796875 -12.015625 C 8.640625 -12.015625 9.390625 -11.832031 10.046875 -11.46875 C 10.710938 -11.113281 11.226562 -10.585938 11.59375 -9.890625 C 12.039062 -10.554688 12.617188 -11.078125 13.328125 -11.453125 C 14.046875 -11.828125 14.847656 -12.015625 15.734375 -12.015625 Z M 15.734375 -12.015625 "/></g></g></g><g fill="#000000" fill-opacity="1"><g transform="translate(101.332368, 118.548475)"><g><path d="M 5.859375 -12.015625 C 7.535156 -12.015625 8.820312 -11.585938 9.71875 -10.734375 C 10.613281 -9.890625 11.0625 -8.617188 11.0625 -6.921875 L 11.0625 0 L 8.375 0 L 8.375 -1.625 C 8.070312 -1.039062 7.617188 -0.597656 7.015625 -0.296875 C 6.421875 0.00390625 5.691406 0.15625 4.828125 0.15625 C 3.546875 0.15625 2.523438 -0.171875 1.765625 -0.828125 C 1.015625 -1.484375 0.640625 -2.335938 0.640625 -3.390625 C 0.640625 -4.472656 1.023438 -5.328125 1.796875 -5.953125 C 2.566406 -6.578125 3.753906 -6.890625 5.359375 -6.890625 L 8.203125 -6.890625 C 8.203125 -7.398438 8.128906 -7.804688 7.984375 -8.109375 C 7.640625 -9.117188 6.800781 -9.625 5.46875 -9.625 C 4.832031 -9.625 4.21875 -9.515625 3.625 -9.296875 C 3.03125 -9.085938 2.515625 -8.796875 2.078125 -8.421875 L 1.046875 -10.53125 C 1.648438 -11 2.375 -11.363281 3.21875 -11.625 C 4.070312 -11.882812 4.953125 -12.015625 5.859375 -12.015625 Z M 5.515625 -1.90625 C 6.148438 -1.90625 6.703125 -2.054688 7.171875 -2.359375 C 7.640625 -2.660156 7.984375 -3.109375 8.203125 -3.703125 L 8.203125 -5.09375 L 5.671875 -5.09375 C 4.179688 -5.09375 3.4375 -4.570312 3.4375 -3.53125 C 3.4375 -3.039062 3.617188 -2.644531 3.984375 -2.34375 C 4.359375 -2.050781 4.867188 -1.90625 5.515625 -1.90625 Z M 5.515625 -1.90625 "/></g></g></g><g fill="#000000" fill-opacity="1"><g transform="translate(113.750488, 118.548475)"><g><path d="M 2.859375 -13.75 C 2.328125 -13.75 1.882812 -13.914062 1.53125 -14.25 C 1.1875 -14.582031 1.015625 -14.988281 1.015625 -15.46875 C 1.015625 -15.957031 1.1875 -16.367188 1.53125 -16.703125 C 1.882812 -17.035156 2.328125 -17.203125 2.859375 -17.203125 C 3.390625 -17.203125 3.820312 -17.039062 4.15625 -16.71875 C 4.5 -16.40625 4.671875 -16.003906 4.671875 -15.515625 C 4.671875 -15.003906 4.5 -14.582031 4.15625 -14.25 C 3.820312 -13.914062 3.390625 -13.75 2.859375 -13.75 Z M 4.296875 -11.859375 L 4.296875 0 L 1.421875 0 L 1.421875 -11.859375 Z M 4.296875 -11.859375 "/></g></g></g><g fill="#000000" fill-opacity="1"><g transform="translate(119.493868, 118.548475)"><g><path d="M 4.296875 -16.453125 L 4.296875 0 L 1.421875 0 L 1.421875 -16.453125 Z M 4.296875 -16.453125 "/></g></g></g><g fill="#000000" fill-opacity="1"><g transform="translate(125.237248, 118.548475)"><g/></g></g><g fill="#000000" fill-opacity="1"><g transform="translate(129.627938, 118.548475)"><g><path d="M 4.296875 -16.453125 L 4.296875 0 L 1.421875 0 L 1.421875 -16.453125 Z M 4.296875 -16.453125 "/></g></g></g><g fill="#000000" fill-opacity="1"><g transform="translate(135.371318, 118.548475)"><g><path d="M 4.296875 -16.453125 L 4.296875 0 L 1.421875 0 L 1.421875 -16.453125 Z M 4.296875 -16.453125 "/></g></g></g><g fill="#000000" fill-opacity="1"><g transform="translate(141.114698, 118.548475)"><g><path d="M 5.859375 -12.015625 C 7.535156 -12.015625 8.820312 -11.585938 9.71875 -10.734375 C 10.613281 -9.890625 11.0625 -8.617188 11.0625 -6.921875 L 11.0625 0 L 8.375 0 L 8.375 -1.625 C 8.070312 -1.039062 7.617188 -0.597656 7.015625 -0.296875 C 6.421875 0.00390625 5.691406 0.15625 4.828125 0.15625 C 3.546875 0.15625 2.523438 -0.171875 1.765625 -0.828125 C 1.015625 -1.484375 0.640625 -2.335938 0.640625 -3.390625 C 0.640625 -4.472656 1.023438 -5.328125 1.796875 -5.953125 C 2.566406 -6.578125 3.753906 -6.890625 5.359375 -6.890625 L 8.203125 -6.890625 C 8.203125 -7.398438 8.128906 -7.804688 7.984375 -8.109375 C 7.640625 -9.117188 6.800781 -9.625 5.46875 -9.625 C 4.832031 -9.625 4.21875 -9.515625 3.625 -9.296875 C 3.03125 -9.085938 2.515625 -8.796875 2.078125 -8.421875 L 1.046875 -10.53125 C 1.648438 -11 2.375 -11.363281 3.21875 -11.625 C 4.070312 -11.882812 4.953125 -12.015625 5.859375 -12.015625 Z M 5.515625 -1.90625 C 6.148438 -1.90625 6.703125 -2.054688 7.171875 -2.359375 C 7.640625 -2.660156 7.984375 -3.109375 8.203125 -3.703125 L 8.203125 -5.09375 L 5.671875 -5.09375 C 4.179688 -5.09375 3.4375 -4.570312 3.4375 -3.53125 C 3.4375 -3.039062 3.617188 -2.644531 3.984375 -2.34375 C 4.359375 -2.050781 4.867188 -1.90625 5.515625 -1.90625 Z M 5.515625 -1.90625 "/></g></g></g><g fill="#000000" fill-opacity="1"><g transform="translate(153.532817, 118.548475)"><g><path d="M 7.984375 -12.015625 C 9.390625 -12.015625 10.515625 -11.578125 11.359375 -10.703125 C 12.210938 -9.835938 12.640625 -8.546875 12.640625 -6.828125 L 12.640625 0 L 9.78125 0 L 9.78125 -6.359375 C 9.78125 -7.378906 9.5625 -8.140625 9.125 -8.640625 C 8.6875 -9.148438 8.054688 -9.40625 7.234375 -9.40625 C 6.316406 -9.40625 5.585938 -9.109375 5.046875 -8.515625 C 4.503906 -7.921875 4.234375 -7.070312 4.234375 -5.96875 L 4.234375 0 L 1.375 0 L 1.375 -11.859375 L 4.09375 -11.859375 L 4.09375 -10.25 C 4.53125 -10.800781 5.082031 -11.234375 5.75 -11.546875 C 6.425781 -11.859375 7.171875 -12.015625 7.984375 -12.015625 Z M 7.984375 -12.015625 "/></g></g></g><g fill="#000000" fill-opacity="1"><g transform="translate(167.481024, 118.548475)"><g><path d="M 15.734375 -12.015625 C 17.140625 -12.015625 18.253906 -11.578125 19.078125 -10.703125 C 19.910156 -9.835938 20.328125 -8.546875 20.328125 -6.828125 L 20.328125 0 L 17.46875 0 L 17.46875 -6.359375 C 17.46875 -7.367188 17.253906 -8.128906 16.828125 -8.640625 C 16.410156 -9.148438 15.828125 -9.40625 15.078125 -9.40625 C 14.203125 -9.40625 13.515625 -9.113281 13.015625 -8.53125 C 12.515625 -7.957031 12.265625 -7.125 12.265625 -6.03125 L 12.265625 0 L 9.421875 0 L 9.421875 -6.359375 C 9.421875 -7.378906 9.210938 -8.140625 8.796875 -8.640625 C 8.390625 -9.148438 7.800781 -9.40625 7.03125 -9.40625 C 6.164062 -9.40625 5.484375 -9.113281 4.984375 -8.53125 C 4.484375 -7.957031 4.234375 -7.125 4.234375 -6.03125 L 4.234375 0 L 1.375 0 L 1.375 -11.859375 L 4.09375 -11.859375 L 4.09375 -10.265625 C 4.507812 -10.828125 5.035156 -11.257812 5.671875 -11.5625 C 6.304688 -11.863281 7.015625 -12.015625 7.796875 -12.015625 C 8.640625 -12.015625 9.390625 -11.832031 10.046875 -11.46875 C 10.710938 -11.113281 11.226562 -10.585938 11.59375 -9.890625 C 12.039062 -10.554688 12.617188 -11.078125 13.328125 -11.453125 C 14.046875 -11.828125 14.847656 -12.015625 15.734375 -12.015625 Z M 15.734375 -12.015625 "/></g></g></g><g fill="#000000" fill-opacity="1"><g transform="translate(189.12404, 118.548475)"><g><path d="M 2.859375 -13.75 C 2.328125 -13.75 1.882812 -13.914062 1.53125 -14.25 C 1.1875 -14.582031 1.015625 -14.988281 1.015625 -15.46875 C 1.015625 -15.957031 1.1875 -16.367188 1.53125 -16.703125 C 1.882812 -17.035156 2.328125 -17.203125 2.859375 -17.203125 C 3.390625 -17.203125 3.820312 -17.039062 4.15625 -16.71875 C 4.5 -16.40625 4.671875 -16.003906 4.671875 -15.515625 C 4.671875 -15.003906 4.5 -14.582031 4.15625 -14.25 C 3.820312 -13.914062 3.390625 -13.75 2.859375 -13.75 Z M 4.296875 -11.859375 L 4.296875 0 L 1.421875 0 L 1.421875 -11.859375 Z M 4.296875 -11.859375 "/></g></g></g><g fill="#000000" fill-opacity="1"><g transform="translate(194.86742, 118.548475)"><g><path d="M 7.984375 -12.015625 C 9.390625 -12.015625 10.515625 -11.578125 11.359375 -10.703125 C 12.210938 -9.835938 12.640625 -8.546875 12.640625 -6.828125 L 12.640625 0 L 9.78125 0 L 9.78125 -6.359375 C 9.78125 -7.378906 9.5625 -8.140625 9.125 -8.640625 C 8.6875 -9.148438 8.054688 -9.40625 7.234375 -9.40625 C 6.316406 -9.40625 5.585938 -9.109375 5.046875 -8.515625 C 4.503906 -7.921875 4.234375 -7.070312 4.234375 -5.96875 L 4.234375 0 L 1.375 0 L 1.375 -11.859375 L 4.09375 -11.859375 L 4.09375 -10.25 C 4.53125 -10.800781 5.082031 -11.234375 5.75 -11.546875 C 6.425781 -11.859375 7.171875 -12.015625 7.984375 -12.015625 Z M 7.984375 -12.015625 "/></g></g></g><g fill="#000000" fill-opacity="1"><g transform="translate(208.815627, 118.548475)"><g><path d="M 5.859375 -12.015625 C 7.535156 -12.015625 8.820312 -11.585938 9.71875 -10.734375 C 10.613281 -9.890625 11.0625 -8.617188 11.0625 -6.921875 L 11.0625 0 L 8.375 0 L 8.375 -1.625 C 8.070312 -1.039062 7.617188 -0.597656 7.015625 -0.296875 C 6.421875 0.00390625 5.691406 0.15625 4.828125 0.15625 C 3.546875 0.15625 2.523438 -0.171875 1.765625 -0.828125 C 1.015625 -1.484375 0.640625 -2.335938 0.640625 -3.390625 C 0.640625 -4.472656 1.023438 -5.328125 1.796875 -5.953125 C 2.566406 -6.578125 3.753906 -6.890625 5.359375 -6.890625 L 8.203125 -6.890625 C 8.203125 -7.398438 8.128906 -7.804688 7.984375 -8.109375 C 7.640625 -9.117188 6.800781 -9.625 5.46875 -9.625 C 4.832031 -9.625 4.21875 -9.515625 3.625 -9.296875 C 3.03125 -9.085938 2.515625 -8.796875 2.078125 -8.421875 L 1.046875 -10.53125 C 1.648438 -11 2.375 -11.363281 3.21875 -11.625 C 4.070312 -11.882812 4.953125 -12.015625 5.859375 -12.015625 Z M 5.515625 -1.90625 C 6.148438 -1.90625 6.703125 -2.054688 7.171875 -2.359375 C 7.640625 -2.660156 7.984375 -3.109375 8.203125 -3.703125 L 8.203125 -5.09375 L 5.671875 -5.09375 C 4.179688 -5.09375 3.4375 -4.570312 3.4375 -3.53125 C 3.4375 -3.039062 3.617188 -2.644531 3.984375 -2.34375 C 4.359375 -2.050781 4.867188 -1.90625 5.515625 -1.90625 Z M 5.515625 -1.90625 "/></g></g></g><g fill="#000000" fill-opacity="1"><g transform="translate(221.233747, 118.548475)"><g><path d="M 4.296875 -16.453125 L 4.296875 0 L 1.421875 0 L 1.421875 -16.453125 Z M 4.296875 -16.453125 "/></g></g></g><g fill="#000000" fill-opacity="1"><g transform="translate(226.977127, 118.548475)"><g><path d="M 4.296875 -16.453125 L 4.296875 0 L 1.421875 0 L 1.421875 -16.453125 Z M 4.296875 -16.453125 "/></g></g></g><g fill="#000000" fill-opacity="1"><g transform="translate(232.720507, 118.548475)"><g><path d="M 11.578125 -15.71875 C 13.597656 -15.71875 15.398438 -15.300781 16.984375 -14.46875 C 18.578125 -13.632812 19.8125 -12.476562 20.6875 -11 C 21.570312 -9.53125 22.015625 -7.875 22.015625 -6.03125 C 22.015625 -4.738281 21.832031 -3.628906 21.46875 -2.703125 C 21.101562 -1.785156 20.597656 -1.082031 19.953125 -0.59375 C 19.304688 -0.101562 18.550781 0.140625 17.6875 0.140625 C 17.007812 0.140625 16.429688 -0.00390625 15.953125 -0.296875 C 15.472656 -0.585938 15.117188 -1.003906 14.890625 -1.546875 L 14.78125 -2 C 14.382812 -1.3125 13.847656 -0.78125 13.171875 -0.40625 C 12.492188 -0.0390625 11.703125 0.140625 10.796875 0.140625 C 9.835938 0.140625 8.960938 -0.09375 8.171875 -0.5625 C 7.378906 -1.039062 6.753906 -1.707031 6.296875 -2.5625 C 5.835938 -3.425781 5.609375 -4.40625 5.609375 -5.5 C 5.609375 -6.59375 5.835938 -7.566406 6.296875 -8.421875 C 6.753906 -9.273438 7.375 -9.9375 8.15625 -10.40625 C 8.9375 -10.882812 9.816406 -11.125 10.796875 -11.125 C 11.597656 -11.125 12.304688 -10.972656 12.921875 -10.671875 C 13.546875 -10.367188 14.066406 -9.9375 14.484375 -9.375 L 14.484375 -10.96875 L 17.109375 -10.96875 L 17.109375 -3.484375 C 17.109375 -2.503906 17.488281 -2.015625 18.25 -2.015625 C 18.8125 -2.015625 19.25 -2.347656 19.5625 -3.015625 C 19.882812 -3.691406 20.046875 -4.679688 20.046875 -5.984375 C 20.046875 -7.523438 19.6875 -8.894531 18.96875 -10.09375 C 18.257812 -11.289062 17.265625 -12.21875 15.984375 -12.875 C 14.703125 -13.53125 13.234375 -13.859375 11.578125 -13.859375 C 9.921875 -13.859375 8.445312 -13.503906 7.15625 -12.796875 C 5.875 -12.097656 4.878906 -11.125 4.171875 -9.875 C 3.460938 -8.625 3.109375 -7.207031 3.109375 -5.625 C 3.109375 -4.019531 3.453125 -2.59375 4.140625 -1.34375 C 4.835938 -0.09375 5.820312 0.878906 7.09375 1.578125 C 8.363281 2.285156 9.828125 2.640625 11.484375 2.640625 C 12.222656 2.640625 12.960938 2.554688 13.703125 2.390625 C 14.453125 2.234375 15.160156 1.988281 15.828125 1.65625 L 16.46875 3.484375 C 15.820312 3.816406 15.046875 4.070312 14.140625 4.25 C 13.242188 4.425781 12.359375 4.515625 11.484375 4.515625 C 9.410156 4.515625 7.570312 4.078125 5.96875 3.203125 C 4.363281 2.335938 3.125 1.132812 2.25 -0.40625 C 1.375 -1.957031 0.9375 -3.695312 0.9375 -5.625 C 0.9375 -7.550781 1.378906 -9.28125 2.265625 -10.8125 C 3.160156 -12.34375 4.414062 -13.539062 6.03125 -14.40625 C 7.644531 -15.28125 9.492188 -15.71875 11.578125 -15.71875 Z M 11.390625 -2.109375 C 12.304688 -2.109375 13.050781 -2.410156 13.625 -3.015625 C 14.207031 -3.617188 14.5 -4.445312 14.5 -5.5 C 14.5 -6.53125 14.207031 -7.347656 13.625 -7.953125 C 13.050781 -8.566406 12.304688 -8.875 11.390625 -8.875 C 10.472656 -8.875 9.726562 -8.566406 9.15625 -7.953125 C 8.582031 -7.347656 8.296875 -6.53125 8.296875 -5.5 C 8.296875 -4.46875 8.582031 -3.644531 9.15625 -3.03125 C 9.726562 -2.414062 10.472656 -2.109375 11.390625 -2.109375 Z M 11.390625 -2.109375 "/></g></g></g><g fill="#000000" fill-opacity="1"><g transform="translate(255.671852, 118.548475)"><g><path d="M 8.03125 -12.015625 C 9.425781 -12.015625 10.550781 -11.578125 11.40625 -10.703125 C 12.257812 -9.835938 12.6875 -8.546875 12.6875 -6.828125 L 12.6875 0 L 9.828125 0 L 9.828125 -6.359375 C 9.828125 -7.378906 9.609375 -8.140625 9.171875 -8.640625 C 8.734375 -9.148438 8.097656 -9.40625 7.265625 -9.40625 C 6.367188 -9.40625 5.648438 -9.109375 5.109375 -8.515625 C 4.566406 -7.921875 4.296875 -7.070312 4.296875 -5.96875 L 4.296875 0 L 1.421875 0 L 1.421875 -16.453125 L 4.296875 -16.453125 L 4.296875 -10.375 C 4.722656 -10.90625 5.257812 -11.3125 5.90625 -11.59375 C 6.550781 -11.875 7.257812 -12.015625 8.03125 -12.015625 Z M 8.03125 -12.015625 "/></g></g></g><g fill="#000000" fill-opacity="1"><g transform="translate(269.708781, 118.548475)"><g><path d="M 5.859375 -12.015625 C 7.535156 -12.015625 8.820312 -11.585938 9.71875 -10.734375 C 10.613281 -9.890625 11.0625 -8.617188 11.0625 -6.921875 L 11.0625 0 L 8.375 0 L 8.375 -1.625 C 8.070312 -1.039062 7.617188 -0.597656 7.015625 -0.296875 C 6.421875 0.00390625 5.691406 0.15625 4.828125 0.15625 C 3.546875 0.15625 2.523438 -0.171875 1.765625 -0.828125 C 1.015625 -1.484375 0.640625 -2.335938 0.640625 -3.390625 C 0.640625 -4.472656 1.023438 -5.328125 1.796875 -5.953125 C 2.566406 -6.578125 3.753906 -6.890625 5.359375 -6.890625 L 8.203125 -6.890625 C 8.203125 -7.398438 8.128906 -7.804688 7.984375 -8.109375 C 7.640625 -9.117188 6.800781 -9.625 5.46875 -9.625 C 4.832031 -9.625 4.21875 -9.515625 3.625 -9.296875 C 3.03125 -9.085938 2.515625 -8.796875 2.078125 -8.421875 L 1.046875 -10.53125 C 1.648438 -11 2.375 -11.363281 3.21875 -11.625 C 4.070312 -11.882812 4.953125 -12.015625 5.859375 -12.015625 Z M 5.515625 -1.90625 C 6.148438 -1.90625 6.703125 -2.054688 7.171875 -2.359375 C 7.640625 -2.660156 7.984375 -3.109375 8.203125 -3.703125 L 8.203125 -5.09375 L 5.671875 -5.09375 C 4.179688 -5.09375 3.4375 -4.570312 3.4375 -3.53125 C 3.4375 -3.039062 3.617188 -2.644531 3.984375 -2.34375 C 4.359375 -2.050781 4.867188 -1.90625 5.515625 -1.90625 Z M 5.515625 -1.90625 "/></g></g></g><g fill="#000000" fill-opacity="1"><g transform="translate(282.1269, 118.548475)"><g><path d="M 7.984375 -12.015625 C 9.390625 -12.015625 10.515625 -11.578125 11.359375 -10.703125 C 12.210938 -9.835938 12.640625 -8.546875 12.640625 -6.828125 L 12.640625 0 L 9.78125 0 L 9.78125 -6.359375 C 9.78125 -7.378906 9.5625 -8.140625 9.125 -8.640625 C 8.6875 -9.148438 8.054688 -9.40625 7.234375 -9.40625 C 6.316406 -9.40625 5.585938 -9.109375 5.046875 -8.515625 C 4.503906 -7.921875 4.234375 -7.070312 4.234375 -5.96875 L 4.234375 0 L 1.375 0 L 1.375 -11.859375 L 4.09375 -11.859375 L 4.09375 -10.25 C 4.53125 -10.800781 5.082031 -11.234375 5.75 -11.546875 C 6.425781 -11.859375 7.171875 -12.015625 7.984375 -12.015625 Z M 7.984375 -12.015625 "/></g></g></g><g fill="#000000" fill-opacity="1"><g transform="translate(296.075107, 118.548475)"><g><path d="M 15.734375 -12.015625 C 17.140625 -12.015625 18.253906 -11.578125 19.078125 -10.703125 C 19.910156 -9.835938 20.328125 -8.546875 20.328125 -6.828125 L 20.328125 0 L 17.46875 0 L 17.46875 -6.359375 C 17.46875 -7.367188 17.253906 -8.128906 16.828125 -8.640625 C 16.410156 -9.148438 15.828125 -9.40625 15.078125 -9.40625 C 14.203125 -9.40625 13.515625 -9.113281 13.015625 -8.53125 C 12.515625 -7.957031 12.265625 -7.125 12.265625 -6.03125 L 12.265625 0 L 9.421875 0 L 9.421875 -6.359375 C 9.421875 -7.378906 9.210938 -8.140625 8.796875 -8.640625 C 8.390625 -9.148438 7.800781 -9.40625 7.03125 -9.40625 C 6.164062 -9.40625 5.484375 -9.113281 4.984375 -8.53125 C 4.484375 -7.957031 4.234375 -7.125 4.234375 -6.03125 L 4.234375 0 L 1.375 0 L 1.375 -11.859375 L 4.09375 -11.859375 L 4.09375 -10.265625 C 4.507812 -10.828125 5.035156 -11.257812 5.671875 -11.5625 C 6.304688 -11.863281 7.015625 -12.015625 7.796875 -12.015625 C 8.640625 -12.015625 9.390625 -11.832031 10.046875 -11.46875 C 10.710938 -11.113281 11.226562 -10.585938 11.59375 -9.890625 C 12.039062 -10.554688 12.617188 -11.078125 13.328125 -11.453125 C 14.046875 -11.828125 14.847656 -12.015625 15.734375 -12.015625 Z M 15.734375 -12.015625 "/></g></g></g><g fill="#000000" fill-opacity="1"><g transform="translate(317.718123, 118.548475)"><g><path d="M 5.859375 -12.015625 C 7.535156 -12.015625 8.820312 -11.585938 9.71875 -10.734375 C 10.613281 -9.890625 11.0625 -8.617188 11.0625 -6.921875 L 11.0625 0 L 8.375 0 L 8.375 -1.625 C 8.070312 -1.039062 7.617188 -0.597656 7.015625 -0.296875 C 6.421875 0.00390625 5.691406 0.15625 4.828125 0.15625 C 3.546875 0.15625 2.523438 -0.171875 1.765625 -0.828125 C 1.015625 -1.484375 0.640625 -2.335938 0.640625 -3.390625 C 0.640625 -4.472656 1.023438 -5.328125 1.796875 -5.953125 C 2.566406 -6.578125 3.753906 -6.890625 5.359375 -6.890625 L 8.203125 -6.890625 C 8.203125 -7.398438 8.128906 -7.804688 7.984375 -8.109375 C 7.640625 -9.117188 6.800781 -9.625 5.46875 -9.625 C 4.832031 -9.625 4.21875 -9.515625 3.625 -9.296875 C 3.03125 -9.085938 2.515625 -8.796875 2.078125 -8.421875 L 1.046875 -10.53125 C 1.648438 -11 2.375 -11.363281 3.21875 -11.625 C 4.070312 -11.882812 4.953125 -12.015625 5.859375 -12.015625 Z M 5.515625 -1.90625 C 6.148438 -1.90625 6.703125 -2.054688 7.171875 -2.359375 C 7.640625 -2.660156 7.984375 -3.109375 8.203125 -3.703125 L 8.203125 -5.09375 L 5.671875 -5.09375 C 4.179688 -5.09375 3.4375 -4.570312 3.4375 -3.53125 C 3.4375 -3.039062 3.617188 -2.644531 3.984375 -2.34375 C 4.359375 -2.050781 4.867188 -1.90625 5.515625 -1.90625 Z M 5.515625 -1.90625 "/></g></g></g><g fill="#000000" fill-opacity="1"><g transform="translate(330.136242, 118.548475)"><g><path d="M 2.859375 -13.75 C 2.328125 -13.75 1.882812 -13.914062 1.53125 -14.25 C 1.1875 -14.582031 1.015625 -14.988281 1.015625 -15.46875 C 1.015625 -15.957031 1.1875 -16.367188 1.53125 -16.703125 C 1.882812 -17.035156 2.328125 -17.203125 2.859375 -17.203125 C 3.390625 -17.203125 3.820312 -17.039062 4.15625 -16.71875 C 4.5 -16.40625 4.671875 -16.003906 4.671875 -15.515625 C 4.671875 -15.003906 4.5 -14.582031 4.15625 -14.25 C 3.820312 -13.914062 3.390625 -13.75 2.859375 -13.75 Z M 4.296875 -11.859375 L 4.296875 0 L 1.421875 0 L 1.421875 -11.859375 Z M 4.296875 -11.859375 "/></g></g></g><g fill="#000000" fill-opacity="1"><g transform="translate(335.879634, 118.548475)"><g><path d="M 4.296875 -16.453125 L 4.296875 0 L 1.421875 0 L 1.421875 -16.453125 Z M 4.296875 -16.453125 "/></g></g></g><g fill="#000000" fill-opacity="1"><g transform="translate(341.623025, 118.548475)"><g><path d="M 2.765625 0.15625 C 2.222656 0.15625 1.765625 -0.0234375 1.390625 -0.390625 C 1.023438 -0.753906 0.84375 -1.21875 0.84375 -1.78125 C 0.84375 -2.332031 1.023438 -2.785156 1.390625 -3.140625 C 1.765625 -3.503906 2.222656 -3.6875 2.765625 -3.6875 C 3.316406 -3.6875 3.773438 -3.503906 4.140625 -3.140625 C 4.515625 -2.785156 4.703125 -2.332031 4.703125 -1.78125 C 4.703125 -1.21875 4.515625 -0.753906 4.140625 -0.390625 C 3.773438 -0.0234375 3.316406 0.15625 2.765625 0.15625 Z M 2.765625 0.15625 "/></g></g></g><g fill="#000000" fill-opacity="1"><g transform="translate(347.166833, 118.548475)"><g><path d="M 7.984375 -12.015625 C 9.390625 -12.015625 10.515625 -11.578125 11.359375 -10.703125 C 12.210938 -9.835938 12.640625 -8.546875 12.640625 -6.828125 L 12.640625 0 L 9.78125 0 L 9.78125 -6.359375 C 9.78125 -7.378906 9.5625 -8.140625 9.125 -8.640625 C 8.6875 -9.148438 8.054688 -9.40625 7.234375 -9.40625 C 6.316406 -9.40625 5.585938 -9.109375 5.046875 -8.515625 C 4.503906 -7.921875 4.234375 -7.070312 4.234375 -5.96875 L 4.234375 0 L 1.375 0 L 1.375 -11.859375 L 4.09375 -11.859375 L 4.09375 -10.25 C 4.53125 -10.800781 5.082031 -11.234375 5.75 -11.546875 C 6.425781 -11.859375 7.171875 -12.015625 7.984375 -12.015625 Z M 7.984375 -12.015625 "/></g></g></g><g fill="#000000" fill-opacity="1"><g transform="translate(361.11504, 118.548475)"><g><path d="M 12.1875 -5.921875 C 12.1875 -5.859375 12.164062 -5.582031 12.125 -5.09375 L 3.421875 -5.09375 C 3.546875 -4.226562 3.921875 -3.539062 4.546875 -3.03125 C 5.179688 -2.53125 5.972656 -2.28125 6.921875 -2.28125 C 8.117188 -2.28125 9.109375 -2.695312 9.890625 -3.53125 L 11.421875 -1.78125 C 10.335938 -0.488281 8.804688 0.15625 6.828125 0.15625 C 5.585938 0.15625 4.484375 -0.101562 3.515625 -0.625 C 2.554688 -1.15625 1.816406 -1.878906 1.296875 -2.796875 C 0.773438 -3.722656 0.515625 -4.769531 0.515625 -5.9375 C 0.515625 -7.101562 0.769531 -8.148438 1.28125 -9.078125 C 1.789062 -10.003906 2.492188 -10.722656 3.390625 -11.234375 C 4.296875 -11.753906 5.300781 -12.015625 6.40625 -12.015625 C 7.5 -12.015625 8.484375 -11.765625 9.359375 -11.265625 C 10.242188 -10.765625 10.9375 -10.054688 11.4375 -9.140625 C 11.9375 -8.222656 12.1875 -7.148438 12.1875 -5.921875 Z M 6.421875 -9.734375 C 5.609375 -9.734375 4.925781 -9.472656 4.375 -8.953125 C 3.820312 -8.441406 3.488281 -7.753906 3.375 -6.890625 L 9.484375 -6.890625 C 9.367188 -7.734375 9.035156 -8.414062 8.484375 -8.9375 C 7.929688 -9.46875 7.242188 -9.734375 6.421875 -9.734375 Z M 6.421875 -9.734375 "/></g></g></g><g fill="#000000" fill-opacity="1"><g transform="translate(373.821441, 118.548475)"><g><path d="M 8.375 -0.625 C 8.070312 -0.375 7.691406 -0.179688 7.234375 -0.046875 C 6.773438 0.0859375 6.289062 0.15625 5.78125 0.15625 C 4.507812 0.15625 3.523438 -0.1875 2.828125 -0.875 C 2.140625 -1.570312 1.796875 -2.582031 1.796875 -3.90625 L 1.796875 -9.3125 L 0 -9.3125 L 0 -11.640625 L 1.796875 -11.640625 L 1.796875 -14.484375 L 4.65625 -14.484375 L 4.65625 -11.640625 L 7.609375 -11.640625 L 7.609375 -9.3125 L 4.65625 -9.3125 L 4.65625 -3.96875 C 4.65625 -3.414062 4.785156 -2.992188 5.046875 -2.703125 C 5.316406 -2.410156 5.695312 -2.265625 6.1875 -2.265625 C 6.75 -2.265625 7.210938 -2.425781 7.578125 -2.75 Z M 8.375 -0.625 "/></g></g></g><g fill="#000000" fill-opacity="1"><g transform="translate(79.380855, 171.93224)"><g><path d="M 15.03125 0 L 12.28125 0 L 9.53125 -7.921875 L 6.671875 0 L 3.953125 0 L -0.171875 -11.859375 L 2.53125 -11.859375 L 5.390625 -3.375 L 8.359375 -11.859375 L 10.78125 -11.859375 L 13.671875 -3.375 L 16.609375 -11.859375 L 19.15625 -11.859375 Z M 15.03125 0 "/></g></g></g><g fill="#000000" fill-opacity="1"><g transform="translate(98.36284, 171.93224)"><g><path d="M 15.03125 0 L 12.28125 0 L 9.53125 -7.921875 L 6.671875 0 L 3.953125 0 L -0.171875 -11.859375 L 2.53125 -11.859375 L 5.390625 -3.375 L 8.359375 -11.859375 L 10.78125 -11.859375 L 13.671875 -3.375 L 16.609375 -11.859375 L 19.15625 -11.859375 Z M 15.03125 0 "/></g></g></g><g fill="#000000" fill-opacity="1"><g transform="translate(117.344826, 171.93224)"><g><path d="M 15.03125 0 L 12.28125 0 L 9.53125 -7.921875 L 6.671875 0 L 3.953125 0 L -0.171875 -11.859375 L 2.53125 -11.859375 L 5.390625 -3.375 L 8.359375 -11.859375 L 10.78125 -11.859375 L 13.671875 -3.375 L 16.609375 -11.859375 L 19.15625 -11.859375 Z M 15.03125 0 "/></g></g></g><g fill="#000000" fill-opacity="1"><g transform="translate(136.326811, 171.93224)"><g><path d="M 2.765625 0.15625 C 2.222656 0.15625 1.765625 -0.0234375 1.390625 -0.390625 C 1.023438 -0.753906 0.84375 -1.21875 0.84375 -1.78125 C 0.84375 -2.332031 1.023438 -2.785156 1.390625 -3.140625 C 1.765625 -3.503906 2.222656 -3.6875 2.765625 -3.6875 C 3.316406 -3.6875 3.773438 -3.503906 4.140625 -3.140625 C 4.515625 -2.785156 4.703125 -2.332031 4.703125 -1.78125 C 4.703125 -1.21875 4.515625 -0.753906 4.140625 -0.390625 C 3.773438 -0.0234375 3.316406 0.15625 2.765625 0.15625 Z M 2.765625 0.15625 "/></g></g></g><g fill="#000000" fill-opacity="1"><g transform="translate(141.870619, 171.93224)"><g><path d="M 4.171875 -10.109375 C 4.554688 -10.742188 5.085938 -11.222656 5.765625 -11.546875 C 6.441406 -11.867188 7.234375 -12.023438 8.140625 -12.015625 L 8.140625 -9.21875 L 7.46875 -9.265625 C 6.476562 -9.265625 5.703125 -8.960938 5.140625 -8.359375 C 4.578125 -7.765625 4.296875 -6.882812 4.296875 -5.71875 L 4.296875 0 L 1.421875 0 L 1.421875 -11.859375 L 4.171875 -11.859375 Z M 4.171875 -10.109375 "/></g></g></g><g fill="#000000" fill-opacity="1"><g transform="translate(150.341553, 171.93224)"><g><path d="M 12.1875 -5.921875 C 12.1875 -5.859375 12.164062 -5.582031 12.125 -5.09375 L 3.421875 -5.09375 C 3.546875 -4.226562 3.921875 -3.539062 4.546875 -3.03125 C 5.179688 -2.53125 5.972656 -2.28125 6.921875 -2.28125 C 8.117188 -2.28125 9.109375 -2.695312 9.890625 -3.53125 L 11.421875 -1.78125 C 10.335938 -0.488281 8.804688 0.15625 6.828125 0.15625 C 5.585938 0.15625 4.484375 -0.101562 3.515625 -0.625 C 2.554688 -1.15625 1.816406 -1.878906 1.296875 -2.796875 C 0.773438 -3.722656 0.515625 -4.769531 0.515625 -5.9375 C 0.515625 -7.101562 0.769531 -8.148438 1.28125 -9.078125 C 1.789062 -10.003906 2.492188 -10.722656 3.390625 -11.234375 C 4.296875 -11.753906 5.300781 -12.015625 6.40625 -12.015625 C 7.5 -12.015625 8.484375 -11.765625 9.359375 -11.265625 C 10.242188 -10.765625 10.9375 -10.054688 11.4375 -9.140625 C 11.9375 -8.222656 12.1875 -7.148438 12.1875 -5.921875 Z M 6.421875 -9.734375 C 5.609375 -9.734375 4.925781 -9.472656 4.375 -8.953125 C 3.820312 -8.441406 3.488281 -7.753906 3.375 -6.890625 L 9.484375 -6.890625 C 9.367188 -7.734375 9.035156 -8.414062 8.484375 -8.9375 C 7.929688 -9.46875 7.242188 -9.734375 6.421875 -9.734375 Z M 6.421875 -9.734375 "/></g></g></g><g fill="#000000" fill-opacity="1"><g transform="translate(163.047955, 171.93224)"><g><path d="M 5.859375 -12.015625 C 7.535156 -12.015625 8.820312 -11.585938 9.71875 -10.734375 C 10.613281 -9.890625 11.0625 -8.617188 11.0625 -6.921875 L 11.0625 0 L 8.375 0 L 8.375 -1.625 C 8.070312 -1.039062 7.617188 -0.597656 7.015625 -0.296875 C 6.421875 0.00390625 5.691406 0.15625 4.828125 0.15625 C 3.546875 0.15625 2.523438 -0.171875 1.765625 -0.828125 C 1.015625 -1.484375 0.640625 -2.335938 0.640625 -3.390625 C 0.640625 -4.472656 1.023438 -5.328125 1.796875 -5.953125 C 2.566406 -6.578125 3.753906 -6.890625 5.359375 -6.890625 L 8.203125 -6.890625 C 8.203125 -7.398438 8.128906 -7.804688 7.984375 -8.109375 C 7.640625 -9.117188 6.800781 -9.625 5.46875 -9.625 C 4.832031 -9.625 4.21875 -9.515625 3.625 -9.296875 C 3.03125 -9.085938 2.515625 -8.796875 2.078125 -8.421875 L 1.046875 -10.53125 C 1.648438 -11 2.375 -11.363281 3.21875 -11.625 C 4.070312 -11.882812 4.953125 -12.015625 5.859375 -12.015625 Z M 5.515625 -1.90625 C 6.148438 -1.90625 6.703125 -2.054688 7.171875 -2.359375 C 7.640625 -2.660156 7.984375 -3.109375 8.203125 -3.703125 L 8.203125 -5.09375 L 5.671875 -5.09375 C 4.179688 -5.09375 3.4375 -4.570312 3.4375 -3.53125 C 3.4375 -3.039062 3.617188 -2.644531 3.984375 -2.34375 C 4.359375 -2.050781 4.867188 -1.90625 5.515625 -1.90625 Z M 5.515625 -1.90625 "/></g></g></g><g fill="#000000" fill-opacity="1"><g transform="translate(175.466074, 171.93224)"><g><path d="M 4.296875 -16.453125 L 4.296875 0 L 1.421875 0 L 1.421875 -16.453125 Z M 4.296875 -16.453125 "/></g></g></g><g fill="#000000" fill-opacity="1"><g transform="translate(181.209454, 171.93224)"><g><path d="M 4.296875 -16.453125 L 4.296875 0 L 1.421875 0 L 1.421875 -16.453125 Z M 4.296875 -16.453125 "/></g></g></g><g fill="#000000" fill-opacity="1"><g transform="translate(186.952834, 171.93224)"><g><path d="M 7 0.890625 C 6.5 2.203125 5.882812 3.125 5.15625 3.65625 C 4.4375 4.1875 3.566406 4.453125 2.546875 4.453125 C 1.972656 4.453125 1.410156 4.351562 0.859375 4.15625 C 0.316406 3.96875 -0.128906 3.707031 -0.484375 3.375 L 0.578125 1.21875 C 0.828125 1.46875 1.117188 1.660156 1.453125 1.796875 C 1.785156 1.929688 2.117188 2 2.453125 2 C 2.941406 2 3.335938 1.859375 3.640625 1.578125 C 3.941406 1.304688 4.25 0.800781 4.5625 0.0625 L -0.359375 -11.859375 L 2.59375 -11.859375 L 6.03125 -3.34375 L 9.4375 -11.859375 L 12.21875 -11.859375 Z M 7 0.890625 "/></g></g></g><g fill="#000000" fill-opacity="1"><g transform="translate(198.816576, 171.93224)"><g><path d="M 12.796875 -1.859375 C 12.796875 2.347656 10.738281 4.453125 6.625 4.453125 C 5.53125 4.453125 4.503906 4.304688 3.546875 4.015625 C 2.585938 3.734375 1.789062 3.316406 1.15625 2.765625 L 2.328125 0.59375 C 2.828125 1.019531 3.441406 1.363281 4.171875 1.625 C 4.910156 1.882812 5.65625 2.015625 6.40625 2.015625 C 7.613281 2.015625 8.5 1.726562 9.0625 1.15625 C 9.625 0.59375 9.90625 -0.28125 9.90625 -1.46875 L 9.90625 -2.28125 C 9.5 -1.71875 8.96875 -1.285156 8.3125 -0.984375 C 7.664062 -0.691406 6.941406 -0.546875 6.140625 -0.546875 C 5.109375 -0.546875 4.160156 -0.785156 3.296875 -1.265625 C 2.441406 -1.753906 1.765625 -2.429688 1.265625 -3.296875 C 0.765625 -4.171875 0.515625 -5.171875 0.515625 -6.296875 C 0.515625 -7.421875 0.765625 -8.414062 1.265625 -9.28125 C 1.765625 -10.144531 2.441406 -10.816406 3.296875 -11.296875 C 4.160156 -11.773438 5.109375 -12.015625 6.140625 -12.015625 C 6.984375 -12.015625 7.738281 -11.851562 8.40625 -11.53125 C 9.082031 -11.207031 9.632812 -10.734375 10.0625 -10.109375 L 10.0625 -11.859375 L 12.796875 -11.859375 Z M 6.703125 -3.03125 C 7.640625 -3.03125 8.414062 -3.332031 9.03125 -3.9375 C 9.644531 -4.550781 9.953125 -5.335938 9.953125 -6.296875 C 9.953125 -7.253906 9.644531 -8.03125 9.03125 -8.625 C 8.414062 -9.226562 7.640625 -9.53125 6.703125 -9.53125 C 5.753906 -9.53125 4.972656 -9.226562 4.359375 -8.625 C 3.742188 -8.03125 3.4375 -7.253906 3.4375 -6.296875 C 3.4375 -5.335938 3.742188 -4.550781 4.359375 -3.9375 C 4.972656 -3.332031 5.753906 -3.03125 6.703125 -3.03125 Z M 6.703125 -3.03125 "/></g></g></g><g fill="#000000" fill-opacity="1"><g transform="translate(213.053065, 171.93224)"><g><path d="M 4.171875 -10.109375 C 4.554688 -10.742188 5.085938 -11.222656 5.765625 -11.546875 C 6.441406 -11.867188 7.234375 -12.023438 8.140625 -12.015625 L 8.140625 -9.21875 L 7.46875 -9.265625 C 6.476562 -9.265625 5.703125 -8.960938 5.140625 -8.359375 C 4.578125 -7.765625 4.296875 -6.882812 4.296875 -5.71875 L 4.296875 0 L 1.421875 0 L 1.421875 -11.859375 L 4.171875 -11.859375 Z M 4.171875 -10.109375 "/></g></g></g><g fill="#000000" fill-opacity="1"><g transform="translate(221.524, 171.93224)"><g><path d="M 12.1875 -5.921875 C 12.1875 -5.859375 12.164062 -5.582031 12.125 -5.09375 L 3.421875 -5.09375 C 3.546875 -4.226562 3.921875 -3.539062 4.546875 -3.03125 C 5.179688 -2.53125 5.972656 -2.28125 6.921875 -2.28125 C 8.117188 -2.28125 9.109375 -2.695312 9.890625 -3.53125 L 11.421875 -1.78125 C 10.335938 -0.488281 8.804688 0.15625 6.828125 0.15625 C 5.585938 0.15625 4.484375 -0.101562 3.515625 -0.625 C 2.554688 -1.15625 1.816406 -1.878906 1.296875 -2.796875 C 0.773438 -3.722656 0.515625 -4.769531 0.515625 -5.9375 C 0.515625 -7.101562 0.769531 -8.148438 1.28125 -9.078125 C 1.789062 -10.003906 2.492188 -10.722656 3.390625 -11.234375 C 4.296875 -11.753906 5.300781 -12.015625 6.40625 -12.015625 C 7.5 -12.015625 8.484375 -11.765625 9.359375 -11.265625 C 10.242188 -10.765625 10.9375 -10.054688 11.4375 -9.140625 C 11.9375 -8.222656 12.1875 -7.148438 12.1875 -5.921875 Z M 6.421875 -9.734375 C 5.609375 -9.734375 4.925781 -9.472656 4.375 -8.953125 C 3.820312 -8.441406 3.488281 -7.753906 3.375 -6.890625 L 9.484375 -6.890625 C 9.367188 -7.734375 9.035156 -8.414062 8.484375 -8.9375 C 7.929688 -9.46875 7.242188 -9.734375 6.421875 -9.734375 Z M 6.421875 -9.734375 "/></g></g></g><g fill="#000000" fill-opacity="1"><g transform="translate(234.230401, 171.93224)"><g><path d="M 5.859375 -12.015625 C 7.535156 -12.015625 8.820312 -11.585938 9.71875 -10.734375 C 10.613281 -9.890625 11.0625 -8.617188 11.0625 -6.921875 L 11.0625 0 L 8.375 0 L 8.375 -1.625 C 8.070312 -1.039062 7.617188 -0.597656 7.015625 -0.296875 C 6.421875 0.00390625 5.691406 0.15625 4.828125 0.15625 C 3.546875 0.15625 2.523438 -0.171875 1.765625 -0.828125 C 1.015625 -1.484375 0.640625 -2.335938 0.640625 -3.390625 C 0.640625 -4.472656 1.023438 -5.328125 1.796875 -5.953125 C 2.566406 -6.578125 3.753906 -6.890625 5.359375 -6.890625 L 8.203125 -6.890625 C 8.203125 -7.398438 8.128906 -7.804688 7.984375 -8.109375 C 7.640625 -9.117188 6.800781 -9.625 5.46875 -9.625 C 4.832031 -9.625 4.21875 -9.515625 3.625 -9.296875 C 3.03125 -9.085938 2.515625 -8.796875 2.078125 -8.421875 L 1.046875 -10.53125 C 1.648438 -11 2.375 -11.363281 3.21875 -11.625 C 4.070312 -11.882812 4.953125 -12.015625 5.859375 -12.015625 Z M 5.515625 -1.90625 C 6.148438 -1.90625 6.703125 -2.054688 7.171875 -2.359375 C 7.640625 -2.660156 7.984375 -3.109375 8.203125 -3.703125 L 8.203125 -5.09375 L 5.671875 -5.09375 C 4.179688 -5.09375 3.4375 -4.570312 3.4375 -3.53125 C 3.4375 -3.039062 3.617188 -2.644531 3.984375 -2.34375 C 4.359375 -2.050781 4.867188 -1.90625 5.515625 -1.90625 Z M 5.515625 -1.90625 "/></g></g></g><g fill="#000000" fill-opacity="1"><g transform="translate(246.648521, 171.93224)"><g><path d="M 8.375 -0.625 C 8.070312 -0.375 7.691406 -0.179688 7.234375 -0.046875 C 6.773438 0.0859375 6.289062 0.15625 5.78125 0.15625 C 4.507812 0.15625 3.523438 -0.1875 2.828125 -0.875 C 2.140625 -1.570312 1.796875 -2.582031 1.796875 -3.90625 L 1.796875 -9.3125 L 0 -9.3125 L 0 -11.640625 L 1.796875 -11.640625 L 1.796875 -14.484375 L 4.65625 -14.484375 L 4.65625 -11.640625 L 7.609375 -11.640625 L 7.609375 -9.3125 L 4.65625 -9.3125 L 4.65625 -3.96875 C 4.65625 -3.414062 4.785156 -2.992188 5.046875 -2.703125 C 5.316406 -2.410156 5.695312 -2.265625 6.1875 -2.265625 C 6.75 -2.265625 7.210938 -2.425781 7.578125 -2.75 Z M 8.375 -0.625 "/></g></g></g><g fill="#000000" fill-opacity="1"><g transform="translate(255.208154, 171.93224)"><g><path d="M 5.03125 0.15625 C 4.113281 0.15625 3.210938 0.03125 2.328125 -0.21875 C 1.453125 -0.46875 0.75 -0.785156 0.21875 -1.171875 L 1.203125 -3.34375 C 1.703125 -2.988281 2.304688 -2.703125 3.015625 -2.484375 C 3.722656 -2.265625 4.441406 -2.15625 5.171875 -2.15625 C 6.703125 -2.15625 7.46875 -2.582031 7.46875 -3.4375 C 7.46875 -3.832031 7.269531 -4.109375 6.875 -4.265625 C 6.476562 -4.429688 5.84375 -4.59375 4.96875 -4.75 C 4.050781 -4.894531 3.296875 -5.066406 2.703125 -5.265625 C 2.109375 -5.460938 1.597656 -5.800781 1.171875 -6.28125 C 0.742188 -6.757812 0.53125 -7.429688 0.53125 -8.296875 C 0.53125 -9.015625 0.726562 -9.65625 1.125 -10.21875 C 1.53125 -10.78125 2.109375 -11.21875 2.859375 -11.53125 C 3.609375 -11.851562 4.507812 -12.015625 5.5625 -12.015625 C 6.34375 -12.015625 7.117188 -11.921875 7.890625 -11.734375 C 8.671875 -11.554688 9.316406 -11.296875 9.828125 -10.953125 L 8.84375 -8.796875 C 7.851562 -9.421875 6.757812 -9.734375 5.5625 -9.734375 C 4.789062 -9.734375 4.21875 -9.609375 3.84375 -9.359375 C 3.46875 -9.117188 3.28125 -8.800781 3.28125 -8.40625 C 3.28125 -7.976562 3.484375 -7.675781 3.890625 -7.5 C 4.296875 -7.332031 4.953125 -7.164062 5.859375 -7 C 6.773438 -6.84375 7.519531 -6.664062 8.09375 -6.46875 C 8.664062 -6.28125 9.160156 -5.945312 9.578125 -5.46875 C 10.003906 -5 10.21875 -4.34375 10.21875 -3.5 C 10.21875 -2.40625 9.757812 -1.519531 8.84375 -0.84375 C 7.925781 -0.175781 6.65625 0.15625 5.03125 0.15625 Z M 5.03125 0.15625 "/></g></g></g><g fill="#000000" fill-opacity="1"><g transform="translate(265.74138, 171.93224)"><g><path d="M 2.859375 -13.75 C 2.328125 -13.75 1.882812 -13.914062 1.53125 -14.25 C 1.1875 -14.582031 1.015625 -14.988281 1.015625 -15.46875 C 1.015625 -15.957031 1.1875 -16.367188 1.53125 -16.703125 C 1.882812 -17.035156 2.328125 -17.203125 2.859375 -17.203125 C 3.390625 -17.203125 3.820312 -17.039062 4.15625 -16.71875 C 4.5 -16.40625 4.671875 -16.003906 4.671875 -15.515625 C 4.671875 -15.003906 4.5 -14.582031 4.15625 -14.25 C 3.820312 -13.914062 3.390625 -13.75 2.859375 -13.75 Z M 4.296875 -11.859375 L 4.296875 0 L 1.421875 0 L 1.421875 -11.859375 Z M 4.296875 -11.859375 "/></g></g></g><g fill="#000000" fill-opacity="1"><g transform="translate(271.48476, 171.93224)"><g><path d="M 8.375 -0.625 C 8.070312 -0.375 7.691406 -0.179688 7.234375 -0.046875 C 6.773438 0.0859375 6.289062 0.15625 5.78125 0.15625 C 4.507812 0.15625 3.523438 -0.1875 2.828125 -0.875 C 2.140625 -1.570312 1.796875 -2.582031 1.796875 -3.90625 L 1.796875 -9.3125 L 0 -9.3125 L 0 -11.640625 L 1.796875 -11.640625 L 1.796875 -14.484375 L 4.65625 -14.484375 L 4.65625 -11.640625 L 7.609375 -11.640625 L 7.609375 -9.3125 L 4.65625 -9.3125 L 4.65625 -3.96875 C 4.65625 -3.414062 4.785156 -2.992188 5.046875 -2.703125 C 5.316406 -2.410156 5.695312 -2.265625 6.1875 -2.265625 C 6.75 -2.265625 7.210938 -2.425781 7.578125 -2.75 Z M 8.375 -0.625 "/></g></g></g><g fill="#000000" fill-opacity="1"><g transform="translate(280.044393, 171.93224)"><g><path d="M 12.1875 -5.921875 C 12.1875 -5.859375 12.164062 -5.582031 12.125 -5.09375 L 3.421875 -5.09375 C 3.546875 -4.226562 3.921875 -3.539062 4.546875 -3.03125 C 5.179688 -2.53125 5.972656 -2.28125 6.921875 -2.28125 C 8.117188 -2.28125 9.109375 -2.695312 9.890625 -3.53125 L 11.421875 -1.78125 C 10.335938 -0.488281 8.804688 0.15625 6.828125 0.15625 C 5.585938 0.15625 4.484375 -0.101562 3.515625 -0.625 C 2.554688 -1.15625 1.816406 -1.878906 1.296875 -2.796875 C 0.773438 -3.722656 0.515625 -4.769531 0.515625 -5.9375 C 0.515625 -7.101562 0.769531 -8.148438 1.28125 -9.078125 C 1.789062 -10.003906 2.492188 -10.722656 3.390625 -11.234375 C 4.296875 -11.753906 5.300781 -12.015625 6.40625 -12.015625 C 7.5 -12.015625 8.484375 -11.765625 9.359375 -11.265625 C 10.242188 -10.765625 10.9375 -10.054688 11.4375 -9.140625 C 11.9375 -8.222656 12.1875 -7.148438 12.1875 -5.921875 Z M 6.421875 -9.734375 C 5.609375 -9.734375 4.925781 -9.472656 4.375 -8.953125 C 3.820312 -8.441406 3.488281 -7.753906 3.375 -6.890625 L 9.484375 -6.890625 C 9.367188 -7.734375 9.035156 -8.414062 8.484375 -8.9375 C 7.929688 -9.46875 7.242188 -9.734375 6.421875 -9.734375 Z M 6.421875 -9.734375 "/></g></g></g><g fill="#000000" fill-opacity="1"><g transform="translate(292.750795, 171.93224)"><g><path d="M 2.765625 0.15625 C 2.222656 0.15625 1.765625 -0.0234375 1.390625 -0.390625 C 1.023438 -0.753906 0.84375 -1.21875 0.84375 -1.78125 C 0.84375 -2.332031 1.023438 -2.785156 1.390625 -3.140625 C 1.765625 -3.503906 2.222656 -3.6875 2.765625 -3.6875 C 3.316406 -3.6875 3.773438 -3.503906 4.140625 -3.140625 C 4.515625 -2.785156 4.703125 -2.332031 4.703125 -1.78125 C 4.703125 -1.21875 4.515625 -0.753906 4.140625 -0.390625 C 3.773438 -0.0234375 3.316406 0.15625 2.765625 0.15625 Z M 2.765625 0.15625 "/></g></g></g><g fill="#000000" fill-opacity="1"><g transform="translate(298.294602, 171.93224)"><g><path d="M 6.703125 0.15625 C 5.515625 0.15625 4.453125 -0.0976562 3.515625 -0.609375 C 2.578125 -1.128906 1.84375 -1.851562 1.3125 -2.78125 C 0.78125 -3.71875 0.515625 -4.769531 0.515625 -5.9375 C 0.515625 -7.101562 0.78125 -8.148438 1.3125 -9.078125 C 1.84375 -10.003906 2.578125 -10.722656 3.515625 -11.234375 C 4.453125 -11.753906 5.515625 -12.015625 6.703125 -12.015625 C 7.835938 -12.015625 8.832031 -11.765625 9.6875 -11.265625 C 10.539062 -10.773438 11.175781 -10.070312 11.59375 -9.15625 L 9.375 -7.875 C 8.757812 -8.976562 7.859375 -9.53125 6.671875 -9.53125 C 5.722656 -9.53125 4.945312 -9.203125 4.34375 -8.546875 C 3.738281 -7.898438 3.4375 -7.03125 3.4375 -5.9375 C 3.4375 -4.832031 3.738281 -3.953125 4.34375 -3.296875 C 4.945312 -2.648438 5.722656 -2.328125 6.671875 -2.328125 C 7.859375 -2.328125 8.757812 -2.878906 9.375 -3.984375 L 11.59375 -2.6875 C 11.164062 -1.78125 10.519531 -1.078125 9.65625 -0.578125 C 8.800781 -0.0859375 7.816406 0.15625 6.703125 0.15625 Z M 6.703125 0.15625 "/></g></g></g><g fill="#000000" fill-opacity="1"><g transform="translate(310.158344, 171.93224)"><g><path d="M 6.625 0.15625 C 5.457031 0.15625 4.40625 -0.0976562 3.46875 -0.609375 C 2.539062 -1.128906 1.816406 -1.851562 1.296875 -2.78125 C 0.773438 -3.71875 0.515625 -4.769531 0.515625 -5.9375 C 0.515625 -7.101562 0.773438 -8.148438 1.296875 -9.078125 C 1.816406 -10.003906 2.539062 -10.722656 3.46875 -11.234375 C 4.40625 -11.753906 5.457031 -12.015625 6.625 -12.015625 C 7.78125 -12.015625 8.816406 -11.753906 9.734375 -11.234375 C 10.660156 -10.722656 11.382812 -10.003906 11.90625 -9.078125 C 12.4375 -8.148438 12.703125 -7.101562 12.703125 -5.9375 C 12.703125 -4.769531 12.4375 -3.71875 11.90625 -2.78125 C 11.382812 -1.851562 10.660156 -1.128906 9.734375 -0.609375 C 8.816406 -0.0976562 7.78125 0.15625 6.625 0.15625 Z M 6.625 -2.328125 C 7.539062 -2.328125 8.296875 -2.65625 8.890625 -3.3125 C 9.492188 -3.96875 9.796875 -4.84375 9.796875 -5.9375 C 9.796875 -7.03125 9.492188 -7.898438 8.890625 -8.546875 C 8.296875 -9.203125 7.539062 -9.53125 6.625 -9.53125 C 5.695312 -9.53125 4.929688 -9.203125 4.328125 -8.546875 C 3.734375 -7.898438 3.4375 -7.03125 3.4375 -5.9375 C 3.4375 -4.84375 3.734375 -3.96875 4.328125 -3.3125 C 4.929688 -2.65625 5.695312 -2.328125 6.625 -2.328125 Z M 6.625 -2.328125 "/></g></g></g><g fill="#000000" fill-opacity="1"><g transform="translate(323.374775, 171.93224)"><g><path d="M 15.734375 -12.015625 C 17.140625 -12.015625 18.253906 -11.578125 19.078125 -10.703125 C 19.910156 -9.835938 20.328125 -8.546875 20.328125 -6.828125 L 20.328125 0 L 17.46875 0 L 17.46875 -6.359375 C 17.46875 -7.367188 17.253906 -8.128906 16.828125 -8.640625 C 16.410156 -9.148438 15.828125 -9.40625 15.078125 -9.40625 C 14.203125 -9.40625 13.515625 -9.113281 13.015625 -8.53125 C 12.515625 -7.957031 12.265625 -7.125 12.265625 -6.03125 L 12.265625 0 L 9.421875 0 L 9.421875 -6.359375 C 9.421875 -7.378906 9.210938 -8.140625 8.796875 -8.640625 C 8.390625 -9.148438 7.800781 -9.40625 7.03125 -9.40625 C 6.164062 -9.40625 5.484375 -9.113281 4.984375 -8.53125 C 4.484375 -7.957031 4.234375 -7.125 4.234375 -6.03125 L 4.234375 0 L 1.375 0 L 1.375 -11.859375 L 4.09375 -11.859375 L 4.09375 -10.265625 C 4.507812 -10.828125 5.035156 -11.257812 5.671875 -11.5625 C 6.304688 -11.863281 7.015625 -12.015625 7.796875 -12.015625 C 8.640625 -12.015625 9.390625 -11.832031 10.046875 -11.46875 C 10.710938 -11.113281 11.226562 -10.585938 11.59375 -9.890625 C 12.039062 -10.554688 12.617188 -11.078125 13.328125 -11.453125 C 14.046875 -11.828125 14.847656 -12.015625 15.734375 -12.015625 Z M 15.734375 -12.015625 "/></g></g></g></svg>