<svg xmlns="http://www.w3.org/2000/svg" xmlns:xlink="http://www.w3.org/1999/xlink" width="200" zoomAndPan="magnify" viewBox="0 0 150 149.999998" height="200" preserveAspectRatio="xMidYMid meet" version="1.0"><defs><g/></defs><rect x="-15" width="180" fill="#ffffff" y="-15" height="179.999997" fill-opacity="1"/><rect x="-15" width="180" fill="#ffffff" y="-15" height="179.999997" fill-opacity="1"/><path fill="#006eff" d="M 9.554688 69.648438 C 8.972656 69.425781 8.414062 69.152344 7.882812 68.824219 C 7.347656 68.5 6.851562 68.125 6.390625 67.707031 C 5.929688 67.285156 5.507812 66.824219 5.132812 66.328125 C 4.757812 65.828125 4.433594 65.296875 4.160156 64.738281 C 3.882812 64.175781 3.664062 63.597656 3.496094 62.996094 C 3.332031 62.390625 3.222656 61.78125 3.171875 61.15625 C 3.121094 60.535156 3.128906 59.914062 3.195312 59.292969 C 3.261719 58.671875 3.386719 58.0625 3.570312 57.464844 C 4.070312 56.371094 4.597656 55.285156 5.148438 54.214844 C 5.703125 53.144531 6.28125 52.089844 6.886719 51.046875 C 7.488281 50.003906 8.117188 48.976562 8.769531 47.960938 C 9.425781 46.949219 10.101562 45.953125 10.804688 44.972656 C 11.503906 43.992188 12.230469 43.03125 12.976562 42.085938 C 13.726562 41.140625 14.496094 40.214844 15.289062 39.308594 C 16.082031 38.398438 16.894531 37.511719 17.730469 36.644531 C 18.566406 35.777344 19.421875 34.929688 20.300781 34.101562 C 21.175781 33.273438 22.074219 32.46875 22.988281 31.683594 C 23.902344 30.902344 24.835938 30.140625 25.789062 29.398438 C 26.742188 28.660156 27.710938 27.945312 28.695312 27.253906 C 29.683594 26.5625 30.6875 25.894531 31.703125 25.25 C 32.722656 24.605469 33.757812 23.988281 34.804688 23.394531 C 35.855469 22.800781 36.917969 22.230469 37.992188 21.691406 C 39.070312 21.148438 40.15625 20.632812 41.257812 20.140625 C 42.359375 19.652344 43.472656 19.1875 44.59375 18.75 C 45.71875 18.316406 46.851562 17.90625 47.996094 17.523438 C 49.136719 17.144531 50.289062 16.789062 51.449219 16.460938 C 52.609375 16.136719 53.777344 15.839844 54.953125 15.570312 C 56.125 15.300781 57.304688 15.058594 58.492188 14.84375 C 59.679688 14.632812 60.867188 14.449219 62.0625 14.292969 C 63.257812 14.136719 64.457031 14.011719 65.660156 13.914062 C 66.859375 13.816406 68.0625 13.746094 69.265625 13.707031 C 70.472656 13.667969 71.675781 13.65625 72.878906 13.675781 C 74.085938 13.695312 75.289062 13.742188 76.492188 13.820312 C 77.695312 13.894531 78.894531 14 80.09375 14.136719 C 81.289062 14.269531 82.484375 14.433594 83.671875 14.625 C 84.863281 14.816406 86.046875 15.039062 87.226562 15.289062 C 88.40625 15.539062 89.578125 15.816406 90.742188 16.121094 C 91.910156 16.425781 93.066406 16.761719 94.214844 17.121094 C 95.367188 17.484375 96.503906 17.871094 97.636719 18.289062 C 98.765625 18.707031 99.886719 19.148438 100.996094 19.621094 C 102.105469 20.089844 103.203125 20.589844 104.289062 21.113281 C 105.375 21.636719 106.445312 22.1875 107.503906 22.761719 C 108.5625 23.335938 109.609375 23.9375 110.636719 24.5625 C 111.667969 25.1875 112.683594 25.839844 113.679688 26.515625 C 114.679688 27.1875 115.660156 27.886719 116.625 28.609375 C 117.589844 29.332031 118.535156 30.078125 119.464844 30.84375 C 120.394531 31.613281 121.304688 32.402344 122.195312 33.214844 C 123.085938 34.023438 123.957031 34.859375 124.808594 35.710938 C 125.65625 36.566406 126.488281 37.4375 127.296875 38.332031 C 128.105469 39.226562 128.890625 40.140625 129.65625 41.070312 C 130.417969 42.003906 131.160156 42.953125 131.878906 43.917969 C 132.597656 44.886719 133.292969 45.871094 133.964844 46.871094 C 134.632812 47.875 135.28125 48.890625 135.902344 49.921875 C 136.523438 50.953125 137.121094 52 137.691406 53.0625 C 138.265625 54.121094 138.808594 55.195312 139.328125 56.285156 C 139.847656 57.371094 140.34375 58.46875 140.808594 59.582031 C 141.277344 60.691406 141.714844 61.8125 142.128906 62.945312 C 142.539062 64.078125 142.925781 65.21875 143.28125 66.371094 C 143.640625 67.523438 143.96875 68.679688 144.273438 69.847656 C 144.574219 71.015625 144.847656 72.1875 145.089844 73.367188 C 145.335938 74.546875 145.550781 75.734375 145.742188 76.921875 C 145.929688 78.113281 146.085938 79.308594 146.21875 80.503906 C 146.347656 81.703125 146.449219 82.90625 146.519531 84.105469 C 146.59375 85.308594 146.636719 86.515625 146.648438 87.71875 C 146.664062 88.925781 146.648438 90.128906 146.605469 91.332031 C 146.5625 92.539062 146.488281 93.738281 146.386719 94.941406 C 146.285156 96.140625 146.152344 97.339844 145.992188 98.535156 C 145.832031 99.726562 145.644531 100.917969 145.425781 102.101562 C 145.210938 103.289062 144.964844 104.46875 144.691406 105.640625 C 144.417969 106.816406 144.113281 107.980469 143.785156 109.140625 C 143.453125 110.300781 143.09375 111.449219 142.710938 112.589844 C 142.324219 113.734375 141.910156 114.863281 141.46875 115.984375 C 141.167969 116.53125 140.816406 117.042969 140.414062 117.523438 C 140.015625 118.003906 139.574219 118.441406 139.089844 118.835938 C 138.609375 119.234375 138.09375 119.582031 137.542969 119.878906 C 136.996094 120.179688 136.425781 120.421875 135.832031 120.613281 C 135.234375 120.804688 134.628906 120.941406 134.007812 121.015625 C 133.390625 121.09375 132.769531 121.113281 132.144531 121.070312 C 131.523438 121.03125 130.910156 120.933594 130.304688 120.777344 C 129.699219 120.621094 129.113281 120.410156 128.550781 120.144531 L 111.179688 110.5 C 110.515625 110.246094 109.886719 109.921875 109.292969 109.535156 C 108.699219 109.144531 108.152344 108.699219 107.65625 108.191406 C 107.15625 107.6875 106.71875 107.132812 106.339844 106.535156 C 105.960938 105.933594 105.648438 105.300781 105.402344 104.636719 C 105.160156 103.96875 104.988281 103.285156 104.890625 102.582031 C 104.796875 101.878906 104.773438 101.171875 104.828125 100.464844 C 104.882812 99.757812 105.011719 99.0625 105.214844 98.382812 C 105.417969 97.703125 105.691406 97.050781 106.03125 96.429688 C 106.257812 95.433594 106.445312 94.425781 106.582031 93.414062 C 106.722656 92.402344 106.820312 91.382812 106.871094 90.363281 C 106.921875 89.34375 106.929688 88.320312 106.890625 87.296875 C 106.851562 86.277344 106.769531 85.257812 106.644531 84.242188 C 106.519531 83.230469 106.347656 82.222656 106.132812 81.222656 C 105.917969 80.222656 105.660156 79.234375 105.359375 78.257812 C 105.0625 77.277344 104.71875 76.316406 104.332031 75.367188 C 103.949219 74.421875 103.523438 73.492188 103.058594 72.582031 C 102.59375 71.671875 102.089844 70.78125 101.546875 69.914062 C 101.003906 69.050781 100.425781 68.207031 99.808594 67.390625 C 99.191406 66.574219 98.542969 65.789062 97.855469 65.027344 C 97.171875 64.269531 96.457031 63.542969 95.707031 62.84375 C 94.957031 62.148438 94.183594 61.484375 93.375 60.855469 C 92.570312 60.226562 91.738281 59.632812 90.878906 59.078125 C 90.023438 58.519531 89.140625 58.003906 88.238281 57.523438 C 87.335938 57.042969 86.414062 56.601562 85.472656 56.203125 C 84.53125 55.804688 83.574219 55.445312 82.601562 55.128906 C 81.628906 54.8125 80.644531 54.542969 79.648438 54.3125 C 78.652344 54.082031 77.648438 53.894531 76.636719 53.75 C 75.621094 53.609375 74.605469 53.511719 73.585938 53.457031 C 72.5625 53.402344 71.542969 53.394531 70.519531 53.429688 C 69.5 53.464844 68.480469 53.542969 67.464844 53.667969 C 66.449219 53.789062 65.441406 53.957031 64.441406 54.167969 C 63.441406 54.382812 62.453125 54.636719 61.472656 54.933594 C 60.496094 55.230469 59.53125 55.570312 58.582031 55.953125 C 57.636719 56.335938 56.703125 56.757812 55.792969 57.222656 C 54.882812 57.683594 53.992188 58.1875 53.125 58.726562 C 52.253906 59.265625 51.414062 59.84375 50.59375 60.457031 C 49.777344 61.074219 48.988281 61.722656 48.226562 62.402344 C 47.464844 63.085938 46.734375 63.800781 46.035156 64.546875 C 45.339844 65.292969 44.671875 66.070312 44.042969 66.875 C 43.410156 67.679688 42.816406 68.507812 42.257812 69.363281 C 42.046875 70.042969 41.769531 70.691406 41.421875 71.308594 C 41.074219 71.929688 40.664062 72.503906 40.191406 73.035156 C 39.71875 73.566406 39.199219 74.039062 38.625 74.457031 C 38.050781 74.878906 37.441406 75.230469 36.792969 75.519531 C 36.144531 75.804688 35.472656 76.023438 34.777344 76.164062 C 34.082031 76.308594 33.378906 76.378906 32.667969 76.371094 C 31.957031 76.363281 31.257812 76.28125 30.566406 76.125 C 29.875 75.96875 29.207031 75.738281 28.5625 75.441406 Z M 9.554688 69.648438 " fill-opacity="1" fill-rule="nonzero"/><g fill="#ffffff" fill-opacity="1"><g transform="translate(28.374647, 65.14847)"><g><path d="M 13.375 -14.34375 L 11.0625 -11.875 L -0.09375 -17.21875 L 5.953125 -6.390625 L 3.671875 -3.9375 L -11.875 -11.359375 L -9.640625 -13.765625 L 1.8125 -8.21875 L -4.421875 -19.359375 L -2.4375 -21.484375 L 9.125 -15.953125 L 2.796875 -27.109375 L 4.859375 -29.328125 Z M 13.375 -14.34375 "/></g></g></g><g fill="#ffffff" fill-opacity="1"><g transform="translate(45.082203, 48.378681)"><g><path d="M 12.125 -5.71875 L 1.421875 -0.671875 L -5.59375 -15.53125 L 4.84375 -20.453125 L 5.984375 -18.046875 L -1.625 -14.46875 L 0.125 -10.75 L 6.859375 -13.921875 L 7.96875 -11.5625 L 1.234375 -8.390625 L 3.109375 -4.4375 L 10.984375 -8.140625 Z M 12.125 -5.71875 "/></g></g></g><g fill="#ffffff" fill-opacity="1"><g transform="translate(57.052367, 42.293764)"><g><path d="M 6.3125 -17.390625 C 7.976562 -17.597656 9.492188 -17.445312 10.859375 -16.9375 C 12.234375 -16.4375 13.351562 -15.613281 14.21875 -14.46875 C 15.09375 -13.332031 15.640625 -11.957031 15.859375 -10.34375 C 16.066406 -8.726562 15.890625 -7.253906 15.328125 -5.921875 C 14.773438 -4.597656 13.898438 -3.515625 12.703125 -2.671875 C 11.515625 -1.828125 10.085938 -1.300781 8.421875 -1.09375 L 1.5625 -0.203125 L -0.546875 -16.5 Z M 7.890625 -3.796875 C 8.992188 -3.941406 9.929688 -4.285156 10.703125 -4.828125 C 11.472656 -5.378906 12.03125 -6.097656 12.375 -6.984375 C 12.726562 -7.867188 12.835938 -8.851562 12.703125 -9.9375 C 12.554688 -11.019531 12.203125 -11.941406 11.640625 -12.703125 C 11.085938 -13.460938 10.367188 -14.015625 9.484375 -14.359375 C 8.597656 -14.710938 7.601562 -14.816406 6.5 -14.671875 L 2.9375 -14.21875 L 4.328125 -3.34375 Z M 7.890625 -3.796875 "/></g></g></g><g fill="#ffffff" fill-opacity="1"><g transform="translate(74.319519, 40.770225)"><g/></g></g><g fill="#ffffff" fill-opacity="1"><g transform="translate(78.868749, 40.457352)"><g><path d="M 13.296875 -12.875 C 14.890625 -12.332031 16.1875 -11.535156 17.1875 -10.484375 C 18.195312 -9.429688 18.84375 -8.195312 19.125 -6.78125 C 19.414062 -5.375 19.300781 -3.898438 18.78125 -2.359375 C 18.257812 -0.816406 17.457031 0.425781 16.375 1.375 C 15.300781 2.332031 14.039062 2.925781 12.59375 3.15625 C 11.15625 3.394531 9.640625 3.242188 8.046875 2.703125 L 1.5 0.5 L 6.75 -15.078125 Z M 8.75 0.046875 C 9.8125 0.398438 10.8125 0.5 11.75 0.34375 C 12.6875 0.1875 13.5 -0.207031 14.1875 -0.84375 C 14.882812 -1.488281 15.410156 -2.332031 15.765625 -3.375 C 16.109375 -4.40625 16.195312 -5.390625 16.03125 -6.328125 C 15.863281 -7.265625 15.457031 -8.078125 14.8125 -8.765625 C 14.164062 -9.460938 13.3125 -9.988281 12.25 -10.34375 L 8.84375 -11.5 L 5.34375 -1.109375 Z M 8.75 0.046875 "/></g></g></g><g fill="#ffffff" fill-opacity="1"><g transform="translate(94.778779, 45.970353)"><g><path d="M 10.765625 7.984375 L 1.265625 0.9375 L 11.046875 -12.265625 L 20.3125 -5.40625 L 18.71875 -3.265625 L 11.96875 -8.265625 L 9.53125 -4.96875 L 15.5 -0.546875 L 13.9375 1.5625 L 7.96875 -2.859375 L 5.375 0.65625 L 12.359375 5.84375 Z M 10.765625 7.984375 "/></g></g></g><g fill="#ffffff" fill-opacity="1"><g transform="translate(105.720507, 54.04496)"><g><path d="M 3.828125 5.375 C 3.097656 4.425781 2.53125 3.390625 2.125 2.265625 C 1.71875 1.140625 1.539062 0.132812 1.59375 -0.75 L 4.21875 -1.421875 C 4.195312 -0.578125 4.335938 0.304688 4.640625 1.234375 C 4.953125 2.171875 5.398438 3.007812 5.984375 3.75 C 6.660156 4.632812 7.304688 5.171875 7.921875 5.359375 C 8.546875 5.554688 9.101562 5.46875 9.59375 5.09375 C 9.96875 4.800781 10.164062 4.445312 10.1875 4.03125 C 10.21875 3.613281 10.160156 3.171875 10.015625 2.703125 C 9.867188 2.242188 9.617188 1.609375 9.265625 0.796875 C 8.773438 -0.316406 8.421875 -1.257812 8.203125 -2.03125 C 7.984375 -2.800781 7.960938 -3.585938 8.140625 -4.390625 C 8.328125 -5.203125 8.847656 -5.941406 9.703125 -6.609375 C 10.429688 -7.179688 11.238281 -7.507812 12.125 -7.59375 C 13.007812 -7.675781 13.921875 -7.472656 14.859375 -6.984375 C 15.796875 -6.503906 16.6875 -5.71875 17.53125 -4.625 C 18.132812 -3.84375 18.617188 -3.003906 18.984375 -2.109375 C 19.347656 -1.222656 19.554688 -0.363281 19.609375 0.46875 L 17.015625 1.21875 C 16.941406 0.414062 16.757812 -0.34375 16.46875 -1.0625 C 16.1875 -1.789062 15.832031 -2.429688 15.40625 -2.984375 C 14.726562 -3.859375 14.070312 -4.382812 13.4375 -4.5625 C 12.800781 -4.738281 12.238281 -4.632812 11.75 -4.25 C 11.382812 -3.96875 11.179688 -3.613281 11.140625 -3.1875 C 11.109375 -2.769531 11.175781 -2.316406 11.34375 -1.828125 C 11.507812 -1.347656 11.765625 -0.710938 12.109375 0.078125 C 12.617188 1.210938 12.976562 2.15625 13.1875 2.90625 C 13.394531 3.664062 13.410156 4.445312 13.234375 5.25 C 13.066406 6.0625 12.5625 6.796875 11.71875 7.453125 C 10.988281 8.015625 10.179688 8.332031 9.296875 8.40625 C 8.410156 8.476562 7.488281 8.265625 6.53125 7.765625 C 5.582031 7.273438 4.679688 6.476562 3.828125 5.375 Z M 3.828125 5.375 "/></g></g></g><g fill="#ffffff" fill-opacity="1"><g transform="translate(113.580277, 64.754396)"><g><path d="M 16.875 -2.875 L 2.109375 4.328125 L 0.734375 1.5 L 15.5 -5.703125 Z M 16.875 -2.875 "/></g></g></g><g fill="#ffffff" fill-opacity="1"><g transform="translate(116.883004, 70.121739)"><g><path d="M 11.5625 13 L 5.140625 14.4375 C 4.304688 13.789062 3.585938 12.976562 2.984375 12 C 2.390625 11.019531 1.96875 9.984375 1.71875 8.890625 C 1.363281 7.328125 1.398438 5.832031 1.828125 4.40625 C 2.265625 2.988281 3.03125 1.785156 4.125 0.796875 C 5.226562 -0.191406 6.566406 -0.863281 8.140625 -1.21875 C 9.734375 -1.582031 11.234375 -1.546875 12.640625 -1.109375 C 14.054688 -0.671875 15.265625 0.0976562 16.265625 1.203125 C 17.265625 2.304688 17.941406 3.648438 18.296875 5.234375 C 18.585938 6.535156 18.625 7.765625 18.40625 8.921875 C 18.1875 10.078125 17.71875 11.117188 17 12.046875 L 14.640625 10.5 C 15.609375 9.125 15.910156 7.625 15.546875 6 C 15.304688 4.957031 14.863281 4.078125 14.21875 3.359375 C 13.570312 2.648438 12.78125 2.164062 11.84375 1.90625 C 10.914062 1.644531 9.914062 1.632812 8.84375 1.875 C 7.789062 2.113281 6.898438 2.546875 6.171875 3.171875 C 5.441406 3.804688 4.925781 4.582031 4.625 5.5 C 4.332031 6.425781 4.304688 7.410156 4.546875 8.453125 C 4.804688 9.609375 5.316406 10.550781 6.078125 11.28125 L 10.9375 10.1875 Z M 11.5625 13 "/></g></g></g><g fill="#ffffff" fill-opacity="1"><g transform="translate(120.524731, 85.351902)"><g><path d="M -1.734375 15.59375 L -1.453125 13.03125 L 10.21875 5.9375 L -0.53125 4.734375 L -0.1875 1.65625 L 16.15625 3.46875 L 15.875 6.03125 L 4.21875 13.140625 L 14.953125 14.328125 L 14.609375 17.40625 Z M -1.734375 15.59375 "/></g></g></g></svg>