<svg xmlns="http://www.w3.org/2000/svg" xmlns:xlink="http://www.w3.org/1999/xlink" width="200" zoomAndPan="magnify" viewBox="0 0 150 37.5" height="50" preserveAspectRatio="xMidYMid meet" version="1.0"><defs><g/><clipPath id="f0e06f87d1"><path d="M 0.988281 0 L 149.011719 0 L 149.011719 37.007812 L 0.988281 37.007812 Z M 0.988281 0 " clip-rule="nonzero"/></clipPath></defs><g clip-path="url(#f0e06f87d1)"><path fill="#ffffff" d="M 0.988281 0 L 149.011719 0 L 149.011719 37.007812 L 0.988281 37.007812 Z M 0.988281 0 " fill-opacity="1" fill-rule="nonzero"/><path fill="#ffffff" d="M 0.988281 0 L 149.011719 0 L 149.011719 37.007812 L 0.988281 37.007812 Z M 0.988281 0 " fill-opacity="1" fill-rule="nonzero"/></g><path fill="#006eff" d="M 25.261719 4.546875 L 124.738281 4.546875 C 126.417969 4.546875 128.03125 5.210938 129.21875 6.398438 C 130.40625 7.589844 131.074219 9.199219 131.074219 10.878906 L 131.074219 23.546875 C 131.074219 25.230469 130.40625 26.839844 129.21875 28.027344 C 128.03125 29.214844 126.417969 29.882812 124.738281 29.882812 L 25.261719 29.882812 C 21.761719 29.882812 18.925781 27.046875 18.925781 23.546875 L 18.925781 10.878906 C 18.925781 7.382812 21.761719 4.546875 25.261719 4.546875 Z M 25.261719 4.546875 " fill-opacity="1" fill-rule="nonzero"/><g fill="#ffffff" fill-opacity="1"><g transform="translate(28.179505, 22.441755)"><g><path d="M 12.625 0 L 10.453125 0 L 8.078125 -7.609375 L 5.625 0 L 3.46875 0 L 0.140625 -10.578125 L 2.25 -10.578125 L 4.65625 -2.75 L 7.1875 -10.578125 L 9.0625 -10.578125 L 11.515625 -2.703125 L 14 -10.578125 L 15.9375 -10.578125 Z M 12.625 0 "/></g></g></g><g fill="#ffffff" fill-opacity="1"><g transform="translate(44.24661, 22.441755)"><g><path d="M 8.640625 0 L 1.015625 0 L 1.015625 -10.578125 L 8.4375 -10.578125 L 8.4375 -8.859375 L 3.03125 -8.859375 L 3.03125 -6.21875 L 7.8125 -6.21875 L 7.8125 -4.53125 L 3.03125 -4.53125 L 3.03125 -1.71875 L 8.640625 -1.71875 Z M 8.640625 0 "/></g></g></g><g fill="#ffffff" fill-opacity="1"><g transform="translate(53.345759, 22.441755)"><g><path d="M 8.125 -5.5 C 8.726562 -5.320312 9.195312 -5.003906 9.53125 -4.546875 C 9.875 -4.097656 10.046875 -3.539062 10.046875 -2.875 C 10.046875 -1.957031 9.707031 -1.25 9.03125 -0.75 C 8.351562 -0.25 7.363281 0 6.0625 0 L 1.015625 0 L 1.015625 -10.578125 L 5.78125 -10.578125 C 6.976562 -10.578125 7.898438 -10.332031 8.546875 -9.84375 C 9.203125 -9.363281 9.53125 -8.695312 9.53125 -7.84375 C 9.53125 -7.300781 9.40625 -6.828125 9.15625 -6.421875 C 8.90625 -6.023438 8.5625 -5.71875 8.125 -5.5 Z M 3.03125 -6.140625 L 5.546875 -6.140625 C 6.179688 -6.140625 6.660156 -6.257812 6.984375 -6.5 C 7.316406 -6.738281 7.484375 -7.09375 7.484375 -7.5625 C 7.484375 -8.019531 7.316406 -8.367188 6.984375 -8.609375 C 6.660156 -8.847656 6.179688 -8.96875 5.546875 -8.96875 L 3.03125 -8.96875 Z M 5.921875 -1.625 C 7.304688 -1.625 8 -2.109375 8 -3.078125 C 8 -4.066406 7.304688 -4.5625 5.921875 -4.5625 L 3.03125 -4.5625 L 3.03125 -1.625 Z M 5.921875 -1.625 "/></g></g></g><g fill="#ffffff" fill-opacity="1"><g transform="translate(63.775017, 22.441755)"><g/></g></g><g fill="#ffffff" fill-opacity="1"><g transform="translate(66.767763, 22.441755)"><g><path d="M 5.453125 -10.578125 C 6.546875 -10.578125 7.507812 -10.359375 8.34375 -9.921875 C 9.175781 -9.484375 9.820312 -8.863281 10.28125 -8.0625 C 10.75 -7.257812 10.984375 -6.335938 10.984375 -5.296875 C 10.984375 -4.242188 10.75 -3.316406 10.28125 -2.515625 C 9.820312 -1.710938 9.175781 -1.09375 8.34375 -0.65625 C 7.507812 -0.21875 6.546875 0 5.453125 0 L 1.015625 0 L 1.015625 -10.578125 Z M 5.359375 -1.765625 C 6.066406 -1.765625 6.691406 -1.90625 7.234375 -2.1875 C 7.773438 -2.476562 8.191406 -2.890625 8.484375 -3.421875 C 8.773438 -3.960938 8.921875 -4.585938 8.921875 -5.296875 C 8.921875 -5.992188 8.773438 -6.609375 8.484375 -7.140625 C 8.191406 -7.679688 7.773438 -8.097656 7.234375 -8.390625 C 6.691406 -8.679688 6.066406 -8.828125 5.359375 -8.828125 L 3.046875 -8.828125 L 3.046875 -1.765625 Z M 5.359375 -1.765625 "/></g></g></g><g fill="#ffffff" fill-opacity="1"><g transform="translate(78.119027, 22.441755)"><g><path d="M 8.640625 0 L 1.015625 0 L 1.015625 -10.578125 L 8.4375 -10.578125 L 8.4375 -8.859375 L 3.03125 -8.859375 L 3.03125 -6.21875 L 7.8125 -6.21875 L 7.8125 -4.53125 L 3.03125 -4.53125 L 3.03125 -1.71875 L 8.640625 -1.71875 Z M 8.640625 0 "/></g></g></g><g fill="#ffffff" fill-opacity="1"><g transform="translate(87.218176, 22.441755)"><g><path d="M 4.25 0.171875 C 3.46875 0.171875 2.710938 0.0507812 1.984375 -0.1875 C 1.253906 -0.425781 0.671875 -0.734375 0.234375 -1.109375 L 0.9375 -2.703125 C 1.363281 -2.359375 1.875 -2.082031 2.46875 -1.875 C 3.0625 -1.664062 3.660156 -1.5625 4.265625 -1.5625 C 4.984375 -1.5625 5.515625 -1.679688 5.859375 -1.921875 C 6.203125 -2.160156 6.375 -2.476562 6.375 -2.875 C 6.375 -3.175781 6.273438 -3.414062 6.078125 -3.59375 C 5.878906 -3.78125 5.628906 -3.925781 5.328125 -4.03125 C 5.035156 -4.132812 4.609375 -4.257812 4.046875 -4.40625 C 3.296875 -4.582031 2.679688 -4.769531 2.203125 -4.96875 C 1.722656 -5.164062 1.3125 -5.46875 0.96875 -5.875 C 0.625 -6.289062 0.453125 -6.847656 0.453125 -7.546875 C 0.453125 -8.140625 0.601562 -8.675781 0.90625 -9.15625 C 1.21875 -9.644531 1.679688 -10.03125 2.296875 -10.3125 C 2.910156 -10.601562 3.660156 -10.75 4.546875 -10.75 C 5.179688 -10.75 5.796875 -10.664062 6.390625 -10.5 C 6.992188 -10.332031 7.519531 -10.097656 7.96875 -9.796875 L 7.328125 -8.1875 C 6.890625 -8.46875 6.429688 -8.675781 5.953125 -8.8125 C 5.472656 -8.957031 5.003906 -9.03125 4.546875 -9.03125 C 3.847656 -9.03125 3.328125 -8.898438 2.984375 -8.640625 C 2.640625 -8.378906 2.46875 -8.050781 2.46875 -7.65625 C 2.46875 -7.363281 2.566406 -7.125 2.765625 -6.9375 C 2.960938 -6.75 3.21875 -6.597656 3.53125 -6.484375 C 3.84375 -6.378906 4.269531 -6.265625 4.8125 -6.140625 C 5.582031 -5.953125 6.203125 -5.757812 6.671875 -5.5625 C 7.140625 -5.375 7.546875 -5.070312 7.890625 -4.65625 C 8.234375 -4.25 8.40625 -3.707031 8.40625 -3.03125 C 8.40625 -2.4375 8.25 -1.898438 7.9375 -1.421875 C 7.625 -0.941406 7.15625 -0.554688 6.53125 -0.265625 C 5.90625 0.0234375 5.144531 0.171875 4.25 0.171875 Z M 4.25 0.171875 "/></g></g></g><g fill="#ffffff" fill-opacity="1"><g transform="translate(95.848768, 22.441755)"><g><path d="M 3.09375 -10.578125 L 3.09375 0 L 1.078125 0 L 1.078125 -10.578125 Z M 3.09375 -10.578125 "/></g></g></g><g fill="#ffffff" fill-opacity="1"><g transform="translate(100.020474, 22.441755)"><g><path d="M 9.796875 -5.421875 L 9.796875 -1.1875 C 9.273438 -0.757812 8.660156 -0.425781 7.953125 -0.1875 C 7.253906 0.0507812 6.546875 0.171875 5.828125 0.171875 C 4.796875 0.171875 3.863281 -0.0625 3.03125 -0.53125 C 2.195312 -1 1.546875 -1.648438 1.078125 -2.484375 C 0.609375 -3.316406 0.375 -4.253906 0.375 -5.296875 C 0.375 -6.335938 0.609375 -7.269531 1.078125 -8.09375 C 1.554688 -8.925781 2.210938 -9.578125 3.046875 -10.046875 C 3.878906 -10.515625 4.816406 -10.75 5.859375 -10.75 C 6.722656 -10.75 7.5 -10.597656 8.1875 -10.296875 C 8.882812 -10.003906 9.476562 -9.566406 9.96875 -8.984375 L 8.671875 -7.71875 C 7.929688 -8.519531 7.023438 -8.921875 5.953125 -8.921875 C 5.265625 -8.921875 4.648438 -8.765625 4.109375 -8.453125 C 3.578125 -8.148438 3.160156 -7.722656 2.859375 -7.171875 C 2.566406 -6.617188 2.421875 -5.992188 2.421875 -5.296875 C 2.421875 -4.597656 2.566406 -3.972656 2.859375 -3.421875 C 3.160156 -2.867188 3.578125 -2.4375 4.109375 -2.125 C 4.648438 -1.8125 5.257812 -1.65625 5.9375 -1.65625 C 6.707031 -1.65625 7.375 -1.84375 7.9375 -2.21875 L 7.9375 -5.421875 Z M 9.796875 -5.421875 "/></g></g></g><g fill="#ffffff" fill-opacity="1"><g transform="translate(110.646228, 22.441755)"><g><path d="M 10.09375 0 L 8.4375 0 L 3.0625 -6.953125 L 3.0625 0 L 1.078125 0 L 1.078125 -10.578125 L 2.734375 -10.578125 L 8.109375 -3.625 L 8.109375 -10.578125 L 10.09375 -10.578125 Z M 10.09375 0 "/></g></g></g></svg>